solid Cube
facet normal -0.0 0.0 -1.0
  outer loop
    vertex 6.05499887466 0.875 -1.49011540884e-08
    vertex 6.05499887466 1.31249988079 -1.49011540884e-08
    vertex 6.99999856949 1.31249976158 -1.49011540884e-08
  endloop
endfacet
facet normal -0.0 0.0 -1.0
  outer loop
    vertex 6.05499887466 0.875 -1.49011540884e-08
    vertex 6.99999856949 1.31249976158 -1.49011540884e-08
    vertex 6.99999856949 0.875 -1.49011540884e-08
  endloop
endfacet
facet normal 0.0 0.0 -1.0
  outer loop
    vertex 6.99999856949 1.74999952316 -1.49011540884e-08
    vertex 6.99999856949 1.31249976158 -1.49011540884e-08
    vertex 6.05499887466 1.31249988079 -1.49011540884e-08
  endloop
endfacet
facet normal 0.0 0.0 -1.0
  outer loop
    vertex 6.99999856949 1.74999952316 -1.49011540884e-08
    vertex 6.05499887466 1.31249988079 -1.49011540884e-08
    vertex 6.0549993515 1.74999964237 -1.49011540884e-08
  endloop
endfacet
facet normal -0.0 0.0 -1.0
  outer loop
    vertex 5.10999917984 0.875000059605 -1.49011540884e-08
    vertex 5.10999965668 1.31249988079 -1.49011540884e-08
    vertex 6.05499887466 1.31249988079 -1.49011540884e-08
  endloop
endfacet
facet normal -0.0 0.0 -1.0
  outer loop
    vertex 5.10999917984 0.875000059605 -1.49011540884e-08
    vertex 6.05499887466 1.31249988079 -1.49011540884e-08
    vertex 6.05499887466 0.875 -1.49011540884e-08
  endloop
endfacet
facet normal -0.0 0.0 -1.0
  outer loop
    vertex 5.10999965668 1.31249988079 -1.49011540884e-08
    vertex 5.10999965668 1.74999964237 -1.49011540884e-08
    vertex 6.0549993515 1.74999964237 -1.49011540884e-08
  endloop
endfacet
facet normal -0.0 0.0 -1.0
  outer loop
    vertex 5.10999965668 1.31249988079 -1.49011540884e-08
    vertex 6.0549993515 1.74999964237 -1.49011540884e-08
    vertex 6.05499887466 1.31249988079 -1.49011540884e-08
  endloop
endfacet
facet normal -0.201307550073 -0.434824198484 0.877726137638
  outer loop
    vertex 6.05500030518 1.74999904633 1.25
    vertex 6.0549993515 1.31249928474 0.81652623415
    vertex 6.99999952316 1.31249928474 1.25
  endloop
endfacet
facet normal -0.201307550073 -0.434824198484 0.877726137638
  outer loop
    vertex 6.05500030518 1.74999904633 1.25
    vertex 6.99999952316 1.31249928474 1.25
    vertex 7.0 1.74999904633 1.25
  endloop
endfacet
facet normal -0.416931927204 1.13605005936e-06 0.908937692642
  outer loop
    vertex 6.0549993515 1.31249928474 0.81652623415
    vertex 6.05499839783 0.874999582767 0.81652623415
    vertex 6.99999809265 0.874999463558 1.25
  endloop
endfacet
facet normal -0.416931927204 1.13605005936e-06 0.908937692642
  outer loop
    vertex 6.0549993515 1.31249928474 0.81652623415
    vertex 6.99999809265 0.874999463558 1.25
    vertex 6.99999952316 1.31249928474 1.25
  endloop
endfacet
facet normal -8.87864430865e-08 -0.703830718994 0.710367739201
  outer loop
    vertex 5.11000061035 1.74999916553 1.25
    vertex 5.10999965668 1.31249940395 0.81652623415
    vertex 6.0549993515 1.31249928474 0.81652623415
  endloop
endfacet
facet normal -8.87864430865e-08 -0.703830718994 0.710367739201
  outer loop
    vertex 5.11000061035 1.74999916553 1.25
    vertex 6.0549993515 1.31249928474 0.81652623415
    vertex 6.05500030518 1.74999904633 1.25
  endloop
endfacet
facet normal 0.0 0.0 1.0
  outer loop
    vertex 5.10999965668 1.31249940395 0.81652623415
    vertex 5.10999917984 0.874999642372 0.81652623415
    vertex 6.05499839783 0.874999582767 0.81652623415
  endloop
endfacet
facet normal 0.0 0.0 1.0
  outer loop
    vertex 5.10999965668 1.31249940395 0.81652623415
    vertex 6.05499839783 0.874999582767 0.81652623415
    vertex 6.0549993515 1.31249928474 0.81652623415
  endloop
endfacet
facet normal -0.0 0.0 -1.0
  outer loop
    vertex 2.45577549934 0.875000178814 -1.49011540884e-08
    vertex 2.45577597618 1.31249988079 -1.49011540884e-08
    vertex 3.50000047684 1.31249988079 -1.49011540884e-08
  endloop
endfacet
facet normal -0.0 0.0 -1.0
  outer loop
    vertex 2.45577549934 0.875000178814 -1.49011540884e-08
    vertex 3.50000047684 1.31249988079 -1.49011540884e-08
    vertex 3.50000023842 0.875000119209 -1.49011540884e-08
  endloop
endfacet
facet normal -0.0 0.0 -1.0
  outer loop
    vertex 2.45577597618 1.31249988079 -1.49011540884e-08
    vertex 2.4557762146 1.74999964237 -1.49011540884e-08
    vertex 3.50000071526 1.74999964237 -1.49011540884e-08
  endloop
endfacet
facet normal -0.0 0.0 -1.0
  outer loop
    vertex 2.45577597618 1.31249988079 -1.49011540884e-08
    vertex 3.50000071526 1.74999964237 -1.49011540884e-08
    vertex 3.50000047684 1.31249988079 -1.49011540884e-08
  endloop
endfacet
facet normal -0.0 0.0 -1.0
  outer loop
    vertex 1.71500098705 0.875000178814 -1.49011540884e-08
    vertex 1.71500122547 1.3125 -1.49011540884e-08
    vertex 2.45577597618 1.31249988079 -1.49011540884e-08
  endloop
endfacet
facet normal -0.0 0.0 -1.0
  outer loop
    vertex 1.71500098705 0.875000178814 -1.49011540884e-08
    vertex 2.45577597618 1.31249988079 -1.49011540884e-08
    vertex 2.45577549934 0.875000178814 -1.49011540884e-08
  endloop
endfacet
facet normal -0.0 0.0 -1.0
  outer loop
    vertex 1.71500122547 1.3125 -1.49011540884e-08
    vertex 1.7150015831 1.74999976158 -1.49011540884e-08
    vertex 2.4557762146 1.74999964237 -1.49011540884e-08
  endloop
endfacet
facet normal -0.0 0.0 -1.0
  outer loop
    vertex 1.71500122547 1.3125 -1.49011540884e-08
    vertex 2.4557762146 1.74999964237 -1.49011540884e-08
    vertex 2.45577597618 1.31249988079 -1.49011540884e-08
  endloop
endfacet
facet normal 0.0 0.0 1.0
  outer loop
    vertex 2.4557762146 1.74999940395 0.298218637705
    vertex 2.45577549934 1.31249964237 0.298218637705
    vertex 3.50000023842 1.31249952316 0.298218637705
  endloop
endfacet
facet normal 0.0 0.0 1.0
  outer loop
    vertex 2.4557762146 1.74999940395 0.298218637705
    vertex 3.50000023842 1.31249952316 0.298218637705
    vertex 3.50000095367 1.74999928474 0.298218637705
  endloop
endfacet
facet normal 0.0 0.0 1.0
  outer loop
    vertex 2.45577549934 1.31249964237 0.298218637705
    vertex 2.45577502251 0.874999880791 0.298218637705
    vertex 3.49999952316 0.874999821186 0.298218637705
  endloop
endfacet
facet normal 0.0 0.0 1.0
  outer loop
    vertex 2.45577549934 1.31249964237 0.298218637705
    vertex 3.49999952316 0.874999821186 0.298218637705
    vertex 3.50000023842 1.31249952316 0.298218637705
  endloop
endfacet
facet normal 0.0 0.0 1.0
  outer loop
    vertex 1.71500134468 1.74999940395 0.298218637705
    vertex 1.71500074863 1.31249964237 0.298218637705
    vertex 2.45577549934 1.31249964237 0.298218637705
  endloop
endfacet
facet normal 0.0 0.0 1.0
  outer loop
    vertex 1.71500134468 1.74999940395 0.298218637705
    vertex 2.45577549934 1.31249964237 0.298218637705
    vertex 2.4557762146 1.74999940395 0.298218637705
  endloop
endfacet
facet normal 0.0 0.0 1.0
  outer loop
    vertex 1.71500074863 1.31249964237 0.298218637705
    vertex 1.71500039101 0.875 0.298218637705
    vertex 2.45577502251 0.874999880791 0.298218637705
  endloop
endfacet
facet normal 0.0 0.0 1.0
  outer loop
    vertex 1.71500074863 1.31249964237 0.298218637705
    vertex 2.45577502251 0.874999880791 0.298218637705
    vertex 2.45577549934 1.31249964237 0.298218637705
  endloop
endfacet
facet normal -0.0 0.0 -1.0
  outer loop
    vertex 0.857501506805 0.875000238419 -1.49011540884e-08
    vertex 0.857501924038 1.3125 -1.49011540884e-08
    vertex 1.71500122547 1.3125 -1.49011540884e-08
  endloop
endfacet
facet normal -0.0 0.0 -1.0
  outer loop
    vertex 0.857501506805 0.875000238419 -1.49011540884e-08
    vertex 1.71500122547 1.3125 -1.49011540884e-08
    vertex 1.71500098705 0.875000178814 -1.49011540884e-08
  endloop
endfacet
facet normal -0.0 0.0 -1.0
  outer loop
    vertex 0.857501924038 1.3125 -1.49011540884e-08
    vertex 0.857502162457 1.74999988079 -1.49011540884e-08
    vertex 1.7150015831 1.74999976158 -1.49011540884e-08
  endloop
endfacet
facet normal -0.0 0.0 -1.0
  outer loop
    vertex 0.857501924038 1.3125 -1.49011540884e-08
    vertex 1.7150015831 1.74999976158 -1.49011540884e-08
    vertex 1.71500122547 1.3125 -1.49011540884e-08
  endloop
endfacet
facet normal -0.0173487681895 1.26262929001e-08 -0.999849498272
  outer loop
    vertex 1.63912761764e-06 0.875000238419 0.0148787926883
    vertex 1.63912761764e-06 1.01078593731 0.0148787926883
    vertex 0.857501924038 1.3125 -1.49011540884e-08
  endloop
endfacet
facet normal -0.0173487681895 1.26262929001e-08 -0.999849498272
  outer loop
    vertex 1.63912761764e-06 0.875000238419 0.0148787926883
    vertex 0.857501924038 1.3125 -1.49011540884e-08
    vertex 0.857501506805 0.875000238419 -1.49011540884e-08
  endloop
endfacet
facet normal -0.0173487681895 1.3528161702e-08 -0.999849498272
  outer loop
    vertex 1.63912761764e-06 1.01078593731 0.0148787926883
    vertex 1.84774376066e-06 1.14657175541 0.0148787926883
    vertex 0.857502162457 1.74999988079 -1.49011540884e-08
  endloop
endfacet
facet normal -0.0173487681895 1.3528161702e-08 -0.999849498272
  outer loop
    vertex 1.63912761764e-06 1.01078593731 0.0148787926883
    vertex 0.857502162457 1.74999988079 -1.49011540884e-08
    vertex 0.857501924038 1.3125 -1.49011540884e-08
  endloop
endfacet
facet normal 0.685651838779 -9.34316744861e-07 0.727929651737
  outer loop
    vertex 1.20862066746 1.39971530437 0.77518850565
    vertex 1.20862030983 1.13735759258 0.77518850565
    vertex 1.71500074863 1.31249964237 0.298218637705
  endloop
endfacet
facet normal 0.685651838779 -9.34316744861e-07 0.727929651737
  outer loop
    vertex 1.20862066746 1.39971530437 0.77518850565
    vertex 1.71500074863 1.31249964237 0.298218637705
    vertex 1.71500134468 1.74999940395 0.298218637705
  endloop
endfacet
facet normal 0.685651659966 -8.17527222807e-07 0.727929770947
  outer loop
    vertex 1.20862030983 1.13735759258 0.77518850565
    vertex 1.20861983299 0.875 0.77518850565
    vertex 1.71500039101 0.875 0.298218637705
  endloop
endfacet
facet normal 0.685651659966 -8.17527222807e-07 0.727929770947
  outer loop
    vertex 1.20862030983 1.13735759258 0.77518850565
    vertex 1.71500039101 0.875 0.298218637705
    vertex 1.71500074863 1.31249964237 0.298218637705
  endloop
endfacet
facet normal -0.294423431158 2.64462585164e-07 0.955675065517
  outer loop
    vertex 1.43051147461e-06 1.1465716362 0.402838379145
    vertex 1.43051147461e-06 1.01078593731 0.402838379145
    vertex 1.20862030983 1.13735759258 0.77518850565
  endloop
endfacet
facet normal -0.294423431158 2.64462585164e-07 0.955675065517
  outer loop
    vertex 1.43051147461e-06 1.1465716362 0.402838379145
    vertex 1.20862030983 1.13735759258 0.77518850565
    vertex 1.20862066746 1.39971530437 0.77518850565
  endloop
endfacet
facet normal -0.294423520565 3.52616893906e-07 0.955675065517
  outer loop
    vertex 1.43051147461e-06 1.01078593731 0.402838379145
    vertex 1.43051147461e-06 0.875000178814 0.402838379145
    vertex 1.20861983299 0.875 0.77518850565
  endloop
endfacet
facet normal -0.294423520565 3.52616893906e-07 0.955675065517
  outer loop
    vertex 1.43051147461e-06 1.01078593731 0.402838379145
    vertex 1.20861983299 0.875 0.77518850565
    vertex 1.20862030983 1.13735759258 0.77518850565
  endloop
endfacet
facet normal -0.0 0.0 -1.0
  outer loop
    vertex 4.30499982834 0.875000059605 -1.49011540884e-08
    vertex 4.30499982834 1.31249988079 -1.49011540884e-08
    vertex 5.10999965668 1.31249988079 -1.49011540884e-08
  endloop
endfacet
facet normal -0.0 0.0 -1.0
  outer loop
    vertex 4.30499982834 0.875000059605 -1.49011540884e-08
    vertex 5.10999965668 1.31249988079 -1.49011540884e-08
    vertex 5.10999917984 0.875000059605 -1.49011540884e-08
  endloop
endfacet
facet normal -0.0 0.0 -1.0
  outer loop
    vertex 4.30499982834 1.31249988079 -1.49011540884e-08
    vertex 4.30500030518 1.74999964237 -1.49011540884e-08
    vertex 5.10999965668 1.74999964237 -1.49011540884e-08
  endloop
endfacet
facet normal -0.0 0.0 -1.0
  outer loop
    vertex 4.30499982834 1.31249988079 -1.49011540884e-08
    vertex 5.10999965668 1.74999964237 -1.49011540884e-08
    vertex 5.10999965668 1.31249988079 -1.49011540884e-08
  endloop
endfacet
facet normal -0.0 0.0 -1.0
  outer loop
    vertex 3.50000023842 0.875000119209 -1.49011540884e-08
    vertex 3.50000047684 1.31249988079 -1.49011540884e-08
    vertex 4.30499982834 1.31249988079 -1.49011540884e-08
  endloop
endfacet
facet normal -0.0 0.0 -1.0
  outer loop
    vertex 3.50000023842 0.875000119209 -1.49011540884e-08
    vertex 4.30499982834 1.31249988079 -1.49011540884e-08
    vertex 4.30499982834 0.875000059605 -1.49011540884e-08
  endloop
endfacet
facet normal -0.0 0.0 -1.0
  outer loop
    vertex 3.50000047684 1.31249988079 -1.49011540884e-08
    vertex 3.50000071526 1.74999964237 -1.49011540884e-08
    vertex 4.30500030518 1.74999964237 -1.49011540884e-08
  endloop
endfacet
facet normal -0.0 0.0 -1.0
  outer loop
    vertex 3.50000047684 1.31249988079 -1.49011540884e-08
    vertex 4.30500030518 1.74999964237 -1.49011540884e-08
    vertex 4.30499982834 1.31249988079 -1.49011540884e-08
  endloop
endfacet
facet normal -0.633246898651 -0.343564659357 0.693513989449
  outer loop
    vertex 4.30500078201 1.74999928474 0.298218637705
    vertex 4.30499982834 1.31249952316 0.298218637705
    vertex 5.10999965668 1.31249940395 0.81652623415
  endloop
endfacet
facet normal -0.633246898651 -0.343564659357 0.693513989449
  outer loop
    vertex 4.30500078201 1.74999928474 0.298218637705
    vertex 5.10999965668 1.31249940395 0.81652623415
    vertex 5.11000061035 1.74999916553 1.25
  endloop
endfacet
facet normal -0.541354417801 5.90029742398e-07 0.840794503689
  outer loop
    vertex 4.30499982834 1.31249952316 0.298218637705
    vertex 4.3049993515 0.874999701977 0.298218637705
    vertex 5.10999917984 0.874999642372 0.81652623415
  endloop
endfacet
facet normal -0.541354417801 5.90029742398e-07 0.840794503689
  outer loop
    vertex 4.30499982834 1.31249952316 0.298218637705
    vertex 5.10999917984 0.874999642372 0.81652623415
    vertex 5.10999965668 1.31249940395 0.81652623415
  endloop
endfacet
facet normal 0.0 0.0 1.0
  outer loop
    vertex 3.50000095367 1.74999928474 0.298218637705
    vertex 3.50000023842 1.31249952316 0.298218637705
    vertex 4.30499982834 1.31249952316 0.298218637705
  endloop
endfacet
facet normal 0.0 0.0 1.0
  outer loop
    vertex 3.50000095367 1.74999928474 0.298218637705
    vertex 4.30499982834 1.31249952316 0.298218637705
    vertex 4.30500078201 1.74999928474 0.298218637705
  endloop
endfacet
facet normal 0.0 0.0 1.0
  outer loop
    vertex 3.50000023842 1.31249952316 0.298218637705
    vertex 3.49999952316 0.874999821186 0.298218637705
    vertex 4.3049993515 0.874999701977 0.298218637705
  endloop
endfacet
facet normal 0.0 0.0 1.0
  outer loop
    vertex 3.50000023842 1.31249952316 0.298218637705
    vertex 4.3049993515 0.874999701977 0.298218637705
    vertex 4.30499982834 1.31249952316 0.298218637705
  endloop
endfacet
facet normal -0.0 0.0 -1.0
  outer loop
    vertex 6.05499887466 5.36441802979e-07 -1.49011540884e-08
    vertex 6.05499887466 0.437500298023 -1.49011540884e-08
    vertex 6.99999856949 0.437500208616 -1.49011540884e-08
  endloop
endfacet
facet normal -0.0 0.0 -1.0
  outer loop
    vertex 6.05499887466 5.36441802979e-07 -1.49011540884e-08
    vertex 6.99999856949 0.437500208616 -1.49011540884e-08
    vertex 6.99999856949 4.32133731465e-07 -1.49011540884e-08
  endloop
endfacet
facet normal -0.0 0.0 -1.0
  outer loop
    vertex 6.05499887466 0.437500298023 -1.49011540884e-08
    vertex 6.05499887466 0.875 -1.49011540884e-08
    vertex 6.99999856949 0.875 -1.49011540884e-08
  endloop
endfacet
facet normal -0.0 0.0 -1.0
  outer loop
    vertex 6.05499887466 0.437500298023 -1.49011540884e-08
    vertex 6.99999856949 0.875 -1.49011540884e-08
    vertex 6.99999856949 0.437500208616 -1.49011540884e-08
  endloop
endfacet
facet normal -0.0 0.0 -1.0
  outer loop
    vertex 5.10999917984 5.36441802979e-07 -1.49011540884e-08
    vertex 5.10999917984 0.437500298023 -1.49011540884e-08
    vertex 6.05499887466 0.437500298023 -1.49011540884e-08
  endloop
endfacet
facet normal -0.0 0.0 -1.0
  outer loop
    vertex 5.10999917984 5.36441802979e-07 -1.49011540884e-08
    vertex 6.05499887466 0.437500298023 -1.49011540884e-08
    vertex 6.05499887466 5.36441802979e-07 -1.49011540884e-08
  endloop
endfacet
facet normal -0.0 0.0 -1.0
  outer loop
    vertex 5.10999917984 0.437500298023 -1.49011540884e-08
    vertex 5.10999917984 0.875000059605 -1.49011540884e-08
    vertex 6.05499887466 0.875 -1.49011540884e-08
  endloop
endfacet
facet normal -0.0 0.0 -1.0
  outer loop
    vertex 5.10999917984 0.437500298023 -1.49011540884e-08
    vertex 6.05499887466 0.875 -1.49011540884e-08
    vertex 6.05499887466 0.437500298023 -1.49011540884e-08
  endloop
endfacet
facet normal -0.41693213582 6.81630240251e-07 0.908937633038
  outer loop
    vertex 6.05499839783 0.874999582767 0.81652623415
    vertex 6.05499792099 0.437499791384 0.81652623415
    vertex 6.99999713898 0.437499701977 1.25
  endloop
endfacet
facet normal -0.41693213582 6.81630240251e-07 0.908937633038
  outer loop
    vertex 6.05499839783 0.874999582767 0.81652623415
    vertex 6.99999713898 0.437499701977 1.25
    vertex 6.99999809265 0.874999463558 1.25
  endloop
endfacet
facet normal -0.201307535172 0.434824883938 0.877725839615
  outer loop
    vertex 6.05499792099 0.437499791384 0.81652623415
    vertex 6.05499649048 1.49014809381e-08 1.25
    vertex 6.9999961853 -8.940658347e-08 1.25
  endloop
endfacet
facet normal -0.201307535172 0.434824883938 0.877725839615
  outer loop
    vertex 6.05499792099 0.437499791384 0.81652623415
    vertex 6.9999961853 -8.940658347e-08 1.25
    vertex 6.99999713898 0.437499701977 1.25
  endloop
endfacet
facet normal 0.0 0.0 1.0
  outer loop
    vertex 5.10999917984 0.874999642372 0.81652623415
    vertex 5.10999822617 0.437499910593 0.81652623415
    vertex 6.05499792099 0.437499791384 0.81652623415
  endloop
endfacet
facet normal 0.0 0.0 1.0
  outer loop
    vertex 5.10999917984 0.874999642372 0.81652623415
    vertex 6.05499792099 0.437499791384 0.81652623415
    vertex 6.05499839783 0.874999582767 0.81652623415
  endloop
endfacet
facet normal 8.32372819559e-08 0.703830718994 0.710367739201
  outer loop
    vertex 5.10999822617 0.437499910593 0.81652623415
    vertex 5.10999727249 1.19209545346e-07 1.25
    vertex 6.05499649048 1.49014809381e-08 1.25
  endloop
endfacet
facet normal 8.32372819559e-08 0.703830718994 0.710367739201
  outer loop
    vertex 5.10999822617 0.437499910593 0.81652623415
    vertex 6.05499649048 1.49014809381e-08 1.25
    vertex 6.05499792099 0.437499791384 0.81652623415
  endloop
endfacet
facet normal -0.0 0.0 -1.0
  outer loop
    vertex 2.45577502251 5.36441802979e-07 -1.49011540884e-08
    vertex 2.45577526093 0.437500357628 -1.49011540884e-08
    vertex 3.5 0.437500327826 -1.49011540884e-08
  endloop
endfacet
facet normal -0.0 0.0 -1.0
  outer loop
    vertex 2.45577502251 5.36441802979e-07 -1.49011540884e-08
    vertex 3.5 0.437500327826 -1.49011540884e-08
    vertex 3.49999976158 5.36441802979e-07 -1.49011540884e-08
  endloop
endfacet
facet normal -0.0 0.0 -1.0
  outer loop
    vertex 2.45577526093 0.437500357628 -1.49011540884e-08
    vertex 2.45577549934 0.875000178814 -1.49011540884e-08
    vertex 3.50000023842 0.875000119209 -1.49011540884e-08
  endloop
endfacet
facet normal -0.0 0.0 -1.0
  outer loop
    vertex 2.45577526093 0.437500357628 -1.49011540884e-08
    vertex 3.50000023842 0.875000119209 -1.49011540884e-08
    vertex 3.5 0.437500327826 -1.49011540884e-08
  endloop
endfacet
facet normal -0.0 0.0 -1.0
  outer loop
    vertex 1.71500039101 5.88595810314e-07 -1.49011540884e-08
    vertex 1.71500074863 0.43750038743 -1.49011540884e-08
    vertex 2.45577526093 0.437500357628 -1.49011540884e-08
  endloop
endfacet
facet normal -0.0 0.0 -1.0
  outer loop
    vertex 1.71500039101 5.88595810314e-07 -1.49011540884e-08
    vertex 2.45577526093 0.437500357628 -1.49011540884e-08
    vertex 2.45577502251 5.36441802979e-07 -1.49011540884e-08
  endloop
endfacet
facet normal -0.0 0.0 -1.0
  outer loop
    vertex 1.71500074863 0.43750038743 -1.49011540884e-08
    vertex 1.71500098705 0.875000178814 -1.49011540884e-08
    vertex 2.45577549934 0.875000178814 -1.49011540884e-08
  endloop
endfacet
facet normal -0.0 0.0 -1.0
  outer loop
    vertex 1.71500074863 0.43750038743 -1.49011540884e-08
    vertex 2.45577549934 0.875000178814 -1.49011540884e-08
    vertex 2.45577526093 0.437500357628 -1.49011540884e-08
  endloop
endfacet
facet normal 0.0 0.0 1.0
  outer loop
    vertex 2.45577502251 0.874999880791 0.298218637705
    vertex 2.45577454567 0.437500208616 0.298218637705
    vertex 3.49999880791 0.437500178814 0.298218637705
  endloop
endfacet
facet normal 0.0 0.0 1.0
  outer loop
    vertex 2.45577502251 0.874999880791 0.298218637705
    vertex 3.49999880791 0.437500178814 0.298218637705
    vertex 3.49999952316 0.874999821186 0.298218637705
  endloop
endfacet
facet normal 0.0 0.0 1.0
  outer loop
    vertex 2.45577454567 0.437500208616 0.298218637705
    vertex 2.45577383041 5.36441802979e-07 0.298218637705
    vertex 3.49999833107 4.32133731465e-07 0.298218637705
  endloop
endfacet
facet normal 0.0 0.0 1.0
  outer loop
    vertex 2.45577454567 0.437500208616 0.298218637705
    vertex 3.49999833107 4.32133731465e-07 0.298218637705
    vertex 3.49999880791 0.437500178814 0.298218637705
  endloop
endfacet
facet normal 0.0 0.0 1.0
  outer loop
    vertex 1.71500039101 0.875 0.298218637705
    vertex 1.71499991417 0.437500298023 0.298218637705
    vertex 2.45577454567 0.437500208616 0.298218637705
  endloop
endfacet
facet normal 0.0 0.0 1.0
  outer loop
    vertex 1.71500039101 0.875 0.298218637705
    vertex 2.45577454567 0.437500208616 0.298218637705
    vertex 2.45577502251 0.874999880791 0.298218637705
  endloop
endfacet
facet normal 0.0 0.0 1.0
  outer loop
    vertex 1.71499991417 0.437500298023 0.298218637705
    vertex 1.71499931812 6.40749874492e-07 0.298218637705
    vertex 2.45577383041 5.36441802979e-07 0.298218637705
  endloop
endfacet
facet normal 0.0 0.0 1.0
  outer loop
    vertex 1.71499991417 0.437500298023 0.298218637705
    vertex 2.45577383041 5.36441802979e-07 0.298218637705
    vertex 2.45577454567 0.437500208616 0.298218637705
  endloop
endfacet
facet normal -0.0 0.0 -1.0
  outer loop
    vertex 0.85750067234 6.40749874492e-07 -1.49011540884e-08
    vertex 0.857501089573 0.437500417233 -1.49011540884e-08
    vertex 1.71500074863 0.43750038743 -1.49011540884e-08
  endloop
endfacet
facet normal -0.0 0.0 -1.0
  outer loop
    vertex 0.85750067234 6.40749874492e-07 -1.49011540884e-08
    vertex 1.71500074863 0.43750038743 -1.49011540884e-08
    vertex 1.71500039101 5.88595810314e-07 -1.49011540884e-08
  endloop
endfacet
facet normal -0.0 0.0 -1.0
  outer loop
    vertex 0.857501089573 0.437500417233 -1.49011540884e-08
    vertex 0.857501506805 0.875000238419 -1.49011540884e-08
    vertex 1.71500098705 0.875000178814 -1.49011540884e-08
  endloop
endfacet
facet normal -0.0 0.0 -1.0
  outer loop
    vertex 0.857501089573 0.437500417233 -1.49011540884e-08
    vertex 1.71500098705 0.875000178814 -1.49011540884e-08
    vertex 1.71500074863 0.43750038743 -1.49011540884e-08
  endloop
endfacet
facet normal -0.0173487719148 1.26262937883e-08 -0.999849498272
  outer loop
    vertex 1.43051147461e-06 0.603428661823 0.0148787926883
    vertex 1.43051147461e-06 0.739214420319 0.0148787926883
    vertex 0.857501089573 0.437500417233 -1.49011540884e-08
  endloop
endfacet
facet normal -0.0173487719148 1.26262937883e-08 -0.999849498272
  outer loop
    vertex 1.43051147461e-06 0.603428661823 0.0148787926883
    vertex 0.857501089573 0.437500417233 -1.49011540884e-08
    vertex 0.85750067234 6.40749874492e-07 -1.49011540884e-08
  endloop
endfacet
facet normal -0.0173487681895 1.89394313566e-08 -0.999849498272
  outer loop
    vertex 1.43051147461e-06 0.739214420319 0.0148787926883
    vertex 1.63912761764e-06 0.875000238419 0.0148787926883
    vertex 0.857501506805 0.875000238419 -1.49011540884e-08
  endloop
endfacet
facet normal -0.0173487681895 1.89394313566e-08 -0.999849498272
  outer loop
    vertex 1.43051147461e-06 0.739214420319 0.0148787926883
    vertex 0.857501506805 0.875000238419 -1.49011540884e-08
    vertex 0.857501089573 0.437500417233 -1.49011540884e-08
  endloop
endfacet
facet normal 0.685651540756 -8.17526881747e-07 0.72792994976
  outer loop
    vertex 1.20861983299 0.875 0.77518850565
    vertex 1.20861947536 0.612642347813 0.77518850565
    vertex 1.71499991417 0.437500298023 0.298218637705
  endloop
endfacet
facet normal 0.685651540756 -8.17526881747e-07 0.72792994976
  outer loop
    vertex 1.20861983299 0.875 0.77518850565
    vertex 1.71499991417 0.437500298023 0.298218637705
    vertex 1.71500039101 0.875 0.298218637705
  endloop
endfacet
facet normal 0.685651421547 -1.05110586901e-06 0.72793006897
  outer loop
    vertex 1.20861947536 0.612642347813 0.77518850565
    vertex 1.20861899853 0.350284636021 0.77518850565
    vertex 1.71499931812 6.40749874492e-07 0.298218637705
  endloop
endfacet
facet normal 0.685651421547 -1.05110586901e-06 0.72793006897
  outer loop
    vertex 1.20861947536 0.612642347813 0.77518850565
    vertex 1.71499931812 6.40749874492e-07 0.298218637705
    vertex 1.71499991417 0.437500298023 0.298218637705
  endloop
endfacet
facet normal -0.294423490763 5.73002239435e-07 0.955675065517
  outer loop
    vertex 1.43051147461e-06 0.875000178814 0.402838379145
    vertex 1.01327918856e-06 0.739214420319 0.402838379145
    vertex 1.20861947536 0.612642347813 0.77518850565
  endloop
endfacet
facet normal -0.294423490763 5.73002239435e-07 0.955675065517
  outer loop
    vertex 1.43051147461e-06 0.875000178814 0.402838379145
    vertex 1.20861947536 0.612642347813 0.77518850565
    vertex 1.20861983299 0.875 0.77518850565
  endloop
endfacet
facet normal -0.294423550367 3.52616808641e-07 0.955675065517
  outer loop
    vertex 1.01327918856e-06 0.739214420319 0.402838379145
    vertex 1.01327918856e-06 0.603428661823 0.402838379145
    vertex 1.20861899853 0.350284636021 0.77518850565
  endloop
endfacet
facet normal -0.294423550367 3.52616808641e-07 0.955675065517
  outer loop
    vertex 1.01327918856e-06 0.739214420319 0.402838379145
    vertex 1.20861899853 0.350284636021 0.77518850565
    vertex 1.20861947536 0.612642347813 0.77518850565
  endloop
endfacet
facet normal -0.0 0.0 -1.0
  outer loop
    vertex 4.3049993515 5.36441802979e-07 -1.49011540884e-08
    vertex 4.30499982834 0.437500327826 -1.49011540884e-08
    vertex 5.10999917984 0.437500298023 -1.49011540884e-08
  endloop
endfacet
facet normal -0.0 0.0 -1.0
  outer loop
    vertex 4.3049993515 5.36441802979e-07 -1.49011540884e-08
    vertex 5.10999917984 0.437500298023 -1.49011540884e-08
    vertex 5.10999917984 5.36441802979e-07 -1.49011540884e-08
  endloop
endfacet
facet normal -0.0 0.0 -1.0
  outer loop
    vertex 4.30499982834 0.437500327826 -1.49011540884e-08
    vertex 4.30499982834 0.875000059605 -1.49011540884e-08
    vertex 5.10999917984 0.875000059605 -1.49011540884e-08
  endloop
endfacet
facet normal -0.0 0.0 -1.0
  outer loop
    vertex 4.30499982834 0.437500327826 -1.49011540884e-08
    vertex 5.10999917984 0.875000059605 -1.49011540884e-08
    vertex 5.10999917984 0.437500298023 -1.49011540884e-08
  endloop
endfacet
facet normal -0.0 0.0 -1.0
  outer loop
    vertex 3.49999976158 5.36441802979e-07 -1.49011540884e-08
    vertex 3.5 0.437500327826 -1.49011540884e-08
    vertex 4.30499982834 0.437500327826 -1.49011540884e-08
  endloop
endfacet
facet normal -0.0 0.0 -1.0
  outer loop
    vertex 3.49999976158 5.36441802979e-07 -1.49011540884e-08
    vertex 4.30499982834 0.437500327826 -1.49011540884e-08
    vertex 4.3049993515 5.36441802979e-07 -1.49011540884e-08
  endloop
endfacet
facet normal -0.0 0.0 -1.0
  outer loop
    vertex 3.5 0.437500327826 -1.49011540884e-08
    vertex 3.50000023842 0.875000119209 -1.49011540884e-08
    vertex 4.30499982834 0.875000059605 -1.49011540884e-08
  endloop
endfacet
facet normal -0.0 0.0 -1.0
  outer loop
    vertex 3.5 0.437500327826 -1.49011540884e-08
    vertex 4.30499982834 0.875000059605 -1.49011540884e-08
    vertex 4.30499982834 0.437500327826 -1.49011540884e-08
  endloop
endfacet
facet normal -0.541354358196 1.18005971217e-06 0.840794563293
  outer loop
    vertex 4.3049993515 0.874999701977 0.298218637705
    vertex 4.30499839783 0.437500059605 0.298218637705
    vertex 5.10999822617 0.437499910593 0.81652623415
  endloop
endfacet
facet normal -0.541354358196 1.18005971217e-06 0.840794563293
  outer loop
    vertex 4.3049993515 0.874999701977 0.298218637705
    vertex 5.10999822617 0.437499910593 0.81652623415
    vertex 5.10999917984 0.874999642372 0.81652623415
  endloop
endfacet
facet normal -0.633246421814 0.343566775322 0.693513393402
  outer loop
    vertex 4.30499839783 0.437500059605 0.298218637705
    vertex 4.30499792099 3.27825659951e-07 0.298218637705
    vertex 5.10999727249 1.19209545346e-07 1.25
  endloop
endfacet
facet normal -0.633246421814 0.343566775322 0.693513393402
  outer loop
    vertex 4.30499839783 0.437500059605 0.298218637705
    vertex 5.10999727249 1.19209545346e-07 1.25
    vertex 5.10999822617 0.437499910593 0.81652623415
  endloop
endfacet
facet normal 0.0 0.0 1.0
  outer loop
    vertex 3.49999952316 0.874999821186 0.298218637705
    vertex 3.49999880791 0.437500178814 0.298218637705
    vertex 4.30499839783 0.437500059605 0.298218637705
  endloop
endfacet
facet normal 0.0 0.0 1.0
  outer loop
    vertex 3.49999952316 0.874999821186 0.298218637705
    vertex 4.30499839783 0.437500059605 0.298218637705
    vertex 4.3049993515 0.874999701977 0.298218637705
  endloop
endfacet
facet normal 0.0 0.0 1.0
  outer loop
    vertex 3.49999880791 0.437500178814 0.298218637705
    vertex 3.49999833107 4.32133731465e-07 0.298218637705
    vertex 4.30499792099 3.27825659951e-07 0.298218637705
  endloop
endfacet
facet normal 0.0 0.0 1.0
  outer loop
    vertex 3.49999880791 0.437500178814 0.298218637705
    vertex 4.30499792099 3.27825659951e-07 0.298218637705
    vertex 4.30499839783 0.437500059605 0.298218637705
  endloop
endfacet
facet normal -1.10378934437e-07 -1.0 -3.33786118745e-07
  outer loop
    vertex 6.05499649048 1.49014809381e-08 1.25
    vertex 6.05499744415 1.19209545346e-07 0.9375
    vertex 6.99999713898 1.49014809381e-08 0.9375
  endloop
endfacet
facet normal -1.10378934437e-07 -1.0 -3.33786118745e-07
  outer loop
    vertex 6.05499649048 1.49014809381e-08 1.25
    vertex 6.99999713898 1.49014809381e-08 0.9375
    vertex 6.9999961853 -8.940658347e-08 1.25
  endloop
endfacet
facet normal -1.10378969964e-07 -1.0 -3.33785891371e-07
  outer loop
    vertex 6.05499744415 1.19209545346e-07 0.9375
    vertex 6.05499792099 2.2351761686e-07 0.625
    vertex 6.99999713898 1.19209545346e-07 0.625
  endloop
endfacet
facet normal -1.10378969964e-07 -1.0 -3.33785891371e-07
  outer loop
    vertex 6.05499744415 1.19209545346e-07 0.9375
    vertex 6.99999713898 1.19209545346e-07 0.625
    vertex 6.99999713898 1.49014809381e-08 0.9375
  endloop
endfacet
facet normal -1.10378969964e-07 -1.0 -3.33786061901e-07
  outer loop
    vertex 5.10999727249 1.19209545346e-07 1.25
    vertex 5.10999774933 2.2351761686e-07 0.9375
    vertex 6.05499744415 1.19209545346e-07 0.9375
  endloop
endfacet
facet normal -1.10378969964e-07 -1.0 -3.33786061901e-07
  outer loop
    vertex 5.10999727249 1.19209545346e-07 1.25
    vertex 6.05499744415 1.19209545346e-07 0.9375
    vertex 6.05499649048 1.49014809381e-08 1.25
  endloop
endfacet
facet normal -1.10378934437e-07 -1.0 -3.33785976636e-07
  outer loop
    vertex 5.10999774933 2.2351761686e-07 0.9375
    vertex 5.10999822617 3.27825659951e-07 0.625
    vertex 6.05499792099 2.2351761686e-07 0.625
  endloop
endfacet
facet normal -1.10378934437e-07 -1.0 -3.33785976636e-07
  outer loop
    vertex 5.10999774933 2.2351761686e-07 0.9375
    vertex 6.05499792099 2.2351761686e-07 0.625
    vertex 6.05499744415 1.19209545346e-07 0.9375
  endloop
endfacet
facet normal 1.26147440938e-07 1.0 3.81469533295e-07
  outer loop
    vertex 6.05499982834 1.74999940395 0.625
    vertex 6.05500030518 1.74999928474 0.9375
    vertex 7.0 1.74999916553 0.9375
  endloop
endfacet
facet normal 1.26147440938e-07 1.0 3.81469533295e-07
  outer loop
    vertex 6.05499982834 1.74999940395 0.625
    vertex 7.0 1.74999916553 0.9375
    vertex 6.99999952316 1.74999928474 0.625
  endloop
endfacet
facet normal 6.30737204688e-08 1.0 5.72204612581e-07
  outer loop
    vertex 6.05500030518 1.74999928474 0.9375
    vertex 6.05500030518 1.74999904633 1.25
    vertex 7.0 1.74999904633 1.25
  endloop
endfacet
facet normal 6.30737204688e-08 1.0 5.72204612581e-07
  outer loop
    vertex 6.05500030518 1.74999928474 0.9375
    vertex 7.0 1.74999904633 1.25
    vertex 7.0 1.74999916553 0.9375
  endloop
endfacet
facet normal 0.0 1.0 3.81469732247e-07
  outer loop
    vertex 5.11000013351 1.74999940395 0.625
    vertex 5.11000061035 1.74999928474 0.9375
    vertex 6.05500030518 1.74999928474 0.9375
  endloop
endfacet
facet normal 0.0 1.0 3.81469732247e-07
  outer loop
    vertex 5.11000013351 1.74999940395 0.625
    vertex 6.05500030518 1.74999928474 0.9375
    vertex 6.05499982834 1.74999940395 0.625
  endloop
endfacet
facet normal 6.30737204688e-08 1.0 5.72204612581e-07
  outer loop
    vertex 5.11000061035 1.74999928474 0.9375
    vertex 5.11000061035 1.74999916553 1.25
    vertex 6.05500030518 1.74999904633 1.25
  endloop
endfacet
facet normal 6.30737204688e-08 1.0 5.72204612581e-07
  outer loop
    vertex 5.11000061035 1.74999928474 0.9375
    vertex 6.05500030518 1.74999904633 1.25
    vertex 6.05500030518 1.74999928474 0.9375
  endloop
endfacet
facet normal -1.49835713614e-07 -1.0 -1.08676056243e-06
  outer loop
    vertex 2.45577383041 5.36441802979e-07 0.298218637705
    vertex 2.45577430725 6.40749874492e-07 0.250228226185
    vertex 3.49999856949 4.32133731465e-07 0.250228226185
  endloop
endfacet
facet normal -1.49835713614e-07 -1.0 -1.08676056243e-06
  outer loop
    vertex 2.45577383041 5.36441802979e-07 0.298218637705
    vertex 3.49999856949 4.32133731465e-07 0.250228226185
    vertex 3.49999833107 4.32133731465e-07 0.298218637705
  endloop
endfacet
facet normal -1.49835713614e-07 -1.0 -1.08676056243e-06
  outer loop
    vertex 2.45577430725 6.40749874492e-07 0.250228226185
    vertex 2.45577454567 6.40749874492e-07 0.202237814665
    vertex 3.49999904633 5.36441802979e-07 0.202237814665
  endloop
endfacet
facet normal -1.49835713614e-07 -1.0 -1.08676056243e-06
  outer loop
    vertex 2.45577430725 6.40749874492e-07 0.250228226185
    vertex 3.49999904633 5.36441802979e-07 0.202237814665
    vertex 3.49999856949 4.32133731465e-07 0.250228226185
  endloop
endfacet
facet normal -7.04047238287e-08 -1.0 -1.086759994e-06
  outer loop
    vertex 1.71499931812 6.40749874492e-07 0.298218637705
    vertex 1.71499955654 6.40749874492e-07 0.250228226185
    vertex 2.45577430725 6.40749874492e-07 0.250228226185
  endloop
endfacet
facet normal -7.04047238287e-08 -1.0 -1.086759994e-06
  outer loop
    vertex 1.71499931812 6.40749874492e-07 0.298218637705
    vertex 2.45577430725 6.40749874492e-07 0.250228226185
    vertex 2.45577383041 5.36441802979e-07 0.298218637705
  endloop
endfacet
facet normal -0.0 -1.0 0.0
  outer loop
    vertex 1.71499955654 6.40749874492e-07 0.250228226185
    vertex 1.71499991417 6.40749874492e-07 0.202237814665
    vertex 2.45577454567 6.40749874492e-07 0.202237814665
  endloop
endfacet
facet normal -0.0 -1.0 0.0
  outer loop
    vertex 1.71499955654 6.40749874492e-07 0.250228226185
    vertex 2.45577454567 6.40749874492e-07 0.202237814665
    vertex 2.45577430725 6.40749874492e-07 0.250228226185
  endloop
endfacet
facet normal 0.0 1.0 0.0
  outer loop
    vertex 2.4557762146 1.74999940395 0.202237814665
    vertex 2.4557762146 1.74999940395 0.250228226185
    vertex 3.50000095367 1.74999940395 0.250228226185
  endloop
endfacet
facet normal 0.0 1.0 0.0
  outer loop
    vertex 2.4557762146 1.74999940395 0.202237814665
    vertex 3.50000095367 1.74999940395 0.250228226185
    vertex 3.50000071526 1.74999940395 0.202237814665
  endloop
endfacet
facet normal 5.70802818345e-08 1.0 1.2420115354e-06
  outer loop
    vertex 2.4557762146 1.74999940395 0.250228226185
    vertex 2.4557762146 1.74999940395 0.298218637705
    vertex 3.50000095367 1.74999928474 0.298218637705
  endloop
endfacet
facet normal 5.70802818345e-08 1.0 1.2420115354e-06
  outer loop
    vertex 2.4557762146 1.74999940395 0.250228226185
    vertex 3.50000095367 1.74999928474 0.298218637705
    vertex 3.50000095367 1.74999940395 0.250228226185
  endloop
endfacet
facet normal 8.04625841511e-08 1.0 1.2420115354e-06
  outer loop
    vertex 1.7150015831 1.74999952316 0.202237814665
    vertex 1.7150015831 1.74999940395 0.250228226185
    vertex 2.4557762146 1.74999940395 0.250228226185
  endloop
endfacet
facet normal 8.04625841511e-08 1.0 1.2420115354e-06
  outer loop
    vertex 1.7150015831 1.74999952316 0.202237814665
    vertex 2.4557762146 1.74999940395 0.250228226185
    vertex 2.4557762146 1.74999940395 0.202237814665
  endloop
endfacet
facet normal 0.0 1.0 0.0
  outer loop
    vertex 1.7150015831 1.74999940395 0.250228226185
    vertex 1.71500134468 1.74999940395 0.298218637705
    vertex 2.4557762146 1.74999940395 0.298218637705
  endloop
endfacet
facet normal 0.0 1.0 0.0
  outer loop
    vertex 1.7150015831 1.74999940395 0.250228226185
    vertex 2.4557762146 1.74999940395 0.298218637705
    vertex 2.4557762146 1.74999940395 0.250228226185
  endloop
endfacet
facet normal 0.48772341013 -0.431920170784 0.758663833141
  outer loop
    vertex 1.20861899853 0.350284636021 0.77518850565
    vertex 1.20861947536 6.92903881827e-07 0.62375587225
    vertex 1.71499955654 6.40749874492e-07 0.250228226185
  endloop
endfacet
facet normal 0.48772341013 -0.431920170784 0.758663833141
  outer loop
    vertex 1.20861899853 0.350284636021 0.77518850565
    vertex 1.71499955654 6.40749874492e-07 0.250228226185
    vertex 1.71499931812 6.40749874492e-07 0.298218637705
  endloop
endfacet
facet normal -6.91913086825e-08 -1.0 4.06077091952e-08
  outer loop
    vertex 1.20861947536 6.92903881827e-07 0.62375587225
    vertex 1.09157967567 6.92903881827e-07 0.47232323885
    vertex 1.71499991417 6.40749874492e-07 0.202237814665
  endloop
endfacet
facet normal -6.91913086825e-08 -1.0 4.06077091952e-08
  outer loop
    vertex 1.20861947536 6.92903881827e-07 0.62375587225
    vertex 1.71499991417 6.40749874492e-07 0.202237814665
    vertex 1.71499955654 6.40749874492e-07 0.250228226185
  endloop
endfacet
facet normal -0.401141107082 -0.529906451702 0.747184693813
  outer loop
    vertex 1.01327918856e-06 0.603428661823 0.402838379145
    vertex 1.01327918856e-06 0.603428661823 0.305848479271
    vertex 1.20861947536 6.92903881827e-07 0.62375587225
  endloop
endfacet
facet normal -0.401141107082 -0.529906451702 0.747184693813
  outer loop
    vertex 1.01327918856e-06 0.603428661823 0.402838379145
    vertex 1.20861947536 6.92903881827e-07 0.62375587225
    vertex 1.20861899853 0.350284636021 0.77518850565
  endloop
endfacet
facet normal -0.497459560633 -0.835227549076 0.234369114041
  outer loop
    vertex 1.01327918856e-06 0.603428661823 0.305848479271
    vertex 1.01327918856e-06 0.603428661823 0.208858594298
    vertex 1.09157967567 6.92903881827e-07 0.47232323885
  endloop
endfacet
facet normal -0.497459560633 -0.835227549076 0.234369114041
  outer loop
    vertex 1.01327918856e-06 0.603428661823 0.305848479271
    vertex 1.09157967567 6.92903881827e-07 0.47232323885
    vertex 1.20861947536 6.92903881827e-07 0.62375587225
  endloop
endfacet
facet normal 3.34283043912e-07 1.0 4.01582781251e-07
  outer loop
    vertex 1.0915813446 1.74999952316 0.47232323885
    vertex 1.20862114429 1.74999952316 0.62375587225
    vertex 1.7150015831 1.74999940395 0.250228226185
  endloop
endfacet
facet normal 3.34283043912e-07 1.0 4.01582781251e-07
  outer loop
    vertex 1.0915813446 1.74999952316 0.47232323885
    vertex 1.7150015831 1.74999940395 0.250228226185
    vertex 1.7150015831 1.74999952316 0.202237814665
  endloop
endfacet
facet normal 0.487723350525 0.431919962168 0.758664011955
  outer loop
    vertex 1.20862114429 1.74999952316 0.62375587225
    vertex 1.20862066746 1.39971530437 0.77518850565
    vertex 1.71500134468 1.74999940395 0.298218637705
  endloop
endfacet
facet normal 0.487723350525 0.431919962168 0.758664011955
  outer loop
    vertex 1.20862114429 1.74999952316 0.62375587225
    vertex 1.71500134468 1.74999940395 0.298218637705
    vertex 1.7150015831 1.74999940395 0.250228226185
  endloop
endfacet
facet normal -0.497459113598 0.835227906704 0.234368935227
  outer loop
    vertex 1.63912761764e-06 1.1465716362 0.208858594298
    vertex 1.63912761764e-06 1.1465716362 0.305848479271
    vertex 1.20862114429 1.74999952316 0.62375587225
  endloop
endfacet
facet normal -0.497459113598 0.835227906704 0.234368935227
  outer loop
    vertex 1.63912761764e-06 1.1465716362 0.208858594298
    vertex 1.20862114429 1.74999952316 0.62375587225
    vertex 1.0915813446 1.74999952316 0.47232323885
  endloop
endfacet
facet normal -0.401140660048 0.529906451702 0.747184932232
  outer loop
    vertex 1.63912761764e-06 1.1465716362 0.305848479271
    vertex 1.43051147461e-06 1.1465716362 0.402838379145
    vertex 1.20862066746 1.39971530437 0.77518850565
  endloop
endfacet
facet normal -0.401140660048 0.529906451702 0.747184932232
  outer loop
    vertex 1.63912761764e-06 1.1465716362 0.305848479271
    vertex 1.20862066746 1.39971530437 0.77518850565
    vertex 1.20862114429 1.74999952316 0.62375587225
  endloop
endfacet
facet normal 3.29993127934e-07 -1.0 -5.78700507958e-07
  outer loop
    vertex 4.30499792099 3.27825659951e-07 0.298218637705
    vertex 4.30499792099 4.32133731465e-07 0.250228226185
    vertex 5.10999774933 2.2351761686e-07 0.9375
  endloop
endfacet
facet normal 3.29993127934e-07 -1.0 -5.78700507958e-07
  outer loop
    vertex 4.30499792099 3.27825659951e-07 0.298218637705
    vertex 5.10999774933 2.2351761686e-07 0.9375
    vertex 5.10999727249 1.19209545346e-07 1.25
  endloop
endfacet
facet normal 5.13327025331e-09 -1.0 -2.89350367666e-07
  outer loop
    vertex 4.30499792099 4.32133731465e-07 0.250228226185
    vertex 4.30499839783 4.32133731465e-07 0.202237814665
    vertex 5.10999822617 3.27825659951e-07 0.625
  endloop
endfacet
facet normal 5.13327025331e-09 -1.0 -2.89350367666e-07
  outer loop
    vertex 4.30499792099 4.32133731465e-07 0.250228226185
    vertex 5.10999822617 3.27825659951e-07 0.625
    vertex 5.10999774933 2.2351761686e-07 0.9375
  endloop
endfacet
facet normal -6.47876703397e-08 -1.0 -1.08675965294e-06
  outer loop
    vertex 3.49999833107 4.32133731465e-07 0.298218637705
    vertex 3.49999856949 4.32133731465e-07 0.250228226185
    vertex 4.30499792099 4.32133731465e-07 0.250228226185
  endloop
endfacet
facet normal -6.47876703397e-08 -1.0 -1.08675965294e-06
  outer loop
    vertex 3.49999833107 4.32133731465e-07 0.298218637705
    vertex 4.30499792099 4.32133731465e-07 0.250228226185
    vertex 4.30499792099 3.27825659951e-07 0.298218637705
  endloop
endfacet
facet normal -6.47876703397e-08 -1.0 -1.08676010768e-06
  outer loop
    vertex 3.49999856949 4.32133731465e-07 0.250228226185
    vertex 3.49999904633 5.36441802979e-07 0.202237814665
    vertex 4.30499839783 4.32133731465e-07 0.202237814665
  endloop
endfacet
facet normal -6.47876703397e-08 -1.0 -1.08676010768e-06
  outer loop
    vertex 3.49999856949 4.32133731465e-07 0.250228226185
    vertex 4.30499839783 4.32133731465e-07 0.202237814665
    vertex 4.30499792099 4.32133731465e-07 0.250228226185
  endloop
endfacet
facet normal -1.53953038762e-07 1.0 3.30686845018e-07
  outer loop
    vertex 4.30500030518 1.74999940395 0.202237814665
    vertex 4.30500078201 1.74999940395 0.250228226185
    vertex 5.11000061035 1.74999928474 0.9375
  endloop
endfacet
facet normal -1.53953038762e-07 1.0 3.30686845018e-07
  outer loop
    vertex 4.30500030518 1.74999940395 0.202237814665
    vertex 5.11000061035 1.74999928474 0.9375
    vertex 5.11000013351 1.74999940395 0.625
  endloop
endfacet
facet normal -5.25221707903e-07 1.0 6.61372894228e-07
  outer loop
    vertex 4.30500078201 1.74999940395 0.250228226185
    vertex 4.30500078201 1.74999928474 0.298218637705
    vertex 5.11000061035 1.74999916553 1.25
  endloop
endfacet
facet normal -5.25221707903e-07 1.0 6.61372894228e-07
  outer loop
    vertex 4.30500078201 1.74999940395 0.250228226185
    vertex 5.11000061035 1.74999916553 1.25
    vertex 5.11000061035 1.74999928474 0.9375
  endloop
endfacet
facet normal 0.0 1.0 0.0
  outer loop
    vertex 3.50000071526 1.74999940395 0.202237814665
    vertex 3.50000095367 1.74999940395 0.250228226185
    vertex 4.30500078201 1.74999940395 0.250228226185
  endloop
endfacet
facet normal 0.0 1.0 0.0
  outer loop
    vertex 3.50000071526 1.74999940395 0.202237814665
    vertex 4.30500078201 1.74999940395 0.250228226185
    vertex 4.30500030518 1.74999940395 0.202237814665
  endloop
endfacet
facet normal 0.0 1.0 2.48402307079e-06
  outer loop
    vertex 3.50000095367 1.74999940395 0.250228226185
    vertex 3.50000095367 1.74999928474 0.298218637705
    vertex 4.30500078201 1.74999928474 0.298218637705
  endloop
endfacet
facet normal 0.0 1.0 2.48402307079e-06
  outer loop
    vertex 3.50000095367 1.74999940395 0.250228226185
    vertex 4.30500078201 1.74999928474 0.298218637705
    vertex 4.30500078201 1.74999940395 0.250228226185
  endloop
endfacet
facet normal 1.0 -1.08991412162e-06 -4.15769225688e-13
  outer loop
    vertex 6.99999952316 1.31249928474 1.25
    vertex 6.99999952316 1.31249940395 0.9375
    vertex 7.0 1.74999916553 0.9375
  endloop
endfacet
facet normal 1.0 -1.08991412162e-06 -4.15769225688e-13
  outer loop
    vertex 6.99999952316 1.31249928474 1.25
    vertex 7.0 1.74999916553 0.9375
    vertex 7.0 1.74999904633 1.25
  endloop
endfacet
facet normal 1.0 -1.08991412162e-06 -1.52587927005e-06
  outer loop
    vertex 6.99999952316 1.31249940395 0.9375
    vertex 6.99999904633 1.31249952316 0.625
    vertex 6.99999952316 1.74999928474 0.625
  endloop
endfacet
facet normal 1.0 -1.08991412162e-06 -1.52587927005e-06
  outer loop
    vertex 6.99999952316 1.31249940395 0.9375
    vertex 6.99999952316 1.74999928474 0.625
    vertex 7.0 1.74999916553 0.9375
  endloop
endfacet
facet normal 1.0 -3.26974191012e-06 -1.24730759575e-12
  outer loop
    vertex 6.99999809265 0.874999463558 1.25
    vertex 6.99999809265 0.874999582767 0.9375
    vertex 6.99999952316 1.31249940395 0.9375
  endloop
endfacet
facet normal 1.0 -3.26974191012e-06 -1.24730759575e-12
  outer loop
    vertex 6.99999809265 0.874999463558 1.25
    vertex 6.99999952316 1.31249940395 0.9375
    vertex 6.99999952316 1.31249928474 1.25
  endloop
endfacet
facet normal 1.0 -2.17982801587e-06 -1.03942299646e-12
  outer loop
    vertex 6.99999809265 0.874999582767 0.9375
    vertex 6.99999856949 0.874999761581 0.625
    vertex 6.99999904633 1.31249952316 0.625
  endloop
endfacet
facet normal 1.0 -2.17982801587e-06 -1.03942299646e-12
  outer loop
    vertex 6.99999809265 0.874999582767 0.9375
    vertex 6.99999904633 1.31249952316 0.625
    vertex 6.99999952316 1.31249940395 0.9375
  endloop
endfacet
facet normal -1.0 0.0 0.0
  outer loop
    vertex 1.43051147461e-06 1.01078593731 0.402838379145
    vertex 1.43051147461e-06 1.01078593731 0.305848479271
    vertex 1.43051147461e-06 0.875000178814 0.305848479271
  endloop
endfacet
facet normal -1.0 0.0 0.0
  outer loop
    vertex 1.43051147461e-06 1.01078593731 0.402838379145
    vertex 1.43051147461e-06 0.875000178814 0.305848479271
    vertex 1.43051147461e-06 0.875000178814 0.402838379145
  endloop
endfacet
facet normal -1.0 7.68181280364e-07 -1.07545315586e-06
  outer loop
    vertex 1.43051147461e-06 1.01078593731 0.305848479271
    vertex 1.63912761764e-06 1.01078593731 0.208858594298
    vertex 1.43051147461e-06 0.875000178814 0.208858594298
  endloop
endfacet
facet normal -1.0 7.68181280364e-07 -1.07545315586e-06
  outer loop
    vertex 1.43051147461e-06 1.01078593731 0.305848479271
    vertex 1.43051147461e-06 0.875000178814 0.208858594298
    vertex 1.43051147461e-06 0.875000178814 0.305848479271
  endloop
endfacet
facet normal -1.0 7.68181564581e-07 -1.07545292849e-06
  outer loop
    vertex 1.43051147461e-06 1.1465716362 0.402838379145
    vertex 1.63912761764e-06 1.1465716362 0.305848479271
    vertex 1.43051147461e-06 1.01078593731 0.305848479271
  endloop
endfacet
facet normal -1.0 7.68181564581e-07 -1.07545292849e-06
  outer loop
    vertex 1.43051147461e-06 1.1465716362 0.402838379145
    vertex 1.43051147461e-06 1.01078593731 0.305848479271
    vertex 1.43051147461e-06 1.01078593731 0.402838379145
  endloop
endfacet
facet normal -1.0 7.68181621424e-07 -1.07545304218e-06
  outer loop
    vertex 1.63912761764e-06 1.1465716362 0.305848479271
    vertex 1.63912761764e-06 1.1465716362 0.208858594298
    vertex 1.63912761764e-06 1.01078593731 0.208858594298
  endloop
endfacet
facet normal -1.0 7.68181621424e-07 -1.07545304218e-06
  outer loop
    vertex 1.63912761764e-06 1.1465716362 0.305848479271
    vertex 1.63912761764e-06 1.01078593731 0.208858594298
    vertex 1.43051147461e-06 1.01078593731 0.305848479271
  endloop
endfacet
facet normal 1.0 -1.63487118243e-06 7.62938725529e-07
  outer loop
    vertex 6.99999713898 0.437499701977 1.25
    vertex 6.99999761581 0.437499850988 0.9375
    vertex 6.99999809265 0.874999582767 0.9375
  endloop
endfacet
facet normal 1.0 -1.63487118243e-06 7.62938725529e-07
  outer loop
    vertex 6.99999713898 0.437499701977 1.25
    vertex 6.99999809265 0.874999582767 0.9375
    vertex 6.99999809265 0.874999463558 1.25
  endloop
endfacet
facet normal 1.0 -1.63487118243e-06 7.62938668686e-07
  outer loop
    vertex 6.99999761581 0.437499850988 0.9375
    vertex 6.99999761581 0.437499970198 0.625
    vertex 6.99999856949 0.874999761581 0.625
  endloop
endfacet
facet normal 1.0 -1.63487118243e-06 7.62938668686e-07
  outer loop
    vertex 6.99999761581 0.437499850988 0.9375
    vertex 6.99999856949 0.874999761581 0.625
    vertex 6.99999809265 0.874999582767 0.9375
  endloop
endfacet
facet normal 1.0 -1.63487095506e-06 2.2888177682e-06
  outer loop
    vertex 6.9999961853 -8.940658347e-08 1.25
    vertex 6.99999713898 1.49014809381e-08 0.9375
    vertex 6.99999761581 0.437499850988 0.9375
  endloop
endfacet
facet normal 1.0 -1.63487095506e-06 2.2888177682e-06
  outer loop
    vertex 6.9999961853 -8.940658347e-08 1.25
    vertex 6.99999761581 0.437499850988 0.9375
    vertex 6.99999713898 0.437499701977 1.25
  endloop
endfacet
facet normal 1.0 -1.08991389425e-06 -3.89783474594e-13
  outer loop
    vertex 6.99999713898 1.49014809381e-08 0.9375
    vertex 6.99999713898 1.19209545346e-07 0.625
    vertex 6.99999761581 0.437499970198 0.625
  endloop
endfacet
facet normal 1.0 -1.08991389425e-06 -3.89783474594e-13
  outer loop
    vertex 6.99999713898 1.49014809381e-08 0.9375
    vertex 6.99999761581 0.437499970198 0.625
    vertex 6.99999761581 0.437499850988 0.9375
  endloop
endfacet
facet normal -1.0 0.0 0.0
  outer loop
    vertex 1.01327918856e-06 0.739214420319 0.402838379145
    vertex 1.01327918856e-06 0.739214420319 0.305848479271
    vertex 1.01327918856e-06 0.603428661823 0.305848479271
  endloop
endfacet
facet normal -1.0 0.0 0.0
  outer loop
    vertex 1.01327918856e-06 0.739214420319 0.402838379145
    vertex 1.01327918856e-06 0.603428661823 0.305848479271
    vertex 1.01327918856e-06 0.603428661823 0.402838379145
  endloop
endfacet
facet normal -1.0 1.53636256073e-06 -2.15090631173e-06
  outer loop
    vertex 1.01327918856e-06 0.739214420319 0.305848479271
    vertex 1.43051147461e-06 0.739214420319 0.208858594298
    vertex 1.01327918856e-06 0.603428661823 0.208858594298
  endloop
endfacet
facet normal -1.0 1.53636256073e-06 -2.15090631173e-06
  outer loop
    vertex 1.01327918856e-06 0.739214420319 0.305848479271
    vertex 1.01327918856e-06 0.603428661823 0.208858594298
    vertex 1.01327918856e-06 0.603428661823 0.305848479271
  endloop
endfacet
facet normal -1.0 3.07272489408e-06 0.0
  outer loop
    vertex 1.43051147461e-06 0.875000178814 0.402838379145
    vertex 1.43051147461e-06 0.875000178814 0.305848479271
    vertex 1.01327918856e-06 0.739214420319 0.305848479271
  endloop
endfacet
facet normal -1.0 3.07272489408e-06 0.0
  outer loop
    vertex 1.43051147461e-06 0.875000178814 0.402838379145
    vertex 1.01327918856e-06 0.739214420319 0.305848479271
    vertex 1.01327918856e-06 0.739214420319 0.402838379145
  endloop
endfacet
facet normal -1.0 1.53636256073e-06 -2.15090631173e-06
  outer loop
    vertex 1.43051147461e-06 0.875000178814 0.305848479271
    vertex 1.43051147461e-06 0.875000178814 0.208858594298
    vertex 1.43051147461e-06 0.739214420319 0.208858594298
  endloop
endfacet
facet normal -1.0 1.53636256073e-06 -2.15090631173e-06
  outer loop
    vertex 1.43051147461e-06 0.875000178814 0.305848479271
    vertex 1.43051147461e-06 0.739214420319 0.208858594298
    vertex 1.01327918856e-06 0.739214420319 0.305848479271
  endloop
endfacet
facet normal -5.51894849821e-08 -1.0 -5.00678709159e-07
  outer loop
    vertex 6.05499792099 2.2351761686e-07 0.625
    vertex 6.05499839783 3.27825659951e-07 0.3125
    vertex 6.99999809265 3.27825659951e-07 0.3125
  endloop
endfacet
facet normal -5.51894849821e-08 -1.0 -5.00678709159e-07
  outer loop
    vertex 6.05499792099 2.2351761686e-07 0.625
    vertex 6.99999809265 3.27825659951e-07 0.3125
    vertex 6.99999713898 1.19209545346e-07 0.625
  endloop
endfacet
facet normal -5.51894743239e-08 -1.0 -5.00678822846e-07
  outer loop
    vertex 6.05499839783 3.27825659951e-07 0.3125
    vertex 6.05499887466 5.36441802979e-07 -1.49011540884e-08
    vertex 6.99999856949 4.32133731465e-07 -1.49011540884e-08
  endloop
endfacet
facet normal -5.51894743239e-08 -1.0 -5.00678822846e-07
  outer loop
    vertex 6.05499839783 3.27825659951e-07 0.3125
    vertex 6.99999856949 4.32133731465e-07 -1.49011540884e-08
    vertex 6.99999809265 3.27825659951e-07 0.3125
  endloop
endfacet
facet normal -1.10378934437e-07 -1.0 -3.33785976636e-07
  outer loop
    vertex 5.10999822617 3.27825659951e-07 0.625
    vertex 5.109998703 4.32133731465e-07 0.3125
    vertex 6.05499839783 3.27825659951e-07 0.3125
  endloop
endfacet
facet normal -1.10378934437e-07 -1.0 -3.33785976636e-07
  outer loop
    vertex 5.10999822617 3.27825659951e-07 0.625
    vertex 6.05499839783 3.27825659951e-07 0.3125
    vertex 6.05499792099 2.2351761686e-07 0.625
  endloop
endfacet
facet normal -5.51894743239e-08 -1.0 -5.00678822846e-07
  outer loop
    vertex 5.109998703 4.32133731465e-07 0.3125
    vertex 5.10999917984 5.36441802979e-07 -1.49011540884e-08
    vertex 6.05499887466 5.36441802979e-07 -1.49011540884e-08
  endloop
endfacet
facet normal -5.51894743239e-08 -1.0 -5.00678822846e-07
  outer loop
    vertex 5.109998703 4.32133731465e-07 0.3125
    vertex 6.05499887466 5.36441802979e-07 -1.49011540884e-08
    vertex 6.05499839783 3.27825659951e-07 0.3125
  endloop
endfacet
facet normal 6.30737346796e-08 1.0 1.9073480928e-07
  outer loop
    vertex 6.99999904633 1.74999952316 0.3125
    vertex 6.99999856949 1.74999952316 -1.49011540884e-08
    vertex 6.0549993515 1.74999964237 -1.49011540884e-08
  endloop
endfacet
facet normal 6.30737346796e-08 1.0 1.9073480928e-07
  outer loop
    vertex 6.99999904633 1.74999952316 0.3125
    vertex 6.0549993515 1.74999964237 -1.49011540884e-08
    vertex 6.0549993515 1.74999952316 0.3125
  endloop
endfacet
facet normal 6.30737204688e-08 1.0 5.72204498894e-07
  outer loop
    vertex 6.0549993515 1.74999952316 0.3125
    vertex 6.05499982834 1.74999940395 0.625
    vertex 6.99999952316 1.74999928474 0.625
  endloop
endfacet
facet normal 6.30737204688e-08 1.0 5.72204498894e-07
  outer loop
    vertex 6.0549993515 1.74999952316 0.3125
    vertex 6.99999952316 1.74999928474 0.625
    vertex 6.99999904633 1.74999952316 0.3125
  endloop
endfacet
facet normal 0.0 1.0 3.81469703825e-07
  outer loop
    vertex 5.10999965668 1.74999964237 -1.49011540884e-08
    vertex 5.11000013351 1.74999952316 0.3125
    vertex 6.0549993515 1.74999952316 0.3125
  endloop
endfacet
facet normal 0.0 1.0 3.81469703825e-07
  outer loop
    vertex 5.10999965668 1.74999964237 -1.49011540884e-08
    vertex 6.0549993515 1.74999952316 0.3125
    vertex 6.0549993515 1.74999964237 -1.49011540884e-08
  endloop
endfacet
facet normal 0.0 1.0 3.81469703825e-07
  outer loop
    vertex 5.11000013351 1.74999952316 0.3125
    vertex 5.11000013351 1.74999940395 0.625
    vertex 6.05499982834 1.74999940395 0.625
  endloop
endfacet
facet normal 0.0 1.0 3.81469703825e-07
  outer loop
    vertex 5.11000013351 1.74999952316 0.3125
    vertex 6.05499982834 1.74999940395 0.625
    vertex 6.0549993515 1.74999952316 0.3125
  endloop
endfacet
facet normal -4.99452283975e-08 -1.0 -1.08675988031e-06
  outer loop
    vertex 2.45577454567 6.40749874492e-07 0.202237814665
    vertex 2.45577478409 6.40749874492e-07 0.154247403145
    vertex 3.49999952316 6.40749874492e-07 0.154247403145
  endloop
endfacet
facet normal -4.99452283975e-08 -1.0 -1.08675988031e-06
  outer loop
    vertex 2.45577454567 6.40749874492e-07 0.202237814665
    vertex 3.49999952316 6.40749874492e-07 0.154247403145
    vertex 3.49999904633 5.36441802979e-07 0.202237814665
  endloop
endfacet
facet normal 0.0 -1.0 6.76238698816e-07
  outer loop
    vertex 2.45577478409 6.40749874492e-07 0.154247403145
    vertex 2.45577502251 5.36441802979e-07 -1.49011540884e-08
    vertex 3.49999976158 5.36441802979e-07 -1.49011540884e-08
  endloop
endfacet
facet normal 0.0 -1.0 6.76238698816e-07
  outer loop
    vertex 2.45577478409 6.40749874492e-07 0.154247403145
    vertex 3.49999976158 5.36441802979e-07 -1.49011540884e-08
    vertex 3.49999952316 6.40749874492e-07 0.154247403145
  endloop
endfacet
facet normal -0.0 -1.0 0.0
  outer loop
    vertex 1.71499991417 6.40749874492e-07 0.202237814665
    vertex 1.71500015259 6.40749874492e-07 0.154247403145
    vertex 2.45577478409 6.40749874492e-07 0.154247403145
  endloop
endfacet
facet normal -0.0 -1.0 0.0
  outer loop
    vertex 1.71499991417 6.40749874492e-07 0.202237814665
    vertex 2.45577478409 6.40749874492e-07 0.154247403145
    vertex 2.45577454567 6.40749874492e-07 0.202237814665
  endloop
endfacet
facet normal -3.52023441508e-08 -1.0 5.07179038323e-07
  outer loop
    vertex 1.71500015259 6.40749874492e-07 0.154247403145
    vertex 1.71500039101 5.88595810314e-07 -1.49011540884e-08
    vertex 2.45577502251 5.36441802979e-07 -1.49011540884e-08
  endloop
endfacet
facet normal -3.52023441508e-08 -1.0 5.07179038323e-07
  outer loop
    vertex 1.71500015259 6.40749874492e-07 0.154247403145
    vertex 2.45577502251 5.36441802979e-07 -1.49011540884e-08
    vertex 2.45577478409 6.40749874492e-07 0.154247403145
  endloop
endfacet
facet normal 0.0 1.0 7.72844657604e-07
  outer loop
    vertex 2.4557762146 1.74999964237 -1.49011540884e-08
    vertex 2.4557762146 1.74999952316 0.154247403145
    vertex 3.50000071526 1.74999952316 0.154247403145
  endloop
endfacet
facet normal 0.0 1.0 7.72844657604e-07
  outer loop
    vertex 2.4557762146 1.74999964237 -1.49011540884e-08
    vertex 3.50000071526 1.74999952316 0.154247403145
    vertex 3.50000071526 1.74999964237 -1.49011540884e-08
  endloop
endfacet
facet normal 0.0 1.0 2.48402307079e-06
  outer loop
    vertex 2.4557762146 1.74999952316 0.154247403145
    vertex 2.4557762146 1.74999940395 0.202237814665
    vertex 3.50000071526 1.74999940395 0.202237814665
  endloop
endfacet
facet normal 0.0 1.0 2.48402307079e-06
  outer loop
    vertex 2.4557762146 1.74999952316 0.154247403145
    vertex 3.50000071526 1.74999940395 0.202237814665
    vertex 3.50000071526 1.74999952316 0.154247403145
  endloop
endfacet
facet normal 8.04625912565e-08 1.0 1.15926695798e-06
  outer loop
    vertex 1.7150015831 1.74999976158 -1.49011540884e-08
    vertex 1.7150015831 1.74999952316 0.154247403145
    vertex 2.4557762146 1.74999952316 0.154247403145
  endloop
endfacet
facet normal 8.04625912565e-08 1.0 1.15926695798e-06
  outer loop
    vertex 1.7150015831 1.74999976158 -1.49011540884e-08
    vertex 2.4557762146 1.74999952316 0.154247403145
    vertex 2.4557762146 1.74999964237 -1.49011540884e-08
  endloop
endfacet
facet normal 8.04625841511e-08 1.0 1.2420115354e-06
  outer loop
    vertex 1.7150015831 1.74999952316 0.154247403145
    vertex 1.7150015831 1.74999952316 0.202237814665
    vertex 2.4557762146 1.74999940395 0.202237814665
  endloop
endfacet
facet normal 8.04625841511e-08 1.0 1.2420115354e-06
  outer loop
    vertex 1.7150015831 1.74999952316 0.154247403145
    vertex 2.4557762146 1.74999940395 0.202237814665
    vertex 2.4557762146 1.74999952316 0.154247403145
  endloop
endfacet
facet normal -8.36579872043e-08 -1.0 -3.00049861259e-13
  outer loop
    vertex 1.09157967567 6.92903881827e-07 0.47232323885
    vertex 1.09158015251 6.92903881827e-07 0.32089060545
    vertex 1.71500015259 6.40749874492e-07 0.154247403145
  endloop
endfacet
facet normal -8.36579872043e-08 -1.0 -3.00049861259e-13
  outer loop
    vertex 1.09157967567 6.92903881827e-07 0.47232323885
    vertex 1.71500015259 6.40749874492e-07 0.154247403145
    vertex 1.71499991417 6.40749874492e-07 0.202237814665
  endloop
endfacet
facet normal -4.33293543267e-08 -1.0 2.40878563318e-07
  outer loop
    vertex 1.09158015251 6.92903881827e-07 0.32089060545
    vertex 0.85750067234 6.40749874492e-07 -1.49011540884e-08
    vertex 1.71500039101 5.88595810314e-07 -1.49011540884e-08
  endloop
endfacet
facet normal -4.33293543267e-08 -1.0 2.40878563318e-07
  outer loop
    vertex 1.09158015251 6.92903881827e-07 0.32089060545
    vertex 1.71500039101 5.88595810314e-07 -1.49011540884e-08
    vertex 1.71500015259 6.40749874492e-07 0.154247403145
  endloop
endfacet
facet normal -0.483800798655 -0.875178158283 -9.2863632517e-07
  outer loop
    vertex 1.01327918856e-06 0.603428661823 0.208858594298
    vertex 1.01327918856e-06 0.603428661823 0.111868694425
    vertex 1.09158015251 6.92903881827e-07 0.32089060545
  endloop
endfacet
facet normal -0.483800798655 -0.875178158283 -9.2863632517e-07
  outer loop
    vertex 1.01327918856e-06 0.603428661823 0.208858594298
    vertex 1.09158015251 6.92903881827e-07 0.32089060545
    vertex 1.09157967567 6.92903881827e-07 0.47232323885
  endloop
endfacet
facet normal -0.524208724499 -0.799362778664 0.293639749289
  outer loop
    vertex 1.01327918856e-06 0.603428661823 0.111868694425
    vertex 1.43051147461e-06 0.603428661823 0.0148787926883
    vertex 0.85750067234 6.40749874492e-07 -1.49011540884e-08
  endloop
endfacet
facet normal -0.524208724499 -0.799362778664 0.293639749289
  outer loop
    vertex 1.01327918856e-06 0.603428661823 0.111868694425
    vertex 0.85750067234 6.40749874492e-07 -1.49011540884e-08
    vertex 1.09158015251 6.92903881827e-07 0.32089060545
  endloop
endfacet
facet normal 2.59534999714e-07 1.0 8.75714817994e-07
  outer loop
    vertex 0.857502162457 1.74999988079 -1.49011540884e-08
    vertex 1.0915813446 1.74999964237 0.32089060545
    vertex 1.7150015831 1.74999952316 0.154247403145
  endloop
endfacet
facet normal 2.59534999714e-07 1.0 8.75714817994e-07
  outer loop
    vertex 0.857502162457 1.74999988079 -1.49011540884e-08
    vertex 1.7150015831 1.74999952316 0.154247403145
    vertex 1.7150015831 1.74999976158 -1.49011540884e-08
  endloop
endfacet
facet normal 3.04989271172e-07 1.0 5.97770906552e-07
  outer loop
    vertex 1.0915813446 1.74999964237 0.32089060545
    vertex 1.0915813446 1.74999952316 0.47232323885
    vertex 1.7150015831 1.74999952316 0.202237814665
  endloop
endfacet
facet normal 3.04989271172e-07 1.0 5.97770906552e-07
  outer loop
    vertex 1.0915813446 1.74999964237 0.32089060545
    vertex 1.7150015831 1.74999952316 0.202237814665
    vertex 1.7150015831 1.74999952316 0.154247403145
  endloop
endfacet
facet normal -0.52420848608 0.799362838268 0.293640077114
  outer loop
    vertex 1.84774376066e-06 1.14657175541 0.0148787926883
    vertex 1.84774376066e-06 1.14657175541 0.111868694425
    vertex 1.0915813446 1.74999964237 0.32089060545
  endloop
endfacet
facet normal -0.52420848608 0.799362838268 0.293640077114
  outer loop
    vertex 1.84774376066e-06 1.14657175541 0.0148787926883
    vertex 1.0915813446 1.74999964237 0.32089060545
    vertex 0.857502162457 1.74999988079 -1.49011540884e-08
  endloop
endfacet
facet normal -0.48380073905 0.875178158283 4.33656680343e-07
  outer loop
    vertex 1.84774376066e-06 1.14657175541 0.111868694425
    vertex 1.63912761764e-06 1.1465716362 0.208858594298
    vertex 1.0915813446 1.74999952316 0.47232323885
  endloop
endfacet
facet normal -0.48380073905 0.875178158283 4.33656680343e-07
  outer loop
    vertex 1.84774376066e-06 1.14657175541 0.111868694425
    vertex 1.0915813446 1.74999952316 0.47232323885
    vertex 1.0915813446 1.74999964237 0.32089060545
  endloop
endfacet
facet normal 7.92655683313e-08 -1.0 -5.78700792175e-07
  outer loop
    vertex 4.30499839783 4.32133731465e-07 0.202237814665
    vertex 4.30499887466 5.36441802979e-07 0.154247403145
    vertex 5.109998703 4.32133731465e-07 0.3125
  endloop
endfacet
facet normal 7.92655683313e-08 -1.0 -5.78700792175e-07
  outer loop
    vertex 4.30499839783 4.32133731465e-07 0.202237814665
    vertex 5.109998703 4.32133731465e-07 0.3125
    vertex 5.10999822617 3.27825659951e-07 0.625
  endloop
endfacet
facet normal -4.28211173187e-08 -1.0 -2.2347872175e-07
  outer loop
    vertex 4.30499887466 5.36441802979e-07 0.154247403145
    vertex 4.3049993515 5.36441802979e-07 -1.49011540884e-08
    vertex 5.10999917984 5.36441802979e-07 -1.49011540884e-08
  endloop
endfacet
facet normal -4.28211173187e-08 -1.0 -2.2347872175e-07
  outer loop
    vertex 4.30499887466 5.36441802979e-07 0.154247403145
    vertex 5.10999917984 5.36441802979e-07 -1.49011540884e-08
    vertex 5.109998703 4.32133731465e-07 0.3125
  endloop
endfacet
facet normal -1.29575340679e-07 -1.0 -2.17352021536e-06
  outer loop
    vertex 3.49999904633 5.36441802979e-07 0.202237814665
    vertex 3.49999952316 6.40749874492e-07 0.154247403145
    vertex 4.30499887466 5.36441802979e-07 0.154247403145
  endloop
endfacet
facet normal -1.29575340679e-07 -1.0 -2.17352021536e-06
  outer loop
    vertex 3.49999904633 5.36441802979e-07 0.202237814665
    vertex 4.30499887466 5.36441802979e-07 0.154247403145
    vertex 4.30499839783 4.32133731465e-07 0.202237814665
  endloop
endfacet
facet normal -6.47876632343e-08 -1.0 3.38119207299e-07
  outer loop
    vertex 3.49999952316 6.40749874492e-07 0.154247403145
    vertex 3.49999976158 5.36441802979e-07 -1.49011540884e-08
    vertex 4.3049993515 5.36441802979e-07 -1.49011540884e-08
  endloop
endfacet
facet normal -6.47876632343e-08 -1.0 3.38119207299e-07
  outer loop
    vertex 3.49999952316 6.40749874492e-07 0.154247403145
    vertex 4.3049993515 5.36441802979e-07 -1.49011540884e-08
    vertex 4.30499887466 5.36441802979e-07 0.154247403145
  endloop
endfacet
facet normal -5.02092092347e-08 1.0 5.10808604304e-07
  outer loop
    vertex 4.30500030518 1.74999964237 -1.49011540884e-08
    vertex 4.30500030518 1.74999952316 0.154247403145
    vertex 5.11000013351 1.74999952316 0.3125
  endloop
endfacet
facet normal -5.02092092347e-08 1.0 5.10808604304e-07
  outer loop
    vertex 4.30500030518 1.74999964237 -1.49011540884e-08
    vertex 5.11000013351 1.74999952316 0.3125
    vertex 5.10999965668 1.74999964237 -1.49011540884e-08
  endloop
endfacet
facet normal -2.38675454511e-07 1.0 6.61372894228e-07
  outer loop
    vertex 4.30500030518 1.74999952316 0.154247403145
    vertex 4.30500030518 1.74999940395 0.202237814665
    vertex 5.11000013351 1.74999940395 0.625
  endloop
endfacet
facet normal -2.38675454511e-07 1.0 6.61372894228e-07
  outer loop
    vertex 4.30500030518 1.74999952316 0.154247403145
    vertex 5.11000013351 1.74999940395 0.625
    vertex 5.11000013351 1.74999952316 0.3125
  endloop
endfacet
facet normal 0.0 1.0 7.7284460076e-07
  outer loop
    vertex 3.50000071526 1.74999964237 -1.49011540884e-08
    vertex 3.50000071526 1.74999952316 0.154247403145
    vertex 4.30500030518 1.74999952316 0.154247403145
  endloop
endfacet
facet normal 0.0 1.0 7.7284460076e-07
  outer loop
    vertex 3.50000071526 1.74999964237 -1.49011540884e-08
    vertex 4.30500030518 1.74999952316 0.154247403145
    vertex 4.30500030518 1.74999964237 -1.49011540884e-08
  endloop
endfacet
facet normal 0.0 1.0 2.48402307079e-06
  outer loop
    vertex 3.50000071526 1.74999952316 0.154247403145
    vertex 3.50000071526 1.74999940395 0.202237814665
    vertex 4.30500030518 1.74999940395 0.202237814665
  endloop
endfacet
facet normal 0.0 1.0 2.48402307079e-06
  outer loop
    vertex 3.50000071526 1.74999952316 0.154247403145
    vertex 4.30500030518 1.74999940395 0.202237814665
    vertex 4.30500030518 1.74999952316 0.154247403145
  endloop
endfacet
facet normal 1.0 -1.08991400793e-06 -1.52587961111e-06
  outer loop
    vertex 6.99999904633 1.31249952316 0.625
    vertex 6.99999856949 1.31249964237 0.3125
    vertex 6.99999904633 1.74999952316 0.3125
  endloop
endfacet
facet normal 1.0 -1.08991400793e-06 -1.52587961111e-06
  outer loop
    vertex 6.99999904633 1.31249952316 0.625
    vertex 6.99999904633 1.74999952316 0.3125
    vertex 6.99999952316 1.74999928474 0.625
  endloop
endfacet
facet normal 1.0 -5.44956947124e-07 -7.62939521337e-07
  outer loop
    vertex 6.99999856949 1.74999952316 -1.49011540884e-08
    vertex 6.99999904633 1.74999952316 0.3125
    vertex 6.99999856949 1.31249964237 0.3125
  endloop
endfacet
facet normal 1.0 -5.44956947124e-07 -7.62939521337e-07
  outer loop
    vertex 6.99999856949 1.74999952316 -1.49011540884e-08
    vertex 6.99999856949 1.31249964237 0.3125
    vertex 6.99999856949 1.31249976158 -1.49011540884e-08
  endloop
endfacet
facet normal 1.0 -5.44957060811e-07 -7.62939635024e-07
  outer loop
    vertex 6.99999856949 0.874999761581 0.625
    vertex 6.99999856949 0.874999880791 0.3125
    vertex 6.99999856949 1.31249964237 0.3125
  endloop
endfacet
facet normal 1.0 -5.44957060811e-07 -7.62939635024e-07
  outer loop
    vertex 6.99999856949 0.874999761581 0.625
    vertex 6.99999856949 1.31249964237 0.3125
    vertex 6.99999904633 1.31249952316 0.625
  endloop
endfacet
facet normal 1.0 0.0 0.0
  outer loop
    vertex 6.99999856949 0.874999880791 0.3125
    vertex 6.99999856949 0.875 -1.49011540884e-08
    vertex 6.99999856949 1.31249976158 -1.49011540884e-08
  endloop
endfacet
facet normal 1.0 0.0 0.0
  outer loop
    vertex 6.99999856949 0.874999880791 0.3125
    vertex 6.99999856949 1.31249976158 -1.49011540884e-08
    vertex 6.99999856949 1.31249964237 0.3125
  endloop
endfacet
facet normal -1.0 1.53636244704e-06 0.0
  outer loop
    vertex 1.63912761764e-06 1.01078593731 0.208858594298
    vertex 1.63912761764e-06 1.01078593731 0.111868694425
    vertex 1.43051147461e-06 0.875000178814 0.111868694425
  endloop
endfacet
facet normal -1.0 1.53636244704e-06 0.0
  outer loop
    vertex 1.63912761764e-06 1.01078593731 0.208858594298
    vertex 1.43051147461e-06 0.875000178814 0.111868694425
    vertex 1.43051147461e-06 0.875000178814 0.208858594298
  endloop
endfacet
facet normal -1.0 7.68181450894e-07 -1.07545258743e-06
  outer loop
    vertex 1.63912761764e-06 1.01078593731 0.111868694425
    vertex 1.63912761764e-06 1.01078593731 0.0148787926883
    vertex 1.63912761764e-06 0.875000238419 0.0148787926883
  endloop
endfacet
facet normal -1.0 7.68181450894e-07 -1.07545258743e-06
  outer loop
    vertex 1.63912761764e-06 1.01078593731 0.111868694425
    vertex 1.63912761764e-06 0.875000238419 0.0148787926883
    vertex 1.43051147461e-06 0.875000178814 0.111868694425
  endloop
endfacet
facet normal -1.0 7.68181223521e-07 -1.07545236006e-06
  outer loop
    vertex 1.63912761764e-06 1.1465716362 0.208858594298
    vertex 1.84774376066e-06 1.14657175541 0.111868694425
    vertex 1.63912761764e-06 1.01078593731 0.111868694425
  endloop
endfacet
facet normal -1.0 7.68181223521e-07 -1.07545236006e-06
  outer loop
    vertex 1.63912761764e-06 1.1465716362 0.208858594298
    vertex 1.63912761764e-06 1.01078593731 0.111868694425
    vertex 1.63912761764e-06 1.01078593731 0.208858594298
  endloop
endfacet
facet normal -1.0 1.53636187861e-06 0.0
  outer loop
    vertex 1.84774376066e-06 1.14657175541 0.111868694425
    vertex 1.84774376066e-06 1.14657175541 0.0148787926883
    vertex 1.63912761764e-06 1.01078593731 0.0148787926883
  endloop
endfacet
facet normal -1.0 1.53636187861e-06 0.0
  outer loop
    vertex 1.84774376066e-06 1.14657175541 0.111868694425
    vertex 1.63912761764e-06 1.01078593731 0.0148787926883
    vertex 1.63912761764e-06 1.01078593731 0.111868694425
  endloop
endfacet
facet normal 1.0 -1.63487095506e-06 7.62938896059e-07
  outer loop
    vertex 6.99999761581 0.437499970198 0.625
    vertex 6.99999809265 0.437500059605 0.3125
    vertex 6.99999856949 0.874999880791 0.3125
  endloop
endfacet
facet normal 1.0 -1.63487095506e-06 7.62938896059e-07
  outer loop
    vertex 6.99999761581 0.437499970198 0.625
    vertex 6.99999856949 0.874999880791 0.3125
    vertex 6.99999856949 0.874999761581 0.625
  endloop
endfacet
facet normal 1.0 -5.44957003967e-07 7.6293923712e-07
  outer loop
    vertex 6.99999809265 0.437500059605 0.3125
    vertex 6.99999856949 0.437500208616 -1.49011540884e-08
    vertex 6.99999856949 0.875 -1.49011540884e-08
  endloop
endfacet
facet normal 1.0 -5.44957003967e-07 7.6293923712e-07
  outer loop
    vertex 6.99999809265 0.437500059605 0.3125
    vertex 6.99999856949 0.875 -1.49011540884e-08
    vertex 6.99999856949 0.874999880791 0.3125
  endloop
endfacet
facet normal 1.0 -5.44957003967e-07 2.28881799558e-06
  outer loop
    vertex 6.99999713898 1.19209545346e-07 0.625
    vertex 6.99999809265 3.27825659951e-07 0.3125
    vertex 6.99999809265 0.437500059605 0.3125
  endloop
endfacet
facet normal 1.0 -5.44957003967e-07 2.28881799558e-06
  outer loop
    vertex 6.99999713898 1.19209545346e-07 0.625
    vertex 6.99999809265 0.437500059605 0.3125
    vertex 6.99999761581 0.437499970198 0.625
  endloop
endfacet
facet normal 1.0 0.0 1.52587892899e-06
  outer loop
    vertex 6.99999809265 3.27825659951e-07 0.3125
    vertex 6.99999856949 4.32133731465e-07 -1.49011540884e-08
    vertex 6.99999856949 0.437500208616 -1.49011540884e-08
  endloop
endfacet
facet normal 1.0 0.0 1.52587892899e-06
  outer loop
    vertex 6.99999809265 3.27825659951e-07 0.3125
    vertex 6.99999856949 0.437500208616 -1.49011540884e-08
    vertex 6.99999809265 0.437500059605 0.3125
  endloop
endfacet
facet normal -1.0 3.07272489408e-06 0.0
  outer loop
    vertex 1.43051147461e-06 0.739214420319 0.208858594298
    vertex 1.43051147461e-06 0.739214420319 0.111868694425
    vertex 1.01327918856e-06 0.603428661823 0.111868694425
  endloop
endfacet
facet normal -1.0 3.07272489408e-06 0.0
  outer loop
    vertex 1.43051147461e-06 0.739214420319 0.208858594298
    vertex 1.01327918856e-06 0.603428661823 0.111868694425
    vertex 1.01327918856e-06 0.603428661823 0.208858594298
  endloop
endfacet
facet normal -1.0 1.53636256073e-06 -2.15090585698e-06
  outer loop
    vertex 1.43051147461e-06 0.739214420319 0.111868694425
    vertex 1.43051147461e-06 0.739214420319 0.0148787926883
    vertex 1.43051147461e-06 0.603428661823 0.0148787926883
  endloop
endfacet
facet normal -1.0 1.53636256073e-06 -2.15090585698e-06
  outer loop
    vertex 1.43051147461e-06 0.739214420319 0.111868694425
    vertex 1.43051147461e-06 0.603428661823 0.0148787926883
    vertex 1.01327918856e-06 0.603428661823 0.111868694425
  endloop
endfacet
facet normal -1.0 0.0 0.0
  outer loop
    vertex 1.43051147461e-06 0.875000178814 0.208858594298
    vertex 1.43051147461e-06 0.875000178814 0.111868694425
    vertex 1.43051147461e-06 0.739214420319 0.111868694425
  endloop
endfacet
facet normal -1.0 0.0 0.0
  outer loop
    vertex 1.43051147461e-06 0.875000178814 0.208858594298
    vertex 1.43051147461e-06 0.739214420319 0.111868694425
    vertex 1.43051147461e-06 0.739214420319 0.208858594298
  endloop
endfacet
facet normal -1.0 7.68181109834e-07 -1.07545270112e-06
  outer loop
    vertex 1.43051147461e-06 0.875000178814 0.111868694425
    vertex 1.63912761764e-06 0.875000238419 0.0148787926883
    vertex 1.43051147461e-06 0.739214420319 0.0148787926883
  endloop
endfacet
facet normal -1.0 7.68181109834e-07 -1.07545270112e-06
  outer loop
    vertex 1.43051147461e-06 0.875000178814 0.111868694425
    vertex 1.43051147461e-06 0.739214420319 0.0148787926883
    vertex 1.43051147461e-06 0.739214420319 0.111868694425
  endloop
endfacet
endsolid
