M48
INCH
T01C0.019
T02C0.035
T03C0.0354
T04C0.038
T05C0.063
T06C0.067
T07C0.095
T08C0.11
T09C0.12
%
T01
X+027815Y+037000
X+027565Y+036625
X+027065Y+036625
X+026565Y+036625
X+026065Y+036625
X+025815Y+037000
X+026065Y+037375
X+026565Y+037375
X+027065Y+037375
X+027565Y+037375
X+028780Y+038090
X+028190Y+038690
X+027540Y+038910
X+026014Y+039076
X+025510Y+038670
X+024960Y+038090
X+025315Y+034690
X+025775Y+034665
X+026503Y+033440
X+028190Y+035080
X+028628Y+034877
X+031252Y+033190
X+028270Y+030220
X+028753Y+029630
X+027565Y+028875
X+027815Y+028500
X+027565Y+028125
X+027065Y+028125
X+026565Y+028125
X+026065Y+028125
X+025815Y+028500
X+026065Y+028875
X+026565Y+028875
X+027065Y+028875
X+027550Y+030510
X+026014Y+030794
X+025540Y+030220
X+025040Y+029630
X+025500Y+026250
X+026014Y+026246
X+026440Y+024940
X+028480Y+024580
X+028350Y+026530
X+028620Y+026860
X+031503Y+024752
X+032190Y+024690
X+028390Y+021720
X+028815Y+021127
X+027565Y+020375
X+027815Y+020000
X+027565Y+019625
X+027065Y+019625
X+026565Y+019625
X+026065Y+019625
X+025815Y+020000
X+026065Y+020375
X+026565Y+020375
X+027065Y+020375
X+027740Y+022130
X+025940Y+022315
X+025502Y+021815
X+025003Y+021127
X+025253Y+017752
X+025815Y+017690
X+026440Y+016252
X+028342Y+018162
X+028753Y+017878
X+031565Y+016252
X+028315Y+013002
X+028878Y+012433
X+027565Y+011750
X+027815Y+011375
X+027565Y+011000
X+027065Y+011000
X+026565Y+011000
X+026065Y+011000
X+025815Y+011375
X+026065Y+011750
X+026565Y+011750
X+027065Y+011750
X+027549Y+013429
X+026014Y+013514
X+025460Y+013020
X+024940Y+012433
X+022628Y+015065
X+021660Y+015840
X+015440Y+016627
X+014003Y+017002
X+010190Y+018815
X+008128Y+021315
X+011503Y+023690
X+011815Y+024002
X+012253Y+023377
X+011878Y+023127
X+013440Y+023378
X+013440Y+023877
X+014590Y+024480
X+015003Y+024315
X+015346Y+024534
X+015180Y+025940
X+016350Y+025940
X+016787Y+026530
X+016378Y+026940
X+015940Y+027065
X+014850Y+027250
X+014270Y+027250
X+013815Y+027190
X+013810Y+025940
X+014580Y+028315
X+016880Y+027710
X+017680Y+028660
X+019065Y+028315
X+019060Y+027350
X+018000Y+026600
X+018565Y+024435
X+017920Y+024360
X+018060Y+023920
X+018315Y+023565
X+016880Y+023390
X+016910Y+024020
X+016350Y+022980
X+016440Y+022065
X+015628Y+022002
X+015315Y+022252
X+014940Y+022002
X+014628Y+021690
X+014340Y+022010
X+013626Y+022010
X+009940Y+026565
X+010815Y+027752
X+010753Y+028190
X+011128Y+028565
X+011065Y+029315
X+012065Y+028315
X+011378Y+027752
X+017440Y+033065
X+016190Y+034440
X+015503Y+035315
X+016190Y+037877
X+016190Y+038940
X+020315Y+038565
X+020315Y+038190
X+020315Y+037815
X+020315Y+037440
X+020315Y+037065
X+020315Y+036690
X+020315Y+036315
X+020315Y+035940
X+021508Y+033065
X+022626Y+032125
X+021390Y+024540
X+022690Y+023690
X+014220Y+012502
X+013815Y+011752
X+014253Y+009550
X+015128Y+009377
X+015260Y+008950
X+014753Y+008565
X+014753Y+006065
X+010751Y+007440
X+011253Y+008940
X+011260Y+009970
X+011253Y+010940
X+006378Y+009127
X+022378Y+006377
X+025110Y+008780
X+026014Y+008746
X+026503Y+007627
X+028628Y+007252
X+028750Y+009020
X+028390Y+009320
X+042753Y+009502
X+043503Y+009627
X+043878Y+009377
X+045503Y+011252
X+044753Y+012190
X+044176Y+012190
X+042315Y+013065
X+042431Y+014190
X+042399Y+016211
X+044065Y+029940
X+043690Y+030190
X+043003Y+030065
X+044440Y+032627
X+045003Y+032627
X+045690Y+031779
X+042378Y+033377
X+042503Y+034440
X+042440Y+036440
T02
X+026815Y+037000
X+027315Y+037000
X+026315Y+037000
X+028690Y+033190
X+027315Y+028500
X+026815Y+028500
X+026315Y+028500
X+029003Y+024752
X+027315Y+020000
X+026815Y+020000
X+026315Y+020000
X+028690Y+016252
X+027315Y+011375
X+026815Y+011375
X+026315Y+011375
X+029065Y+007627
T03
X+004815Y+026502
X+005815Y+026502
X+005815Y+025502
X+005815Y+024502
X+004815Y+024502
X+004815Y+025502
X+008190Y+025502
X+009190Y+025502
X+009190Y+024502
X+008190Y+024502
X+008190Y+023502
X+009190Y+023502
X+009190Y+022502
X+008190Y+022502
X+008628Y+020127
X+007628Y+020127
X+007628Y+019127
X+008628Y+019127
X+008628Y+018127
X+007628Y+018127
X+007628Y+017127
X+008628Y+017127
X+008628Y+016127
X+007628Y+016127
X+007628Y+015127
X+008628Y+015127
X+008628Y+014127
X+007628Y+014127
X+007628Y+013127
X+008628Y+013127
X+013065Y+013127
X+013065Y+014127
X+013065Y+015127
X+013065Y+016127
X+016065Y+016127
X+016065Y+015127
X+016065Y+014127
X+016065Y+013127
X+017690Y+012690
X+017690Y+013690
X+018690Y+013690
X+018690Y+014690
X+017690Y+014690
X+017690Y+015690
X+017690Y+016690
X+017690Y+017690
X+018690Y+017690
X+018690Y+016690
X+018690Y+015690
X+018690Y+018690
X+018690Y+019690
X+018690Y+020690
X+017690Y+020690
X+017690Y+019690
X+017690Y+018690
X+018690Y+012690
X+018690Y+011690
X+018690Y+010690
X+017690Y+010690
X+017690Y+009690
X+018690Y+009690
X+018690Y+008690
X+017690Y+008690
X+017690Y+011690
X+032315Y+007253
X+032315Y+006253
X+032315Y+005253
X+033874Y+005252
X+033874Y+006252
X+033874Y+007252
X+036900Y+009030
X+036900Y+010030
X+036900Y+011030
X+036900Y+012030
X+036900Y+013030
X+036900Y+014030
X+036900Y+016225
X+036900Y+017225
X+036900Y+018225
X+036900Y+019225
X+036900Y+020225
X+036900Y+021225
X+037238Y+022685
X+037238Y+023685
X+038238Y+023685
X+036238Y+023685
X+036900Y+025965
X+036900Y+026965
X+036900Y+027965
X+036900Y+028965
X+036900Y+029965
X+036900Y+030965
X+036900Y+033090
X+036900Y+034090
X+036900Y+035090
X+036900Y+036090
X+036900Y+037090
X+036900Y+038090
X+044190Y+038440
X+045190Y+038440
X+045190Y+037440
X+044190Y+037440
X+044190Y+036440
X+045190Y+036440
X+045190Y+035440
X+044190Y+035440
X+044190Y+034440
X+045190Y+034440
X+045190Y+033440
X+044190Y+033440
X+044190Y+039440
X+044190Y+040440
X+045190Y+040440
X+045190Y+039440
X+044940Y+019940
X+043940Y+019940
X+043940Y+018940
X+044940Y+018940
X+044940Y+017940
X+043940Y+017940
X+043940Y+016940
X+044940Y+016940
X+044940Y+015940
X+043940Y+015940
X+043940Y+014940
X+044940Y+014940
X+044940Y+013940
X+043940Y+013940
X+043940Y+012940
X+044940Y+012940
X+009190Y+026502
X+008190Y+026502
T04
X+016253Y+006065
X+016253Y+005065
X+020253Y+005065
X+020253Y+006065
X+026815Y+005253
X+030815Y+005253
T05
X+034568Y+033248
X+034568Y+034838
X+034568Y+036398
X+034568Y+037958
X+034565Y+030835
X+034565Y+029275
X+034565Y+027715
X+034565Y+026125
X+034570Y+021093
X+034570Y+019533
X+034570Y+017973
X+034570Y+016383
X+034570Y+013898
X+034570Y+012338
X+034570Y+010778
X+034570Y+009188
T06
X+009898Y+037221
X+009898Y+035221
X+009898Y+033221
X+009898Y+031221
T07
X+008898Y+038221
X+008898Y+030221
T08
X+005940Y+039690
X+037440Y+039690
X+035940Y+005940
X+007440Y+005940
T09
X+005398Y+036221
X+005398Y+032221
T00
M30
