G04 DipTrace 2.1.0.0*
%INTop Mask.gbr*%
%MOIN*%
%ADD10C,0.01*%
%ADD11C,0.006*%
%ADD12C,0.003*%
%ADD13C,0.016*%
%ADD14C,0.008*%
%ADD15C,0.039*%
%ADD16C,0.012*%
%ADD17C,0.02*%
%ADD18C,0.06*%
%ADD19C,0.15*%
%ADD20C,0.05*%
%ADD21C,0.125*%
%ADD22C,0.1*%
%ADD23C,0.025*%
%ADD24C,0.013*%
%ADD25R,0.1063X0.063*%
%ADD26R,0.0591X0.0512*%
%ADD27R,0.0512X0.0591*%
%ADD28R,0.063X0.1063*%
%ADD29R,0.05X0.06*%
%ADD30R,0.06X0.05*%
%ADD31R,0.1X0.1*%
%ADD32R,0.0591X0.0591*%
%ADD33C,0.0591*%
%ADD34R,0.0827X0.0197*%
%ADD35R,0.0827X0.0591*%
%ADD36R,0.125X0.125*%
%ADD37C,0.1*%
%ADD38R,0.06X0.06*%
%ADD39R,0.071X0.14*%
%ADD40R,0.0551X0.0177*%
%ADD41R,0.0177X0.0551*%
%ADD42R,0.04X0.025*%
%ADD43R,0.012X0.065*%
%ADD44R,0.0827X0.0157*%
%ADD45R,0.09X0.056*%
%ADD46R,0.1X0.056*%
%ADD47R,0.0197X0.0827*%
%ADD48R,0.0591X0.0827*%
%ADD49R,0.0157X0.0827*%
%ADD50C,0.031*%
%ADD51C,0.019*%
%ADD52C,0.035*%
%ADD53C,0.095*%
%ADD54C,0.12*%
%ADD55C,0.11*%
%ADD56C,0.067*%
%ADD57C,0.0354*%
%ADD58C,0.063*%
%ADD59C,0.038*%
%ADD60C,0.023*%
%ADD61C,0.058*%
%ADD62C,0.042*%
%ADD63R,0.0237X0.0907*%
%ADD64R,0.0077X0.0747*%
%ADD65R,0.0671X0.0907*%
%ADD66R,0.0511X0.0747*%
%ADD67R,0.0277X0.0907*%
%ADD68R,0.0117X0.0747*%
%ADD69R,0.108X0.064*%
%ADD70R,0.092X0.048*%
%ADD71R,0.098X0.064*%
%ADD72R,0.082X0.048*%
%ADD73R,0.0907X0.0237*%
%ADD74R,0.0747X0.0077*%
%ADD75R,0.02X0.073*%
%ADD76R,0.004X0.057*%
%ADD77R,0.048X0.033*%
%ADD78R,0.032X0.017*%
%ADD79R,0.0257X0.0631*%
%ADD80R,0.0097X0.0471*%
%ADD81R,0.0631X0.0257*%
%ADD82R,0.0471X0.0097*%
%ADD83R,0.079X0.148*%
%ADD84R,0.063X0.132*%
%ADD85R,0.068X0.068*%
%ADD86R,0.052X0.052*%
%ADD87C,0.068*%
%ADD88C,0.052*%
%ADD89C,0.108*%
%ADD90C,0.092*%
%ADD91R,0.133X0.133*%
%ADD92R,0.117X0.117*%
%ADD93R,0.0907X0.0671*%
%ADD94R,0.0747X0.0511*%
%ADD95R,0.0907X0.0277*%
%ADD96R,0.0747X0.0117*%
%ADD97C,0.0671*%
%ADD98C,0.0511*%
%ADD99R,0.0671X0.0671*%
%ADD100R,0.0511X0.0511*%
%ADD101C,0.108*%
%ADD102C,0.092*%
%ADD103R,0.108X0.108*%
%ADD104R,0.092X0.092*%
%ADD105R,0.068X0.058*%
%ADD106R,0.052X0.042*%
%ADD107R,0.058X0.068*%
%ADD108R,0.042X0.052*%
%ADD109R,0.071X0.1143*%
%ADD110R,0.055X0.0983*%
%ADD111R,0.0592X0.0671*%
%ADD112R,0.0432X0.0511*%
%ADD113R,0.0671X0.0592*%
%ADD114R,0.0511X0.0432*%
%ADD115R,0.1143X0.071*%
%ADD116R,0.0983X0.055*%
%ADD117C,0.0062*%
%ADD118C,0.0124*%
%ADD119C,0.0077*%
%FSLAX44Y44*%
%SFA1B1*%
%OFA0B0*%
G04*
G70*
G90*
G75*
G01*
%LNTopMask*%
%LPD*%
D15*
X11065Y29315D3*
X20315Y37065D3*
X15503Y35315D3*
X10190Y18815D3*
X6378Y9127D3*
X14003Y17002D3*
X10190Y18815D3*
X28480Y24580D3*
X32190Y24690D3*
X24960Y38090D3*
X25040Y29630D3*
X28753D3*
X25040D3*
X28815Y21127D3*
X25003D3*
X28878Y12433D3*
X24940D3*
X28815Y21127D3*
X28780Y38090D3*
X24960D3*
X12253Y23377D3*
X14753Y6065D3*
Y8565D3*
X8128Y21315D3*
X14753Y8565D3*
Y6065D3*
X26503Y33440D3*
D61*
X28690Y33190D3*
D15*
X31252D3*
X26440Y24940D3*
D61*
X29003Y24752D3*
D15*
X31503D3*
X26503Y7627D3*
D61*
X29065D3*
D15*
X26440Y16252D3*
D61*
X28690D3*
D15*
X31565D3*
X25775Y34665D3*
X26014Y39076D3*
X11503Y23690D3*
X11815Y24002D3*
X11878Y23127D3*
X25815Y17690D3*
X13815Y27190D3*
X14270Y27250D3*
X26014Y30794D3*
X45690Y31779D3*
X26014Y26246D3*
X13815Y11752D3*
X14253Y9550D3*
X26014Y8746D3*
X25940Y22315D3*
X15128Y9377D3*
X11260Y9970D3*
X15260Y8950D3*
X11253Y8940D3*
X13810Y25940D3*
X14340Y22010D3*
X16350Y22980D3*
X13626Y22010D3*
X28190Y38690D3*
X25510Y38670D3*
X28270Y30220D3*
X25540D3*
X28390Y21720D3*
X25502Y21815D3*
X28315Y13002D3*
X25460Y13020D3*
X16350Y25940D3*
X15180D3*
X10751Y7440D3*
X11253Y10940D3*
X14220Y12502D3*
X25510Y38670D3*
X28628Y7252D3*
X21508Y33065D3*
X17440D3*
X22378Y6377D3*
X25460Y13020D3*
X21660Y15840D3*
X21390Y24540D3*
X18565Y24435D3*
X44065Y29940D3*
X42378Y33377D3*
X43690Y30190D3*
X42440Y36440D3*
X45503Y11252D3*
X26014Y13514D3*
X43878Y9377D3*
X42315Y13065D3*
X43503Y9627D3*
X42399Y16211D3*
X44753Y12190D3*
X45003Y32627D3*
X42503Y34440D3*
X44440Y32627D3*
X43003Y30065D3*
X42431Y14190D3*
X44176Y12190D3*
X42753Y9502D3*
X27540Y38910D3*
X11128Y28565D3*
X25315Y34690D3*
X12065Y28315D3*
X10753Y28190D3*
X16190Y34440D3*
Y37877D3*
Y38940D3*
X28628Y34877D3*
X11378Y27752D3*
X28190Y35080D3*
X10815Y27752D3*
X13440Y23877D3*
Y23378D3*
X27549Y13429D3*
X14628Y21690D3*
X25110Y8780D3*
X14940Y22002D3*
X22628Y15065D3*
X15315Y22252D3*
X28750Y9020D3*
X15628Y22002D3*
X28390Y9320D3*
X16440Y22065D3*
X15440Y16627D3*
X27740Y22130D3*
X18315Y23565D3*
X25253Y17752D3*
X16880Y23390D3*
X22690Y23690D3*
X18060Y23920D3*
X28753Y17878D3*
X16910Y24020D3*
X28342Y18162D3*
X17920Y24360D3*
X15346Y24534D3*
X15003Y24315D3*
X14590Y24480D3*
X27550Y30510D3*
X18000Y26600D3*
X25500Y26250D3*
X16787Y26530D3*
X22626Y32125D3*
X17680Y28660D3*
X28620Y26860D3*
X16880Y27710D3*
X28350Y26530D3*
X16378Y26940D3*
X9940Y26565D3*
X15940Y27065D3*
X14850Y27250D3*
X19060Y27350D3*
X14580Y28315D3*
X19065D3*
D61*
X26815Y37000D3*
X27315D3*
D15*
X27815D3*
D61*
X26815Y28500D3*
X26315Y37000D3*
D15*
X25815D3*
D61*
X27315Y28500D3*
D15*
X26565Y37375D3*
X27065D3*
X27565D3*
X27815Y28500D3*
X26065Y37375D3*
D61*
X26315Y28500D3*
D15*
X25815D3*
X26065Y36625D3*
X26565D3*
X27065D3*
X27565D3*
X27065Y28875D3*
X27565D3*
X26565D3*
X26065D3*
X26565Y28125D3*
X27065D3*
X27565D3*
X26065D3*
D61*
X26815Y20000D3*
X27315D3*
D15*
X27815D3*
D61*
X26315D3*
D15*
X25815D3*
X27065Y20375D3*
X27565D3*
X26565D3*
X26065D3*
Y19625D3*
X26565D3*
X27065D3*
X27565D3*
D61*
X26815Y11375D3*
X27315D3*
D15*
X27815D3*
D61*
X26315D3*
D15*
X25815D3*
X26565Y11750D3*
X27065D3*
X27565D3*
X26065D3*
X26565Y11000D3*
X27065D3*
X27565D3*
X26065D3*
X20315Y37440D3*
Y37815D3*
Y38190D3*
Y38565D3*
Y36690D3*
Y36315D3*
Y35940D3*
D115*
X13753Y35377D3*
Y36480D3*
X13851Y39511D3*
Y40613D3*
D113*
X15438Y36998D3*
Y36250D3*
D111*
X14626Y20062D3*
X13877D3*
D113*
X15441Y39626D3*
Y40374D3*
X18239Y22934D3*
Y22186D3*
D111*
X15138Y28625D3*
X15886D3*
X13189Y33374D3*
X13937D3*
X15874D3*
X15126D3*
X16941Y7627D3*
X17689D3*
X15566Y11751D3*
X16314D3*
X10002Y11939D3*
X10750D3*
D113*
X16000Y17446D3*
Y18194D3*
D109*
X24441Y39090D3*
X23339D3*
X29339D3*
X30441D3*
D113*
X27693Y40066D3*
Y40814D3*
X26747Y40066D3*
Y40814D3*
X25875D3*
Y40066D3*
X23965Y33078D3*
Y33827D3*
X25692Y33078D3*
Y33827D3*
X27778Y33078D3*
Y33827D3*
D109*
X24441Y30590D3*
X23339D3*
X29339D3*
X30441D3*
D113*
X27880Y31373D3*
Y32122D3*
X26935Y31373D3*
Y32122D3*
X25937D3*
Y31373D3*
X23970Y24556D3*
Y25304D3*
X25690Y24556D3*
Y25304D3*
X27900Y24556D3*
Y25304D3*
D109*
X24441Y22090D3*
X23339D3*
X29339D3*
X30441D3*
D113*
X27880Y22911D3*
Y23659D3*
X26930Y22911D3*
Y23659D3*
X25940D3*
Y22911D3*
X23970Y15866D3*
Y16614D3*
X25690Y15866D3*
Y16614D3*
X27010Y15866D3*
Y16614D3*
D109*
X24441Y13390D3*
X23339D3*
X29339D3*
X30441D3*
D113*
X27880Y14246D3*
Y14994D3*
X26930Y14246D3*
Y14994D3*
X25940D3*
Y14246D3*
X23970Y6966D3*
Y7714D3*
X25690Y6966D3*
Y7714D3*
X27065Y6940D3*
Y7688D3*
D107*
X7750Y29063D3*
X8510D3*
X7750Y39620D3*
X8510D3*
X9993Y8877D3*
X10753D3*
X9993Y9940D3*
X10753D3*
D105*
X5565Y19310D3*
Y20070D3*
Y17525D3*
Y18285D3*
Y15720D3*
Y16480D3*
Y13935D3*
Y14695D3*
X38190Y35305D3*
Y36065D3*
Y28065D3*
Y28825D3*
Y18315D3*
Y19075D3*
Y11190D3*
Y11950D3*
D103*
X9898Y37221D3*
D101*
Y35221D3*
Y33221D3*
Y31221D3*
D53*
X8898Y38221D3*
Y30221D3*
D54*
X5398Y36221D3*
Y32221D3*
D99*
X4815Y26502D3*
D97*
X5815Y25502D3*
Y24502D3*
Y26502D3*
X4815Y25502D3*
Y24502D3*
D99*
X8190Y26502D3*
D97*
X9190D3*
X8190Y25502D3*
X9190D3*
X8190Y24502D3*
X9190D3*
X8190Y23502D3*
X9190D3*
X8190Y22502D3*
X9190D3*
D95*
X7065Y10065D3*
Y9752D3*
Y9440D3*
Y9127D3*
Y8815D3*
D93*
X6908Y7668D3*
X5215D3*
X6908Y11212D3*
X5215D3*
D99*
X32315Y5253D3*
D97*
Y6253D3*
Y7253D3*
D99*
X33874Y5252D3*
D97*
Y6252D3*
Y7252D3*
D99*
X17690Y20690D3*
D97*
X18690Y19690D3*
Y18690D3*
Y20690D3*
X17690Y19690D3*
Y18690D3*
D99*
Y17690D3*
D97*
X18690Y16690D3*
Y15690D3*
Y17690D3*
X17690Y16690D3*
Y15690D3*
D99*
Y14690D3*
D97*
X18690Y13690D3*
Y12690D3*
Y14690D3*
X17690Y13690D3*
Y12690D3*
D99*
Y11690D3*
D97*
X18690Y10690D3*
Y9690D3*
Y11690D3*
X17690Y10690D3*
Y9690D3*
D99*
Y8690D3*
D97*
X18690D3*
D99*
X7628Y20127D3*
D97*
X8628D3*
X7628Y19127D3*
X8628D3*
X7628Y18127D3*
X8628D3*
X7628Y17127D3*
X8628D3*
X7628Y16127D3*
X8628D3*
X7628Y15127D3*
X8628D3*
X7628Y14127D3*
X8628D3*
X7628Y13127D3*
X8628D3*
D91*
X34568Y33248D3*
D89*
Y34838D3*
Y36398D3*
Y37958D3*
D99*
X36900Y33090D3*
D97*
Y34090D3*
Y35090D3*
Y36090D3*
Y37090D3*
Y38090D3*
D91*
X34565Y26125D3*
D89*
Y27715D3*
Y29275D3*
Y30835D3*
D99*
X36900Y25965D3*
D97*
Y26965D3*
Y27965D3*
Y28965D3*
Y29965D3*
Y30965D3*
D91*
X34570Y16383D3*
D89*
Y17973D3*
Y19533D3*
Y21093D3*
D99*
X36900Y16225D3*
D97*
Y17225D3*
Y18225D3*
Y19225D3*
Y20225D3*
Y21225D3*
D91*
X34570Y9188D3*
D89*
Y10778D3*
Y12338D3*
Y13898D3*
D99*
X36900Y9030D3*
D97*
Y10030D3*
Y11030D3*
Y12030D3*
Y13030D3*
Y14030D3*
D99*
X38238Y23685D3*
D97*
X37238D3*
X36238D3*
X37238Y22685D3*
D111*
X9315Y29062D3*
X10063D3*
X9316Y39620D3*
X10064D3*
X5877Y22502D3*
X5129D3*
D113*
X13065Y18190D3*
Y17442D3*
X14003D3*
Y18190D3*
D111*
X10751Y7940D3*
X10003D3*
X10751Y10940D3*
X10003D3*
D113*
X21267Y7738D3*
Y6990D3*
D87*
X16253Y6065D3*
D85*
X20253D3*
D87*
X16253Y5065D3*
D85*
X20253D3*
D87*
X26815Y5253D3*
D85*
X30815D3*
D113*
X9753Y20065D3*
Y19317D3*
X10566Y20064D3*
Y19316D3*
X9753Y18314D3*
Y17566D3*
X10566Y18314D3*
Y17566D3*
X9753Y16564D3*
Y15816D3*
X10566Y16564D3*
Y15816D3*
X9753Y14627D3*
Y13878D3*
X10566Y14627D3*
Y13878D3*
X6440Y20064D3*
Y19316D3*
Y18279D3*
Y17531D3*
Y16474D3*
Y15726D3*
Y14689D3*
Y13941D3*
D83*
X22275Y35050D3*
X24475D3*
X31545Y35135D3*
X29345D3*
D113*
X22210Y33808D3*
Y33060D3*
X23070Y33818D3*
Y33070D3*
X24808Y33827D3*
Y33078D3*
X27015Y33827D3*
Y33078D3*
X29582Y33257D3*
Y32509D3*
X30432Y33266D3*
Y32517D3*
D83*
X22410Y26550D3*
X24610D3*
X31600Y26590D3*
X29400D3*
D113*
X22210Y25304D3*
Y24556D3*
X23070Y25304D3*
Y24556D3*
X24810Y25304D3*
Y24556D3*
X27010Y25304D3*
Y24556D3*
X29743Y24784D3*
Y24036D3*
X30580Y24784D3*
Y24036D3*
D83*
X22230Y18030D3*
X24430D3*
X31580Y18080D3*
X29380D3*
D113*
X22210Y16614D3*
Y15866D3*
X23070Y16614D3*
Y15866D3*
X24810Y16614D3*
Y15866D3*
X27900Y16614D3*
Y15866D3*
X29767Y16194D3*
Y15446D3*
X30617Y16194D3*
Y15446D3*
D83*
X22120Y9350D3*
X24320D3*
X31630Y9370D3*
X29430D3*
D113*
X22330Y7714D3*
Y6966D3*
X23180Y7714D3*
Y6966D3*
X24810Y7714D3*
Y6966D3*
X28065Y7690D3*
Y6942D3*
X29820Y7652D3*
Y6903D3*
X30710Y7652D3*
Y6903D3*
X38190Y37065D3*
Y37813D3*
Y30065D3*
Y30813D3*
Y20317D3*
Y21065D3*
Y13192D3*
Y13940D3*
D81*
X10860Y26862D3*
Y26547D3*
Y26232D3*
Y25917D3*
Y25602D3*
Y25287D3*
Y24972D3*
Y24657D3*
Y24343D3*
Y24028D3*
Y23713D3*
Y23398D3*
Y23083D3*
Y22768D3*
Y22453D3*
Y22138D3*
D79*
X11765Y21232D3*
X12080D3*
X12395D3*
X12710D3*
X13025D3*
X13340D3*
X13655D3*
X13970D3*
X14285D3*
X14600D3*
X14915D3*
X15230D3*
X15545D3*
X15860D3*
X16175D3*
X16490D3*
D81*
X17395Y22138D3*
Y22453D3*
Y22768D3*
Y23083D3*
Y23398D3*
Y23713D3*
Y24028D3*
Y24343D3*
Y24657D3*
Y24972D3*
Y25287D3*
Y25602D3*
Y25917D3*
Y26232D3*
Y26547D3*
Y26862D3*
D79*
X16490Y27768D3*
X16175D3*
X15860D3*
X15545D3*
X15230D3*
X14915D3*
X14600D3*
X14285D3*
X13970D3*
X13655D3*
X13340D3*
X13025D3*
X12710D3*
X12395D3*
X12080D3*
X11765D3*
D77*
X13684Y38410D3*
Y38032D3*
X14547Y38409D3*
X13684Y37647D3*
X14550Y37651D3*
D99*
X13065Y16127D3*
D97*
Y15127D3*
Y14127D3*
Y13127D3*
X16065D3*
Y14127D3*
Y15127D3*
Y16127D3*
D75*
X25250Y35910D3*
X25500D3*
X25758Y35907D3*
X26014D3*
X26270D3*
X26526D3*
X26782D3*
X27037D3*
X27293D3*
X27549D3*
X27805D3*
X28061D3*
X28317D3*
X28573D3*
Y38093D3*
X28317D3*
X28061D3*
X27805D3*
X27549D3*
X27290Y38090D3*
X27037Y38093D3*
X26782D3*
X26526D3*
X26270D3*
X26014D3*
X25758D3*
X25502D3*
X25250Y38090D3*
Y27460D3*
X25500D3*
X25758Y27457D3*
X26014D3*
X26270D3*
X26526D3*
X26782D3*
X27037D3*
X27293D3*
X27549D3*
X27805D3*
X28061D3*
X28317D3*
X28573D3*
Y29643D3*
X28317D3*
X28061D3*
X27805D3*
X27549D3*
X27290Y29640D3*
X27037Y29643D3*
X26782D3*
X26526D3*
X26270D3*
X26014D3*
X25758D3*
X25502D3*
X25250Y29640D3*
Y18960D3*
X25500D3*
X25758Y18957D3*
X26014D3*
X26270D3*
X26526D3*
X26782D3*
X27037D3*
X27293D3*
X27549D3*
X27805D3*
X28061D3*
X28317D3*
X28573D3*
Y21143D3*
X28317D3*
X28061D3*
X27805D3*
X27549D3*
X27290Y21140D3*
X27037Y21143D3*
X26782D3*
X26526D3*
X26270D3*
X26014D3*
X25758D3*
X25502D3*
X25250Y21140D3*
Y10250D3*
X25500D3*
X25758Y10247D3*
X26014D3*
X26270D3*
X26526D3*
X26782D3*
X27037D3*
X27293D3*
X27549D3*
X27805D3*
X28061D3*
X28317D3*
X28573D3*
Y12433D3*
X28317D3*
X28061D3*
X27805D3*
X27549D3*
X27290Y12430D3*
X27037Y12433D3*
X26782D3*
X26526D3*
X26270D3*
X26014D3*
X25758D3*
X25502D3*
X25250Y12430D3*
D73*
X13315Y10565D3*
Y10309D3*
Y10053D3*
Y9797D3*
Y9541D3*
Y9285D3*
Y9030D3*
Y8774D3*
Y8518D3*
Y8262D3*
Y8006D3*
Y7750D3*
Y7494D3*
Y7238D3*
X15992D3*
Y7494D3*
Y7750D3*
Y8006D3*
Y8262D3*
Y8518D3*
Y8774D3*
Y9030D3*
Y9285D3*
Y9541D3*
Y9797D3*
Y10053D3*
Y10309D3*
Y10565D3*
D71*
X13252Y30875D3*
X13232Y31997D3*
X15712Y32000D3*
D69*
X15629Y30897D3*
D111*
X41200Y40410D3*
X41948D3*
X41190Y39440D3*
X41938D3*
X41200Y38410D3*
X41948D3*
D107*
X41192Y36940D3*
X41952D3*
X41192Y33940D3*
X41952D3*
D67*
X42835Y27503D3*
X43148D3*
X43460D3*
X43773D3*
X44085D3*
D65*
X45232Y27346D3*
Y25653D3*
X41688Y27346D3*
Y25653D3*
D99*
X44190Y40440D3*
D97*
X45190D3*
X44190Y39440D3*
X45190D3*
X44190Y38440D3*
X45190D3*
X44190Y37440D3*
X45190D3*
X44190Y36440D3*
X45190D3*
X44190Y35440D3*
X45190D3*
X44190Y34440D3*
X45190D3*
X44190Y33440D3*
X45190D3*
D111*
X41190Y19910D3*
X41938D3*
X41190Y18910D3*
X41938D3*
X41940Y35940D3*
X41192D3*
X41940Y34940D3*
X41192D3*
D63*
X45166Y31779D3*
X44910D3*
X44654D3*
X44398D3*
X44142D3*
X43886D3*
X43630D3*
X43375D3*
X43119D3*
X42863D3*
X42607D3*
X42351D3*
X42095D3*
X41839D3*
Y29101D3*
X42095D3*
X42351D3*
X42607D3*
X42863D3*
X43119D3*
X43375D3*
X43630D3*
X43886D3*
X44142D3*
X44398D3*
X44654D3*
X44910D3*
X45166D3*
D111*
X41190Y17910D3*
X41938D3*
D107*
X41190Y16660D3*
X41950D3*
X41190Y13660D3*
X41950D3*
D67*
X42685Y7003D3*
X42998D3*
X43310D3*
X43623D3*
X43935D3*
D65*
X45082Y6846D3*
Y5153D3*
X41538Y6846D3*
Y5153D3*
D99*
X43940Y19940D3*
D97*
X44940D3*
X43940Y18940D3*
X44940D3*
X43940Y17940D3*
X44940D3*
X43940Y16940D3*
X44940D3*
X43940Y15940D3*
X44940D3*
X43940Y14940D3*
X44940D3*
X43940Y13940D3*
X44940D3*
X43940Y12940D3*
X44940D3*
D111*
X41938Y15660D3*
X41190D3*
X41938Y14660D3*
X41190D3*
D63*
X44943Y11279D3*
X44687D3*
X44432D3*
X44176D3*
X43920D3*
X43664D3*
X43408D3*
X43152D3*
X42896D3*
X42640D3*
X42384D3*
X42128D3*
X41873D3*
X41617D3*
Y8601D3*
X41873D3*
X42128D3*
X42384D3*
X42640D3*
X42896D3*
X43152D3*
X43408D3*
X43664D3*
X43920D3*
X44176D3*
X44432D3*
X44687D3*
X44943D3*
D55*
X5940Y39690D3*
X35940Y5940D3*
X7440D3*
X37440Y39690D3*
M02*
