G04 DipTrace 2.1.0.0*
%INTop Assy.gbr*%
%MOIN*%
%ADD10C,0.01*%
%ADD11C,0.006*%
%ADD12C,0.003*%
%ADD13C,0.016*%
%ADD14C,0.008*%
%ADD15C,0.039*%
%ADD16C,0.012*%
%ADD17C,0.02*%
%ADD18C,0.06*%
%ADD19C,0.15*%
%ADD20C,0.05*%
%ADD21C,0.125*%
%ADD22C,0.1*%
%ADD23C,0.025*%
%ADD24C,0.013*%
%ADD25R,0.1063X0.063*%
%ADD26R,0.0591X0.0512*%
%ADD27R,0.0512X0.0591*%
%ADD28R,0.063X0.1063*%
%ADD29R,0.05X0.06*%
%ADD30R,0.06X0.05*%
%ADD31R,0.1X0.1*%
%ADD32R,0.0591X0.0591*%
%ADD33C,0.0591*%
%ADD34R,0.0827X0.0197*%
%ADD35R,0.0827X0.0591*%
%ADD36R,0.125X0.125*%
%ADD37C,0.1*%
%ADD38R,0.06X0.06*%
%ADD39R,0.071X0.14*%
%ADD40R,0.0551X0.0177*%
%ADD41R,0.0177X0.0551*%
%ADD42R,0.04X0.025*%
%ADD43R,0.012X0.065*%
%ADD44R,0.0827X0.0157*%
%ADD45R,0.09X0.056*%
%ADD46R,0.1X0.056*%
%ADD47R,0.0197X0.0827*%
%ADD48R,0.0591X0.0827*%
%ADD49R,0.0157X0.0827*%
%ADD50C,0.031*%
%ADD51C,0.019*%
%ADD52C,0.035*%
%ADD53C,0.095*%
%ADD54C,0.12*%
%ADD55C,0.11*%
%ADD56C,0.067*%
%ADD57C,0.0354*%
%ADD58C,0.063*%
%ADD59C,0.038*%
%ADD60C,0.023*%
%ADD61C,0.058*%
%ADD62C,0.042*%
%ADD63R,0.0237X0.0907*%
%ADD64R,0.0077X0.0747*%
%ADD65R,0.0671X0.0907*%
%ADD66R,0.0511X0.0747*%
%ADD67R,0.0277X0.0907*%
%ADD68R,0.0117X0.0747*%
%ADD69R,0.108X0.064*%
%ADD70R,0.092X0.048*%
%ADD71R,0.098X0.064*%
%ADD72R,0.082X0.048*%
%ADD73R,0.0907X0.0237*%
%ADD74R,0.0747X0.0077*%
%ADD75R,0.02X0.073*%
%ADD76R,0.004X0.057*%
%ADD77R,0.048X0.033*%
%ADD78R,0.032X0.017*%
%ADD79R,0.0257X0.0631*%
%ADD80R,0.0097X0.0471*%
%ADD81R,0.0631X0.0257*%
%ADD82R,0.0471X0.0097*%
%ADD83R,0.079X0.148*%
%ADD84R,0.063X0.132*%
%ADD85R,0.068X0.068*%
%ADD86R,0.052X0.052*%
%ADD87C,0.068*%
%ADD88C,0.052*%
%ADD89C,0.108*%
%ADD90C,0.092*%
%ADD91R,0.133X0.133*%
%ADD92R,0.117X0.117*%
%ADD93R,0.0907X0.0671*%
%ADD94R,0.0747X0.0511*%
%ADD95R,0.0907X0.0277*%
%ADD96R,0.0747X0.0117*%
%ADD97C,0.0671*%
%ADD98C,0.0511*%
%ADD99R,0.0671X0.0671*%
%ADD100R,0.0511X0.0511*%
%ADD101C,0.108*%
%ADD102C,0.092*%
%ADD103R,0.108X0.108*%
%ADD104R,0.092X0.092*%
%ADD105R,0.068X0.058*%
%ADD106R,0.052X0.042*%
%ADD107R,0.058X0.068*%
%ADD108R,0.042X0.052*%
%ADD109R,0.071X0.1143*%
%ADD110R,0.055X0.0983*%
%ADD111R,0.0592X0.0671*%
%ADD112R,0.0432X0.0511*%
%ADD113R,0.0671X0.0592*%
%ADD114R,0.0511X0.0432*%
%ADD115R,0.1143X0.071*%
%ADD116R,0.0983X0.055*%
%ADD117C,0.0062*%
%ADD118C,0.0124*%
%ADD119C,0.0077*%
%FSLAX44Y44*%
%SFA1B1*%
%OFA0B0*%
G04*
G70*
G90*
G75*
G01*
%LNTopAssy*%
%LPD*%
X14245Y35885D2*
D10*
X13260D1*
X14245Y35811D2*
X13260D1*
X14245D2*
Y36046D1*
X13260Y35811D2*
Y36046D1*
X14343Y40019D2*
X13359D1*
X14343Y39945D2*
X13359D1*
X14343D2*
Y40180D1*
X13359Y39945D2*
Y40180D1*
X15182Y37372D2*
X15694D1*
X15000Y20318D2*
Y19807D1*
X15697Y39252D2*
X15185D1*
X17983Y23308D2*
X18495D1*
X14763Y28369D2*
Y28881D1*
X12815Y33119D2*
Y33630D1*
X16248D2*
Y33119D1*
X16567Y7371D2*
Y7882D1*
X15192Y11496D2*
Y12007D1*
X9628Y11683D2*
Y12195D1*
X16256Y17072D2*
X15744D1*
X23933Y39582D2*
Y38598D1*
X24008Y39582D2*
Y38598D1*
Y39582D2*
X23772D1*
X24008Y38598D2*
X23772D1*
X29847D2*
Y39582D1*
X29772Y38598D2*
Y39582D1*
Y38598D2*
X30008D1*
X29772Y39582D2*
X30008D1*
X27948Y39692D2*
X27437D1*
X27003D2*
X26492D1*
X25619Y41188D2*
X26131D1*
X24221Y32704D2*
X23709D1*
X25948D2*
X25437D1*
X28033D2*
X27522D1*
X23933Y31082D2*
Y30098D1*
X24008Y31082D2*
Y30098D1*
Y31082D2*
X23772D1*
X24008Y30098D2*
X23772D1*
X29847D2*
Y31082D1*
X29772Y30098D2*
Y31082D1*
Y30098D2*
X30008D1*
X29772Y31082D2*
X30008D1*
X28136Y30999D2*
X27624D1*
X27191D2*
X26679D1*
X25682Y32496D2*
X26193D1*
X24226Y24182D2*
X23714D1*
X25946D2*
X25434D1*
X28156D2*
X27644D1*
X23933Y22582D2*
Y21598D1*
X24008Y22582D2*
Y21598D1*
Y22582D2*
X23772D1*
X24008Y21598D2*
X23772D1*
X29847D2*
Y22582D1*
X29772Y21598D2*
Y22582D1*
Y21598D2*
X30008D1*
X29772Y22582D2*
X30008D1*
X28136Y22537D2*
X27624D1*
X27186D2*
X26674D1*
X25684Y24033D2*
X26196D1*
X24226Y15492D2*
X23714D1*
X25946D2*
X25434D1*
X27266D2*
X26754D1*
X23933Y13882D2*
Y12898D1*
X24008Y13882D2*
Y12898D1*
Y13882D2*
X23772D1*
X24008Y12898D2*
X23772D1*
X29847D2*
Y13882D1*
X29772Y12898D2*
Y13882D1*
Y12898D2*
X30008D1*
X29772Y13882D2*
X30008D1*
X28136Y13872D2*
X27624D1*
X27186D2*
X26674D1*
X25684Y15368D2*
X26196D1*
X24226Y6592D2*
X23714D1*
X25946D2*
X25434D1*
X27321Y6566D2*
X26809D1*
X7640Y28713D2*
X7430D1*
Y29413D1*
X7640D1*
Y39270D2*
X7430D1*
Y39970D1*
X7640D1*
X9883Y8527D2*
X9673D1*
Y9227D1*
X9883D1*
Y9590D2*
X9673D1*
Y10290D1*
X9883D1*
X5915Y19200D2*
Y18990D1*
X5215D1*
Y19200D1*
X5915Y17415D2*
Y17205D1*
X5215D1*
Y17415D1*
X5915Y15610D2*
Y15400D1*
X5215D1*
Y15610D1*
X5915Y13825D2*
Y13615D1*
X5215D1*
Y13825D1*
X38540Y35195D2*
Y34985D1*
X37840D1*
Y35195D1*
X38540Y27955D2*
Y27745D1*
X37840D1*
Y27955D1*
X38540Y18205D2*
Y17995D1*
X37840D1*
Y18205D1*
X38540Y11080D2*
Y10870D1*
X37840D1*
Y11080D1*
X9148Y30222D2*
X11460D1*
X8398Y37472D2*
Y30971D1*
X9148Y38221D2*
X11398D1*
Y30222D1*
X9148Y38221D2*
X8397Y37471D1*
X9148Y30222D2*
X8397Y30972D1*
X5315Y23940D2*
X6315D1*
X4315Y27003D2*
X6315D1*
Y23940D1*
X4377D2*
X5377D1*
X4315Y27003D2*
Y23940D1*
X7690Y27002D2*
Y22002D1*
X9690Y27002D2*
Y22002D1*
X7690Y27002D2*
X9690D1*
X7690Y22002D2*
X9690D1*
X6440Y11253D2*
X5690D1*
X4752Y11190D2*
Y7690D1*
X5690Y7627D2*
X6440D1*
X31795Y7803D2*
X32795D1*
X32825Y7783D2*
X32815Y4773D1*
X31815D2*
X32815D1*
X31815Y5523D2*
Y4773D1*
Y7833D2*
Y5523D1*
X33354Y7802D2*
X34354D1*
X34384Y7782D2*
X34374Y4772D1*
X33374D2*
X34374D1*
X33374Y5522D2*
Y4772D1*
Y7832D2*
Y5522D1*
X18190Y18127D2*
X19190D1*
X17190Y21190D2*
X19190D1*
Y18127D1*
X17252D2*
X18252D1*
X17190Y21190D2*
Y18127D1*
X18190Y15127D2*
X19190D1*
X17190Y18190D2*
X19190D1*
Y15127D1*
X17252D2*
X18252D1*
X17190Y18190D2*
Y15127D1*
X18190Y12127D2*
X19190D1*
X17190Y15190D2*
X19190D1*
Y12127D1*
X17252D2*
X18252D1*
X17190Y15190D2*
Y12127D1*
X18190Y9128D2*
X19190D1*
X17190Y12190D2*
X19190D1*
Y9128D1*
X17252D2*
X18252D1*
X17190Y12190D2*
Y9128D1*
X19190Y8190D2*
Y9190D1*
X17190Y8190D2*
X19190D1*
X17190D2*
Y9190D1*
X19190D1*
X7128Y12627D2*
X9128D1*
X7128Y20627D2*
X9128D1*
X7128D2*
Y12627D1*
X9128Y20627D2*
Y12627D1*
X35568Y38778D2*
X33568D1*
X35568Y32278D2*
Y38778D1*
Y32278D2*
X33568Y32246D1*
Y32278D2*
Y38778D1*
X37400Y38590D2*
X36400D1*
X37400Y32590D2*
Y38590D1*
Y32590D2*
X36400D1*
Y33340D1*
Y38590D1*
X35565Y31655D2*
X33565D1*
X35565Y25155D2*
Y31655D1*
Y25155D2*
X33565Y25124D1*
Y25155D2*
Y31655D1*
X37400Y31465D2*
X36400D1*
X37400Y25465D2*
Y31465D1*
Y25465D2*
X36400D1*
Y26215D1*
Y31465D1*
X35570Y21912D2*
X33570D1*
X35570Y15413D2*
Y21912D1*
Y15413D2*
X33570Y15381D1*
Y15413D2*
Y21912D1*
X37400Y21725D2*
X36400D1*
X37400Y15725D2*
Y21725D1*
Y15725D2*
X36400D1*
Y16475D1*
Y21725D1*
X35570Y14718D2*
X33570D1*
X35570Y8218D2*
Y14718D1*
Y8218D2*
X33570Y8186D1*
Y8218D2*
Y14718D1*
X37400Y14530D2*
X36400D1*
X37400Y8530D2*
Y14530D1*
Y8530D2*
X36400D1*
Y9280D1*
Y14530D1*
X35688Y22243D2*
Y24180D1*
X38718Y24185D1*
X38750Y22243D2*
Y24180D1*
X35688Y22243D2*
X38750D1*
X19251Y5565D2*
X17254D1*
Y6565D2*
Y5565D1*
X19251Y6565D2*
X17254D1*
X19251D2*
Y5565D1*
Y4565D2*
X17254D1*
Y5565D2*
Y4565D1*
X19251Y5565D2*
X17254D1*
X19251D2*
Y4565D1*
X29813Y4753D2*
X27817D1*
Y5753D2*
Y4753D1*
X29813Y5753D2*
X27817D1*
X29813D2*
Y4753D1*
X22744Y35641D2*
X24006D1*
X22744Y34459D2*
X24006D1*
X31076Y34544D2*
X29814D1*
X31076Y35726D2*
X29814D1*
X22879Y27141D2*
X24141D1*
X22879Y25959D2*
X24141D1*
X31131Y25999D2*
X29869D1*
X31131Y27181D2*
X29869D1*
X22699Y18621D2*
X23961D1*
X22699Y17439D2*
X23961D1*
X31111Y17489D2*
X29849D1*
X31111Y18671D2*
X29849D1*
X22589Y9941D2*
X23851D1*
X22589Y8759D2*
X23851D1*
X31161Y8779D2*
X29899D1*
X31161Y9961D2*
X29899D1*
X10910Y27165D2*
G02X10910Y27165I-50J0D01*
G01*
X11293Y21665D2*
Y27335D1*
Y21665D2*
X16962D1*
Y27335D1*
X11293D2*
X16962D1*
X13494Y38770D2*
G02X13494Y38770I0J-49D01*
G01*
X14920Y38728D2*
X14467D1*
X14920Y38550D2*
Y38728D1*
X14929Y37349D2*
X14478D1*
X14929D2*
Y37527D1*
X14314Y16793D2*
G03X14816Y16793I251J0D01*
G01*
X13520D2*
X14314D1*
X14816D2*
X15610D1*
X13520Y12462D2*
X15610D1*
X13520Y16793D2*
Y12462D1*
X15610Y16793D2*
Y12462D1*
X25019Y35909D2*
G02X25019Y35909I-49J0D01*
G01*
X24980Y36796D2*
G03X24980Y37204I0J204D01*
G01*
Y36390D2*
Y36796D1*
Y37204D2*
Y37610D1*
X28839Y36390D2*
Y37610D1*
X24980Y36390D2*
X28839D1*
X24980Y37610D2*
X28839D1*
X25019Y27459D2*
G02X25019Y27459I-49J0D01*
G01*
X24980Y28346D2*
G03X24980Y28754I0J204D01*
G01*
Y27940D2*
Y28346D1*
Y28754D2*
Y29160D1*
X28839Y27940D2*
Y29160D1*
X24980Y27940D2*
X28839D1*
X24980Y29160D2*
X28839D1*
X25019Y18959D2*
G02X25019Y18959I-49J0D01*
G01*
X24980Y19846D2*
G03X24980Y20254I0J204D01*
G01*
Y19440D2*
Y19846D1*
Y20254D2*
Y20660D1*
X28839Y19440D2*
Y20660D1*
X24980Y19440D2*
X28839D1*
X24980Y20660D2*
X28839D1*
X25019Y10249D2*
G02X25019Y10249I-49J0D01*
G01*
X24980Y11136D2*
G03X24980Y11544I0J204D01*
G01*
Y10730D2*
Y11136D1*
Y11544D2*
Y11950D1*
X28839Y10730D2*
Y11950D1*
X24980Y10730D2*
X28839D1*
X24980Y11950D2*
X28839D1*
X14396Y10939D2*
G03X14911Y10939I258J-3D01*
G01*
X13316Y10813D2*
G02X13316Y10813I0J49D01*
G01*
X15430Y10939D2*
Y6864D1*
X13877Y10939D2*
Y6864D1*
X15430D1*
X14911Y10939D2*
X15430D1*
X13877D2*
X14396D1*
X15981Y30417D2*
X12982D1*
Y32417D1*
X15981D1*
Y30417D1*
X40826Y40154D2*
Y40666D1*
X40816Y39184D2*
Y39696D1*
X40826Y38154D2*
Y38666D1*
X41082Y36590D2*
X40872D1*
Y37290D1*
X41082D1*
Y33590D2*
X40872D1*
Y34290D1*
X41082D1*
X41647Y26878D2*
Y26128D1*
X41710Y25190D2*
X45210D1*
X45273Y26128D2*
Y26878D1*
X43690Y32940D2*
X45690D1*
X43690Y40940D2*
X45690D1*
X43690D2*
Y32940D1*
X45690Y40940D2*
Y32940D1*
X40816Y19654D2*
Y20166D1*
Y18654D2*
Y19166D1*
X45540Y30698D2*
G03X45540Y30182I-3J-258D01*
G01*
X45414Y31778D2*
G02X45414Y31778I49J0D01*
G01*
X45540Y29663D2*
X41465D1*
X45540Y31217D2*
X41465D1*
Y29663D1*
X45540Y30182D2*
Y29663D1*
Y31217D2*
Y30698D1*
X40816Y17654D2*
Y18166D1*
X41080Y16310D2*
X40870D1*
Y17010D1*
X41080D1*
Y13310D2*
X40870D1*
Y14010D1*
X41080D1*
X41497Y6378D2*
Y5628D1*
X41560Y4690D2*
X45060D1*
X45123Y5628D2*
Y6378D1*
X43440Y12440D2*
X45440D1*
X43440Y20440D2*
X45440D1*
X43440D2*
Y12440D1*
X45440Y20440D2*
Y12440D1*
X45317Y10198D2*
G03X45317Y9682I-3J-258D01*
G01*
X45191Y11278D2*
G02X45191Y11278I49J0D01*
G01*
X45317Y9163D2*
X41243D1*
X45317Y10717D2*
X41243D1*
Y9163D1*
X45317Y9682D2*
Y9163D1*
Y10717D2*
Y10198D1*
X5358Y10753D2*
D118*
Y10294D1*
D2*
X5435D1*
D2*
X5512Y10332D1*
D2*
X5550Y10370D1*
D2*
X5588Y10447D1*
D2*
Y10562D1*
D2*
X5550Y10638D1*
D2*
X5473Y10715D1*
D2*
X5358Y10753D1*
D2*
X5282D1*
D2*
X5167Y10715D1*
D2*
X5091Y10638D1*
D2*
X5052Y10562D1*
D2*
Y10447D1*
D2*
X5091Y10370D1*
D2*
X5167Y10294D1*
X5856Y9588D2*
X5052D1*
X5473D2*
X5550Y9664D1*
D2*
X5588Y9741D1*
D2*
Y9856D1*
D2*
X5550Y9932D1*
D2*
X5473Y10009D1*
D2*
X5358Y10047D1*
D2*
X5282D1*
D2*
X5167Y10009D1*
D2*
X5091Y9932D1*
D2*
X5052Y9856D1*
D2*
Y9741D1*
D2*
X5091Y9664D1*
D2*
X5167Y9588D1*
X5550Y8882D2*
X4937D1*
D2*
X4823Y8920D1*
D2*
X4785Y8958D1*
D2*
X4746Y9035D1*
D2*
Y9150D1*
D2*
X4785Y9226D1*
X5435Y8882D2*
X5511Y8958D1*
D2*
X5550Y9035D1*
D2*
Y9150D1*
D2*
X5511Y9226D1*
D2*
X5435Y9303D1*
D2*
X5320Y9341D1*
D2*
X5243D1*
D2*
X5129Y9303D1*
D2*
X5052Y9226D1*
D2*
X5014Y9150D1*
D2*
Y9035D1*
D2*
X5052Y8958D1*
D2*
X5129Y8882D1*
X5358Y8635D2*
Y8176D1*
D2*
X5435D1*
D2*
X5512Y8214D1*
D2*
X5550Y8252D1*
D2*
X5588Y8329D1*
D2*
Y8444D1*
D2*
X5550Y8520D1*
D2*
X5473Y8597D1*
D2*
X5358Y8635D1*
D2*
X5282D1*
D2*
X5167Y8597D1*
D2*
X5091Y8520D1*
D2*
X5052Y8444D1*
D2*
Y8329D1*
D2*
X5091Y8252D1*
D2*
X5167Y8176D1*
X42147Y25796D2*
X42606D1*
D2*
Y25873D1*
D2*
X42568Y25950D1*
D2*
X42530Y25988D1*
D2*
X42453Y26026D1*
D2*
X42338D1*
D2*
X42262Y25988D1*
D2*
X42185Y25911D1*
D2*
X42147Y25796D1*
D2*
Y25720D1*
D2*
X42185Y25605D1*
D2*
X42262Y25529D1*
D2*
X42338Y25490D1*
D2*
X42453D1*
D2*
X42530Y25529D1*
D2*
X42606Y25605D1*
X43312Y26294D2*
Y25490D1*
Y25911D2*
X43236Y25988D1*
D2*
X43159Y26026D1*
D2*
X43044D1*
D2*
X42968Y25988D1*
D2*
X42891Y25911D1*
D2*
X42853Y25796D1*
D2*
Y25720D1*
D2*
X42891Y25605D1*
D2*
X42968Y25529D1*
D2*
X43044Y25490D1*
D2*
X43159D1*
D2*
X43236Y25529D1*
D2*
X43312Y25605D1*
X44018Y25988D2*
Y25375D1*
D2*
X43980Y25261D1*
D2*
X43942Y25222D1*
D2*
X43865Y25184D1*
D2*
X43750D1*
D2*
X43674Y25222D1*
X44018Y25873D2*
X43942Y25949D1*
D2*
X43865Y25988D1*
D2*
X43750D1*
D2*
X43674Y25949D1*
D2*
X43597Y25873D1*
D2*
X43559Y25758D1*
D2*
Y25681D1*
D2*
X43597Y25567D1*
D2*
X43674Y25490D1*
D2*
X43750Y25452D1*
D2*
X43865D1*
D2*
X43942Y25490D1*
D2*
X44018Y25567D1*
X44265Y25796D2*
X44724D1*
D2*
Y25873D1*
D2*
X44686Y25950D1*
D2*
X44648Y25988D1*
D2*
X44571Y26026D1*
D2*
X44456D1*
D2*
X44380Y25988D1*
D2*
X44303Y25911D1*
D2*
X44265Y25796D1*
D2*
Y25720D1*
D2*
X44303Y25605D1*
D2*
X44380Y25529D1*
D2*
X44456Y25490D1*
D2*
X44571D1*
D2*
X44648Y25529D1*
D2*
X44724Y25605D1*
X41997Y5296D2*
X42456D1*
D2*
Y5373D1*
D2*
X42418Y5450D1*
D2*
X42380Y5488D1*
D2*
X42303Y5526D1*
D2*
X42188D1*
D2*
X42112Y5488D1*
D2*
X42035Y5411D1*
D2*
X41997Y5296D1*
D2*
Y5220D1*
D2*
X42035Y5105D1*
D2*
X42112Y5029D1*
D2*
X42188Y4990D1*
D2*
X42303D1*
D2*
X42380Y5029D1*
D2*
X42456Y5105D1*
X43162Y5794D2*
Y4990D1*
Y5411D2*
X43086Y5488D1*
D2*
X43009Y5526D1*
D2*
X42894D1*
D2*
X42818Y5488D1*
D2*
X42741Y5411D1*
D2*
X42703Y5296D1*
D2*
Y5220D1*
D2*
X42741Y5105D1*
D2*
X42818Y5029D1*
D2*
X42894Y4990D1*
D2*
X43009D1*
D2*
X43086Y5029D1*
D2*
X43162Y5105D1*
X43868Y5488D2*
Y4875D1*
D2*
X43830Y4761D1*
D2*
X43792Y4722D1*
D2*
X43715Y4684D1*
D2*
X43600D1*
D2*
X43524Y4722D1*
X43868Y5373D2*
X43792Y5449D1*
D2*
X43715Y5488D1*
D2*
X43600D1*
D2*
X43524Y5449D1*
D2*
X43447Y5373D1*
D2*
X43409Y5258D1*
D2*
Y5181D1*
D2*
X43447Y5067D1*
D2*
X43524Y4990D1*
D2*
X43600Y4952D1*
D2*
X43715D1*
D2*
X43792Y4990D1*
D2*
X43868Y5067D1*
X44115Y5296D2*
X44574D1*
D2*
Y5373D1*
D2*
X44536Y5450D1*
D2*
X44498Y5488D1*
D2*
X44421Y5526D1*
D2*
X44306D1*
D2*
X44230Y5488D1*
D2*
X44153Y5411D1*
D2*
X44115Y5296D1*
D2*
Y5220D1*
D2*
X44153Y5105D1*
D2*
X44230Y5029D1*
D2*
X44306Y4990D1*
D2*
X44421D1*
D2*
X44498Y5029D1*
D2*
X44574Y5105D1*
M02*
