G04 DipTrace 2.1.0.0*
%INTop.gbr*%
%MOIN*%
%ADD10C,0.01*%
%ADD11C,0.006*%
%ADD12C,0.003*%
%ADD13C,0.016*%
%ADD14C,0.008*%
%ADD15C,0.039*%
%ADD16C,0.012*%
%ADD17C,0.02*%
%ADD18C,0.06*%
%ADD19C,0.15*%
%ADD20C,0.05*%
%ADD21C,0.125*%
%ADD22C,0.1*%
%ADD23C,0.025*%
%ADD24C,0.013*%
%ADD25R,0.1063X0.063*%
%ADD26R,0.0591X0.0512*%
%ADD27R,0.0512X0.0591*%
%ADD28R,0.063X0.1063*%
%ADD29R,0.05X0.06*%
%ADD30R,0.06X0.05*%
%ADD31R,0.1X0.1*%
%ADD32R,0.0591X0.0591*%
%ADD33C,0.0591*%
%ADD34R,0.0827X0.0197*%
%ADD35R,0.0827X0.0591*%
%ADD36R,0.125X0.125*%
%ADD37C,0.1*%
%ADD38R,0.06X0.06*%
%ADD39R,0.071X0.14*%
%ADD40R,0.0551X0.0177*%
%ADD41R,0.0177X0.0551*%
%ADD42R,0.04X0.025*%
%ADD43R,0.012X0.065*%
%ADD44R,0.0827X0.0157*%
%ADD45R,0.09X0.056*%
%ADD46R,0.1X0.056*%
%ADD47R,0.0197X0.0827*%
%ADD48R,0.0591X0.0827*%
%ADD49R,0.0157X0.0827*%
%ADD50C,0.031*%
%ADD51C,0.019*%
%ADD52C,0.035*%
%ADD53C,0.095*%
%ADD54C,0.12*%
%ADD55C,0.11*%
%ADD56C,0.067*%
%ADD57C,0.0354*%
%ADD58C,0.063*%
%ADD59C,0.038*%
%ADD60C,0.023*%
%ADD61C,0.058*%
%ADD62C,0.042*%
%ADD63R,0.0237X0.0907*%
%ADD64R,0.0077X0.0747*%
%ADD65R,0.0671X0.0907*%
%ADD66R,0.0511X0.0747*%
%ADD67R,0.0277X0.0907*%
%ADD68R,0.0117X0.0747*%
%ADD69R,0.108X0.064*%
%ADD70R,0.092X0.048*%
%ADD71R,0.098X0.064*%
%ADD72R,0.082X0.048*%
%ADD73R,0.0907X0.0237*%
%ADD74R,0.0747X0.0077*%
%ADD75R,0.02X0.073*%
%ADD76R,0.004X0.057*%
%ADD77R,0.048X0.033*%
%ADD78R,0.032X0.017*%
%ADD79R,0.0257X0.0631*%
%ADD80R,0.0097X0.0471*%
%ADD81R,0.0631X0.0257*%
%ADD82R,0.0471X0.0097*%
%ADD83R,0.079X0.148*%
%ADD84R,0.063X0.132*%
%ADD85R,0.068X0.068*%
%ADD86R,0.052X0.052*%
%ADD87C,0.068*%
%ADD88C,0.052*%
%ADD89C,0.108*%
%ADD90C,0.092*%
%ADD91R,0.133X0.133*%
%ADD92R,0.117X0.117*%
%ADD93R,0.0907X0.0671*%
%ADD94R,0.0747X0.0511*%
%ADD95R,0.0907X0.0277*%
%ADD96R,0.0747X0.0117*%
%ADD97C,0.0671*%
%ADD98C,0.0511*%
%ADD99R,0.0671X0.0671*%
%ADD100R,0.0511X0.0511*%
%ADD101C,0.108*%
%ADD102C,0.092*%
%ADD103R,0.108X0.108*%
%ADD104R,0.092X0.092*%
%ADD105R,0.068X0.058*%
%ADD106R,0.052X0.042*%
%ADD107R,0.058X0.068*%
%ADD108R,0.042X0.052*%
%ADD109R,0.071X0.1143*%
%ADD110R,0.055X0.0983*%
%ADD111R,0.0592X0.0671*%
%ADD112R,0.0432X0.0511*%
%ADD113R,0.0671X0.0592*%
%ADD114R,0.0511X0.0432*%
%ADD115R,0.1143X0.071*%
%ADD116R,0.0983X0.055*%
%ADD117C,0.0062*%
%ADD118C,0.0124*%
%ADD119C,0.0077*%
%FSLAX44Y44*%
%SFA1B1*%
%OFA0B0*%
G04*
G70*
G90*
G75*
G01*
%LNTop*%
%LPD*%
X17395Y22453D2*
D13*
X16674D1*
X16487Y22640D1*
X13970D1*
Y22752D1*
X13253D1*
X14190D1*
Y25602D1*
X15545D1*
X17395D1*
X23965Y33078D2*
D14*
Y33065D1*
X24821D1*
X24808Y33078D1*
Y33065D1*
X25706D1*
X25692Y33078D1*
X27015D2*
Y33065D1*
X27778D1*
Y33078D1*
X26782Y35907D2*
Y34594D1*
X26190Y34002D1*
Y33065D1*
X24821D1*
X14190Y25602D2*
D13*
Y26187D1*
X13025Y27351D1*
Y27768D1*
X27880Y32122D2*
D14*
X26935D1*
X27037Y29643D2*
Y30737D1*
X27378Y31078D1*
Y32127D1*
X26941D1*
X27010Y24556D2*
X27900D1*
X23970D2*
X24810D1*
X25690D1*
X26782Y27457D2*
X26790D1*
Y26090D1*
X26128Y25427D1*
Y24565D1*
X25690D1*
X23339Y30590D2*
D15*
Y28500D1*
D14*
X26782D1*
D16*
Y27457D1*
X26930Y23659D2*
D14*
Y23627D1*
X27880D1*
Y23659D1*
X26930D2*
X26940D1*
Y23627D2*
X27378D1*
Y22503D1*
X27037Y22162D1*
Y21143D1*
X23970Y15866D2*
X24810D1*
Y15877D2*
X25690D1*
Y15866D1*
X27010D2*
X27900D1*
X26782Y18957D2*
Y17532D1*
X26128Y16877D1*
Y15877D1*
X25678D1*
X26782Y18957D2*
D16*
Y20030D1*
D14*
X23360D1*
D15*
Y22069D1*
D14*
X23339Y22090D1*
X26782Y20030D2*
X27037D1*
Y20375D1*
D16*
Y21143D1*
X26930Y14994D2*
D14*
X27147D1*
X27880D1*
X23970Y6966D2*
Y6940D1*
X24810D1*
Y6966D1*
Y6940D2*
X25690D1*
Y6966D1*
Y6940D2*
X27128D1*
Y6877D1*
X27065Y6940D1*
Y7002D1*
X28065D1*
Y6942D1*
X21267Y7738D2*
D16*
X21190D1*
Y9270D1*
X22090D1*
Y11440D1*
X22160D1*
X23339D1*
X26782D1*
Y10247D1*
Y11440D2*
D14*
X27037D1*
Y11750D1*
D16*
Y12433D1*
X26782Y10247D2*
D14*
X26790D1*
Y8440D1*
X26128Y7778D1*
Y6940D1*
X25690D1*
X27037Y29643D2*
D16*
Y28875D1*
D14*
Y28535D1*
X27003Y28500D1*
X26782D1*
X27003D2*
X28317D1*
D16*
Y29643D1*
X27037Y12433D2*
D14*
Y13600D1*
X27378Y13940D1*
Y14994D1*
X26930D1*
X31545Y35135D2*
D15*
Y37065D1*
D14*
X30441D1*
X28320D1*
X27040D1*
X26782D1*
X23339D1*
X22275D1*
D15*
Y35050D1*
X30441Y30590D2*
Y28500D1*
D14*
X28317D1*
X27037Y20030D2*
X28317D1*
D16*
Y21143D1*
X27037Y11440D2*
D14*
X28317D1*
D16*
Y12433D1*
Y38093D2*
X28320D1*
Y37065D1*
X26782Y35907D2*
Y37065D1*
X30441Y13390D2*
D15*
Y11440D1*
D14*
X28317D1*
X22120Y9350D2*
D15*
X22160D1*
Y11440D1*
X23339Y13390D2*
Y11440D1*
X23340Y21187D2*
D13*
X23339Y21189D1*
Y22090D1*
X22230Y18030D2*
D15*
X22270D1*
Y20030D1*
X23360D1*
X23339Y22090D2*
D3*
X22410Y26550D2*
X22370D1*
Y28500D1*
X23339D1*
X31600Y26590D2*
X31610D1*
Y28500D1*
X30441D1*
Y22090D2*
Y20030D1*
D14*
X28317D1*
X27693Y40814D2*
X26747D1*
X27037Y38093D2*
Y39457D1*
X27190Y39610D1*
Y40814D1*
X27693D1*
X27037Y38093D2*
D16*
X27040D1*
Y37065D1*
X31580Y18080D2*
D15*
Y20030D1*
X30441D1*
X13851Y40613D2*
D17*
Y40436D1*
X15441D1*
Y40374D1*
X26065Y37375D2*
D14*
X26565D1*
X26815D1*
X27065D1*
X27565D1*
Y36625D2*
X27065D1*
X26565D1*
X26065D1*
Y28875D2*
X26565D1*
X27065D1*
X27565D1*
Y28125D2*
X27065D1*
X26565D1*
X26065D1*
Y20375D2*
X26565D1*
X27065D1*
X27565D1*
X26065Y19625D2*
X26565D1*
X27065D1*
X27565D1*
X25815Y11375D2*
Y11500D1*
X26065Y11750D1*
X26565D1*
X27065D1*
X27565D1*
X25815Y11375D2*
Y11250D1*
X26065Y11000D1*
X26565D1*
X27065D1*
X27565D1*
X9898Y33221D2*
D18*
Y35221D1*
X13753Y36480D2*
D15*
X12939D1*
X11357D1*
X10003Y35125D1*
Y33116D1*
X9898Y33221D1*
X13851Y40613D2*
D17*
Y40561D1*
X13374D1*
X12939Y40127D1*
Y39620D1*
Y38032D1*
Y36480D1*
X13684Y38032D2*
X12939D1*
X15545Y27768D2*
D13*
Y28107D1*
X15690Y28252D1*
Y28821D1*
X15886Y28625D1*
X17395Y22453D2*
X17867D1*
X17960Y22360D1*
X18065D1*
X18239Y22186D1*
X13025Y27768D2*
Y28917D1*
X12628Y29315D1*
X11065D1*
X26815Y37375D2*
D14*
Y37000D1*
X27565Y37375D2*
Y37250D1*
X27315Y37000D1*
X27565Y37250D2*
X27815Y37000D1*
X26565Y37375D2*
Y37250D1*
X26315Y37000D1*
X26065Y37375D2*
Y37250D1*
X25815Y37000D1*
X26565Y36625D2*
Y36750D1*
X26815Y37000D1*
X27565Y28875D2*
Y28750D1*
X27815Y28500D1*
X27565Y28750D2*
X27315Y28500D1*
Y28375D1*
X27065Y28125D1*
X26815Y28500D2*
Y28625D1*
X27065Y28875D1*
X26565D2*
Y28750D1*
X26315Y28500D1*
X26065Y28875D2*
Y28750D1*
X25815Y28500D1*
Y28375D1*
X26065Y28125D1*
X28317Y29643D2*
Y29002D1*
X27815Y28500D1*
X28317Y38093D2*
Y37065D1*
X27815D1*
Y37000D1*
X27037Y21143D2*
Y20403D1*
X27065Y20375D1*
X27565D2*
Y20250D1*
X27815Y20000D1*
X27565Y19625D2*
Y19750D1*
X27315Y20000D1*
Y20125D1*
X27065Y20375D1*
X26565D2*
Y20250D1*
X26815Y20000D1*
X26565Y19625D2*
Y19750D1*
X26315Y20000D1*
Y20125D1*
X26065Y20375D1*
X25815Y20000D2*
X23349D1*
X23360Y20030D1*
X23339Y22090D2*
Y20030D1*
X23360D1*
X28317Y12433D2*
Y11877D1*
X27815Y11375D1*
X27565Y11750D2*
Y11625D1*
X27815Y11375D1*
X27565Y11625D2*
X27315Y11375D1*
X27065Y11000D2*
Y11125D1*
X26815Y11375D1*
X26565Y11000D2*
Y11125D1*
X26315Y11375D1*
X26065Y11750D2*
Y11625D1*
X26315Y11375D1*
X26565Y11750D2*
Y11625D1*
X26815Y11375D1*
X17690Y15690D2*
D13*
X18690D1*
X17690Y12690D2*
X18690D1*
X17690Y9690D2*
X18690D1*
X30441Y39090D2*
D15*
Y37065D1*
X23339Y39090D2*
Y37065D1*
Y28500D2*
D14*
X20315D1*
D19*
Y20002D1*
D14*
X23360D1*
X13937Y33374D2*
X15126D1*
X22273Y37065D2*
D15*
X20315D1*
D19*
Y35940D1*
Y28500D1*
X7628Y20127D2*
D13*
X8128D1*
X8628D1*
X7628D2*
D14*
X7752D1*
X6941Y19316D1*
X6440D1*
X8628Y13127D2*
D13*
X8128D1*
Y14627D1*
Y15629D1*
Y16628D1*
Y17629D1*
Y20127D1*
Y14627D2*
D14*
X7440D1*
X6753Y13941D1*
X6440D1*
X7628Y13127D2*
D17*
X8628D1*
X22160Y11440D2*
D19*
X20315D1*
Y12690D1*
Y15690D1*
Y20002D1*
X15126Y33374D2*
D17*
X15128D1*
Y34023D1*
X15503D1*
Y35315D1*
X15438Y36250D2*
D13*
X15503D1*
Y35315D1*
X20315Y37440D2*
D14*
Y37065D1*
Y36690D2*
D19*
D3*
D15*
Y37065D1*
Y36315D2*
D19*
Y36690D1*
Y35940D2*
D3*
Y38565D2*
D14*
Y38190D1*
Y37815D1*
Y37440D1*
Y36690D1*
Y36315D1*
Y35940D1*
Y36690D2*
D3*
X17690Y8690D2*
D13*
X18690D1*
Y15690D2*
X20315D1*
X18690Y12690D2*
X20315D1*
X18690Y9690D2*
X21190D1*
Y9270D1*
X8128Y15629D2*
D14*
X6537D1*
X6440Y15726D1*
X13970Y21232D2*
D13*
Y20533D1*
X13815Y20377D1*
Y20062D1*
X13877D1*
X10860Y22768D2*
X13253Y22752D1*
X13970Y21232D2*
Y22640D1*
X15545Y27768D2*
Y25602D1*
X8128Y16628D2*
D14*
X8940D1*
X9378Y17065D1*
X10315D1*
X10690Y17440D1*
Y17690D1*
X10566Y17566D1*
X8128Y15629D2*
X8939D1*
X9315Y15252D1*
X10065D1*
X10566Y15753D1*
Y15816D1*
X8628Y13127D2*
X10628D1*
Y13940D1*
X10566Y13878D1*
X15992Y9797D2*
Y9815D1*
X16815D1*
Y10053D1*
X15992D1*
X10566Y19316D2*
Y19128D1*
X10157Y18720D1*
X10095D1*
X10190Y18815D1*
X6440Y17531D2*
X7031D1*
X7129Y17629D1*
X8128D1*
X17690Y12690D2*
D13*
X16502D1*
X16065Y13127D1*
X15992Y8774D2*
D14*
Y8752D1*
X16815D1*
D13*
Y8252D1*
D14*
X16568Y8006D1*
X15992D1*
X17690Y9690D2*
D13*
X16815D1*
D14*
Y9797D1*
X15992D1*
X16000Y18194D2*
D13*
X16186D1*
X16628Y17753D1*
Y13690D1*
X16065Y13127D1*
X31630Y9370D2*
D15*
X31650D1*
Y11440D1*
X30441D1*
X16314Y11751D2*
D13*
X16376D1*
Y11627D1*
X16815Y11188D1*
Y9797D1*
X15992Y8006D2*
D14*
X14844D1*
X13820Y9030D1*
X13315D1*
X10750Y11939D2*
X10628D1*
Y13127D1*
X7065Y9127D2*
D17*
X6378D1*
X16815Y9815D2*
D13*
Y8752D1*
X14003Y17442D2*
D14*
Y17002D1*
X10063Y29062D2*
X10749D1*
X11003Y29315D1*
D13*
X11065D1*
X10064Y39620D2*
D14*
X12939D1*
X9190Y26502D2*
Y26627D1*
X8690Y26127D1*
Y23002D1*
X9190Y22502D1*
Y26502D2*
Y27502D1*
X11003Y29315D1*
X17689Y7627D2*
D13*
Y8691D1*
X17690Y8690D1*
Y9690D2*
Y8690D1*
X16376Y11751D2*
Y12816D1*
X16065Y13127D1*
X23070Y33070D2*
D14*
X23957D1*
X27015Y33065D2*
X25706D1*
X29582Y32509D2*
X28683D1*
X28127Y33065D1*
X27791D1*
X27778Y33078D1*
X23070Y24556D2*
X23970D1*
X25690D2*
X27010D1*
X29743Y24036D2*
X29032D1*
X28502Y24565D1*
X27909D1*
X27900Y24556D2*
Y24580D1*
X28480D1*
X32190Y24690D2*
X36190D1*
X36753Y24127D1*
Y23440D1*
X37003Y23190D1*
X37565D1*
X38238Y23863D1*
Y23685D1*
X25690Y15866D2*
X27010D1*
X29767Y15446D2*
X28747D1*
X28327Y15866D1*
X27900D1*
X23070D2*
X23970D1*
X29820Y6903D2*
Y6940D1*
X23944D1*
X23970Y6966D1*
X23180D2*
X23970D1*
X15438Y36998D2*
D13*
Y37437D1*
X15224Y37651D1*
X14550D1*
X25250Y38090D2*
D14*
X24960D1*
X25040Y29630D2*
D16*
X25240D1*
X25250Y29640D1*
X28753Y29630D2*
X28870D1*
X28585D1*
X28573Y29643D1*
X25040Y29630D2*
D15*
X24441Y30229D1*
D14*
Y30590D1*
X28815Y21127D2*
X28588D1*
X28573Y21143D1*
X25003Y21127D2*
X25250D1*
Y21140D1*
X25052D1*
D15*
X24441Y21751D1*
D14*
Y22090D1*
X28878Y12433D2*
X28573D1*
X24940D2*
X25250D1*
Y12430D1*
X25013D1*
D15*
X24315Y13128D1*
D14*
Y13390D1*
X24441D1*
X28573Y29643D2*
Y29630D1*
X28755D1*
D15*
X29315Y30190D1*
D14*
Y30566D1*
X29339Y30590D1*
X28870Y29630D2*
X29315Y30075D1*
Y30590D1*
X29339D1*
X28815Y21127D2*
D15*
X29315Y21627D1*
D14*
Y22090D1*
X29339D1*
X28573Y29643D2*
Y29765D1*
D16*
Y29643D1*
X25250Y38090D2*
D14*
X25040D1*
D15*
X24441Y38689D1*
D14*
Y39090D1*
X25040Y38090D2*
X24441Y38689D1*
X9898Y37221D2*
Y37252D1*
X9939D1*
Y37311D1*
X10190Y37562D1*
Y37190D1*
X8627D1*
X7750Y38067D1*
Y39620D1*
X28780Y38090D2*
X28575D1*
X28573Y38093D1*
X28780D2*
D15*
X29378Y38690D1*
D14*
Y39090D1*
X29339D1*
X28878Y12433D2*
D15*
X29378Y12933D1*
D14*
Y13351D1*
X29339Y13390D1*
X10860Y23398D2*
Y23377D1*
X11628D1*
X11753Y23502D1*
X12065D1*
X12190Y23377D1*
X12253D1*
X13684Y37647D2*
D17*
X13921D1*
X14565Y37002D1*
Y35627D1*
X14315Y35377D1*
X13753D1*
X13684Y38410D2*
X13940D1*
X14128Y38222D1*
Y37847D1*
X13927Y37647D1*
X9898Y31221D2*
D15*
Y31083D1*
X10939Y32125D1*
Y34687D1*
X11755Y35502D1*
X13753D1*
Y35377D1*
X9898Y31221D2*
X8346D1*
X7003Y29878D1*
Y29063D1*
Y21315D1*
D17*
X5128D1*
X4378Y20565D1*
Y13377D1*
X6065Y11690D1*
Y10065D1*
X5878Y9877D1*
Y8627D1*
X6190Y8315D1*
X7440D1*
X9690Y6065D1*
X14753D1*
Y8565D2*
Y11752D1*
Y13033D1*
X15440Y13720D1*
Y15627D1*
X15940Y16127D1*
X16065D1*
X7003Y21315D2*
D13*
X8128D1*
X7065Y10065D2*
X6065D1*
X15992Y8518D2*
D14*
Y8502D1*
X14753D1*
Y8565D1*
X16000Y17446D2*
D13*
Y16192D1*
X16065Y16127D1*
X15566Y11751D2*
Y11752D1*
X14753D1*
X7065Y10065D2*
D14*
X7628D1*
X9502Y11939D1*
X10002D1*
X7750Y29063D2*
X7003D1*
X26270Y35907D2*
Y34645D1*
X25845Y34220D1*
X24408D1*
X23965Y33777D1*
Y33827D1*
X22210Y33808D2*
X23060D1*
X23070Y33818D1*
X23957D1*
X23965Y33827D1*
X25250Y35910D2*
X25098D1*
D15*
X24378Y35190D1*
D14*
Y35108D1*
X24320Y35050D1*
X24475D1*
X27778Y33827D2*
X27015D1*
X27293Y35907D2*
Y33627D1*
X27214D1*
X27015Y33827D1*
X26526Y38093D2*
Y39524D1*
X26315Y39735D1*
Y40374D1*
X25875Y40814D1*
X26270Y38093D2*
X26253D1*
Y38753D1*
X26315Y38815D1*
Y39305D1*
X25875Y39745D1*
Y40066D1*
X26782Y38093D2*
Y40032D1*
X26747Y40066D1*
X27805Y38093D2*
D16*
Y38715D1*
X27880Y38790D1*
Y39230D1*
D15*
X28750Y40100D1*
X33810D1*
X34568Y39342D1*
Y37958D1*
D17*
Y38062D1*
X36872D1*
X36900Y38090D1*
D14*
Y37940D1*
X38063D1*
X38190Y37813D1*
X27290Y38090D2*
Y38500D1*
X27218Y38572D1*
Y39218D1*
X27753Y39753D1*
Y40066D1*
X27693D1*
X30432Y33266D2*
Y33190D1*
X29650D1*
X29582Y33257D1*
X27037Y35907D2*
Y34600D1*
X26503Y34065D1*
Y33440D1*
X28690Y33190D2*
X29582D1*
Y33257D1*
X37238Y23685D2*
Y25090D1*
X36650D1*
X36660Y25100D1*
X38815D1*
Y31685D1*
X38370Y32130D1*
X32312D1*
X31252Y33190D1*
X27037Y27457D2*
Y26087D1*
X26503Y25552D1*
Y25003D1*
X26440Y24940D1*
X29003Y24752D2*
X30548D1*
X30580Y24784D1*
X29743D1*
X36650Y25090D2*
X31840D1*
X31503Y24752D1*
X29767Y16194D2*
X30617D1*
X30710Y7652D2*
X29820D1*
X27037Y10247D2*
Y8412D1*
X26503Y7877D1*
Y7627D1*
X29065D2*
X30734D1*
X30710Y7652D1*
X27037Y18957D2*
Y17475D1*
X26440Y16877D1*
Y16252D1*
X28690D2*
X29826D1*
X29767Y16194D1*
X30710Y7652D2*
X30874Y7815D1*
X38194D1*
X38830Y8452D1*
Y15190D1*
X32627D1*
X31565Y16252D1*
X38815Y25100D2*
X38830Y15190D1*
X27805Y35907D2*
D16*
Y35012D1*
X28752Y34065D1*
D15*
X33065D1*
X33440Y34440D1*
Y35270D1*
X34568Y36398D1*
D17*
Y36000D1*
X36990D1*
X36900Y36090D1*
D14*
Y36105D1*
X37878Y35127D1*
X38012D1*
X38190Y35305D1*
X28573Y35907D2*
X28723D1*
D15*
X29440Y35190D1*
D14*
Y35100D1*
X29600Y34940D1*
X29345D1*
Y35135D1*
X26014Y35907D2*
D16*
Y34904D1*
X25775Y34665D1*
X34568Y33248D2*
D17*
Y32938D1*
X37052D1*
X36900Y33090D1*
X26014Y38093D2*
D16*
Y39076D1*
X34568Y34838D2*
D17*
Y35062D1*
X36872D1*
X36900Y35090D1*
X25250Y27460D2*
D14*
Y27502D1*
X25065D1*
D15*
X24610Y27047D1*
D14*
Y26550D1*
X28573Y27457D2*
Y27440D1*
X28752D1*
D15*
X29560Y26632D1*
D14*
Y26590D1*
X29400D1*
X27900Y25304D2*
X27010D1*
X27293Y27457D2*
Y25277D1*
X27266Y25304D1*
X27010D1*
X26526Y29643D2*
Y31044D1*
X26440Y31130D1*
Y31621D1*
X25934Y32127D1*
X25943D1*
X26270Y29643D2*
Y30520D1*
X26320Y30570D1*
Y30940D1*
X25887Y31373D1*
X25937D1*
X26782Y29643D2*
Y31220D1*
X26935Y31373D1*
X26270Y27457D2*
Y27040D1*
X26320Y26990D1*
Y26132D1*
X25888Y25700D1*
X24325D1*
X23970Y25345D1*
Y25304D1*
X22210D2*
X23070D1*
X23970D1*
X27290Y29640D2*
Y30220D1*
X27220Y30290D1*
Y30640D1*
X27953Y31373D1*
X27880D1*
X25250Y18960D2*
X25023D1*
D15*
X24315Y18252D1*
D14*
Y18030D1*
X24430D1*
X24808Y33827D2*
X25692D1*
X26526Y35907D2*
Y34651D1*
X25702Y33827D1*
X8510Y29063D2*
X8376D1*
Y29062D1*
X9315D1*
X10860Y23713D2*
X11480D1*
X11503Y23690D1*
X10860Y24028D2*
X11790D1*
X11815Y24002D1*
X28573Y18957D2*
X28735D1*
D15*
X29503Y18190D1*
D14*
Y18080D1*
X29380D1*
X10860Y23083D2*
X11922D1*
X11878Y23127D1*
X13189Y33374D2*
Y33467D1*
X12450Y32727D1*
Y31242D1*
X12818Y30875D1*
X13252D1*
X13340Y27768D2*
X13378D1*
Y28377D1*
X13878Y28877D1*
Y30627D1*
X13630Y30875D1*
X13252D1*
X25250Y10250D2*
X25063D1*
D15*
X24253Y9440D1*
D14*
Y9350D1*
X24320D1*
X36900Y28965D2*
D17*
X34875D1*
X34565Y29275D1*
X27805Y27457D2*
D16*
Y26615D1*
X28855Y25565D1*
D15*
X32565D1*
X33440Y26440D1*
Y28150D1*
X34565Y29275D1*
X38190Y28065D2*
D14*
X37800D1*
X36900Y28965D1*
X26014Y18957D2*
D16*
Y17889D1*
X25815Y17690D1*
X34570Y16383D2*
D17*
Y16190D1*
X36935D1*
X36900Y16225D1*
X13970Y27768D2*
D14*
Y27345D1*
X13815Y27190D1*
X5129Y22502D2*
X5065D1*
Y24253D1*
X4815Y24502D1*
X14285Y27768D2*
X14315D1*
Y27940D1*
X14270Y27985D1*
Y27250D1*
X36900Y27965D2*
D17*
Y27875D1*
X34725D1*
X34565Y27715D1*
X26014Y29643D2*
D16*
Y30794D1*
X27805Y29643D2*
Y30295D1*
X28540Y31030D1*
D15*
X28490D1*
X29010Y31550D1*
X33705D1*
X34493Y30762D1*
D14*
X34565Y30835D1*
D17*
Y30965D1*
X36900D1*
X38190Y30813D2*
D14*
X37052D1*
X36900Y30965D1*
X45166Y31779D2*
X45690D1*
X28573Y10247D2*
X28758D1*
D15*
X29440Y9565D1*
D14*
Y9480D1*
X29550Y9370D1*
X29430D1*
X26014Y27457D2*
D16*
Y26246D1*
X34565Y26125D2*
D17*
Y25965D1*
X36900D1*
X38190Y30065D2*
D14*
Y28825D1*
X25690Y25304D2*
X24810D1*
X26526Y27457D2*
Y26088D1*
X25742Y25304D1*
X24810D1*
X12395Y21232D2*
Y20833D1*
X12190Y20627D1*
Y15565D1*
X12503Y15252D1*
Y13065D1*
X13815Y11752D1*
X14253Y9550D2*
X13306D1*
X13315Y9541D1*
X6440Y14689D2*
Y14695D1*
X5565D1*
X6440Y16474D2*
X6406Y16440D1*
X5565D1*
Y16480D1*
X6440Y20064D2*
X5565D1*
Y20070D1*
X15992Y7750D2*
D16*
X16941D1*
Y7627D1*
X26014Y10247D2*
Y8746D1*
X34570Y9188D2*
D17*
Y9002D1*
X36928D1*
X36900Y9030D1*
X7065Y9752D2*
D14*
X7627D1*
X8002Y9377D1*
Y8628D1*
X9877Y6752D1*
X14315D1*
X15057Y7494D1*
X15992D1*
X27010Y16614D2*
Y16565D1*
X27900D1*
Y16614D1*
X27010D2*
X26997Y16627D1*
X27293D1*
Y18957D1*
X26526Y21143D2*
Y22564D1*
X26440Y22650D1*
Y23240D1*
X26021Y23659D1*
X25940D1*
Y22911D2*
Y22752D1*
X25982Y22710D1*
X26110D1*
X26280Y22540D1*
Y21153D1*
X26270Y21143D1*
X26782D2*
Y22763D1*
X26930Y22911D1*
X26270Y18957D2*
Y17645D1*
X25815Y17190D1*
X24440D1*
X23864Y16614D1*
X23970D1*
X23070D2*
X23970D1*
X23070D2*
X22210D1*
X27880Y22911D2*
Y22730D1*
X27820Y22670D1*
Y22632D1*
X27300Y22112D1*
Y21150D1*
X27290Y21140D1*
X15992Y7238D2*
X15176D1*
X14440Y6502D1*
X9815D1*
X7815Y8503D1*
Y9252D1*
X7627Y9440D1*
X7065D1*
X36900Y19225D2*
D17*
X34878D1*
X34570Y19533D1*
X27805Y18957D2*
D16*
Y18075D1*
X28815Y17065D1*
X29253D1*
D15*
X33003D1*
X33440Y17502D1*
Y18690D1*
X34283Y19533D1*
X34570D1*
X38190Y18315D2*
D14*
X37810D1*
X36900Y19225D1*
X9993Y8877D2*
Y7930D1*
X10003Y7940D1*
X36900Y18225D2*
D17*
X34822D1*
X34570Y17973D1*
X26014Y21143D2*
D16*
Y22070D1*
D14*
X26003D1*
Y22252D1*
X25940Y22315D1*
X13065Y14127D2*
X13378D1*
X13564Y14314D1*
Y15314D1*
X13250Y15627D1*
X12688D1*
X12565Y15750D1*
Y20440D1*
X13003Y20878D1*
Y21210D1*
X13025Y21232D1*
X13655D2*
Y20905D1*
X13315Y20565D1*
Y19690D1*
X14628Y18377D1*
Y14690D1*
X13065Y13127D1*
X27805Y21143D2*
D16*
Y21743D1*
X28503Y22440D1*
D15*
X28420D1*
X29080Y23100D1*
X33593D1*
X34570Y22123D1*
Y21093D1*
D17*
Y21252D1*
X36927D1*
X36900Y21225D1*
X38190Y21065D2*
D14*
X37060D1*
X36900Y21225D1*
X13065Y18190D2*
X14003D1*
X13065D2*
Y20627D1*
X13315Y20877D1*
Y21207D1*
X13340Y21232D1*
X13065Y16127D2*
Y17442D1*
X32315Y5253D2*
X33874D1*
Y5252D1*
X32315Y7253D2*
X33874D1*
Y7252D1*
X10003Y10940D2*
Y9930D1*
X9993Y9940D1*
X15992Y9285D2*
X15128D1*
Y9377D1*
X11260Y9970D2*
X10753D1*
Y9940D1*
X38190Y20317D2*
Y19075D1*
X24810Y16614D2*
X25690D1*
X26526Y18957D2*
Y17588D1*
X25690Y16752D1*
Y16614D1*
X15992Y9030D2*
X15550D1*
X15470Y8950D1*
X15260D1*
X11253Y8940D2*
X10753D1*
Y8877D1*
X38190Y37065D2*
Y36065D1*
X42351Y29101D2*
Y30154D1*
X41940Y30565D1*
X41253D1*
X40503Y31315D1*
Y40003D1*
X41055Y40555D1*
X41200Y40410D1*
X43148Y27503D2*
X43128D1*
Y26940D1*
X43003Y26815D1*
X42627D1*
X42440Y27002D1*
Y28253D1*
X42128Y28565D1*
Y29069D1*
X42095Y29101D1*
X43460Y27503D2*
Y26772D1*
X43065Y26377D1*
X42628D1*
X42253Y26752D1*
Y27940D1*
X41878Y28315D1*
Y29140D1*
X41839Y29101D1*
X13851Y39511D2*
D17*
Y39690D1*
X15450D1*
Y38409D1*
X14547D1*
X15230Y27768D2*
D13*
Y28150D1*
X15138Y28242D1*
Y28625D1*
X14285Y21232D2*
Y20533D1*
X14440Y20377D1*
Y20062D1*
X14626D1*
X12710Y27768D2*
Y27295D1*
X13810Y26195D1*
Y25940D1*
X14340Y22010D2*
Y21880D1*
X14285Y21825D1*
Y21232D1*
X17395Y22768D2*
X16800D1*
X16588Y22980D1*
X16350D1*
X15441Y39626D2*
D17*
X15450Y39690D1*
X17395Y22768D2*
D13*
X18143D1*
X18440Y23065D1*
X18239D1*
Y22934D1*
X13626Y22010D2*
D16*
Y21970D1*
X11959D1*
X11476Y22453D1*
X10860D1*
Y22440D1*
X11128D1*
X28061Y38093D2*
D14*
Y38451D1*
X28190Y38580D1*
Y38690D1*
X25510Y38670D2*
Y38490D1*
X25502Y38498D1*
Y38093D1*
X28061Y29643D2*
Y30011D1*
X28270Y30220D1*
X25540D2*
Y30060D1*
D16*
X25502Y30098D1*
Y29643D1*
X28061Y21143D2*
D14*
Y21551D1*
X28240Y21730D1*
X28400D1*
X28390Y21720D1*
X25502Y21815D2*
Y21143D1*
X28061Y12433D2*
Y12749D1*
X28315Y13002D1*
X25460Y13020D2*
Y12830D1*
X25510Y12780D1*
Y12425D1*
X25502Y12433D1*
X17690Y17690D2*
X18690D1*
D16*
D3*
X17690Y14690D2*
D14*
X18690D1*
D13*
D3*
X18239Y22934D2*
X18840D1*
D15*
Y20690D1*
D13*
X17690D1*
X17395Y25917D2*
X16373D1*
X16350Y25940D1*
X15230Y27768D2*
Y26002D1*
D16*
X15118D1*
X15180Y25940D1*
X14626Y20062D2*
D17*
X14505D1*
X15003Y19565D1*
Y13878D1*
X14220Y13095D1*
Y12502D1*
Y10095D1*
X14127Y10002D1*
D16*
X13940Y9815D1*
X13297D1*
X13315Y9797D1*
X10751Y7940D2*
D14*
Y7440D1*
Y10940D2*
X11253D1*
X15690Y39690D2*
X15450D1*
X14547Y38409D2*
D17*
X16471D1*
D15*
X16940Y37940D1*
Y34753D1*
X17440Y34253D1*
Y33065D1*
Y30440D1*
X18565Y29315D1*
D13*
X15503D1*
X15138Y28950D1*
Y28625D1*
X18565Y29315D2*
D15*
Y24435D1*
X18820Y24180D1*
Y22934D1*
D13*
X18239D1*
X15460Y38420D2*
D15*
X16471Y38409D1*
X12710Y27768D2*
D16*
Y28482D1*
X12253Y28940D1*
X11065D1*
X9628Y27503D1*
Y26190D1*
X8940Y25502D1*
X9190D1*
X5815Y26502D2*
D14*
X5817D1*
X5755Y26440D1*
X5940D1*
X5315Y25815D1*
Y24065D1*
X5753Y23627D1*
Y22378D1*
X5877Y22502D1*
X25510Y38670D2*
Y39370D1*
X24940Y39940D1*
X18003D1*
X16471Y38409D1*
X28628Y7252D2*
D16*
Y8272D1*
X27549Y9351D1*
Y10247D1*
X22210Y33060D2*
X22188D1*
Y32565D1*
Y31942D1*
X22440Y31690D1*
X24752D1*
X25087Y31355D1*
Y30663D1*
X25502Y30248D1*
Y29643D1*
X22188Y32565D2*
D14*
X28253D1*
X28753Y32065D1*
X30065D1*
X30432Y32432D1*
Y32517D1*
X27549Y35907D2*
Y34831D1*
X28299Y34081D1*
Y34019D1*
X28627Y33690D1*
X30752D1*
X30940Y33502D1*
Y32940D1*
X30440Y32440D1*
X30355D1*
X30432Y32517D1*
X22210Y33060D2*
D13*
X21508Y33065D1*
X22210Y24556D2*
D14*
X22190D1*
Y24065D1*
X28315D1*
X28878Y23502D1*
X30190D1*
X30723Y24036D1*
X30580D1*
Y24002D1*
X30815D1*
X31128Y24315D1*
Y25065D1*
X31002Y25190D1*
X28750D1*
X27549Y26391D1*
Y27457D1*
X36238Y23685D2*
D16*
Y23755D1*
X30861D1*
X30580Y24036D1*
X25502Y21143D2*
Y21753D1*
X25003Y22252D1*
Y22627D1*
X24377Y23252D1*
X22503D1*
X22190Y23565D1*
Y24627D1*
X22282D1*
X22210Y24556D1*
X22330Y6966D2*
X22378D1*
Y6377D1*
Y6315D1*
X30440D1*
X30690Y6565D1*
Y6883D1*
X30710Y6903D1*
X25460Y13020D2*
Y13107D1*
X25065Y13502D1*
Y14315D1*
X24815Y14565D1*
X22502D1*
X22190Y14877D1*
Y15440D1*
Y15846D1*
X22210Y15866D1*
X22190Y15440D2*
D14*
X28315D1*
X28815Y14940D1*
X30379D1*
X30628Y15188D1*
Y15456D1*
X30617Y15446D1*
X27549Y18957D2*
Y17831D1*
X28690Y16690D1*
X30940D1*
X31190Y16440D1*
Y15751D1*
X30885Y15446D1*
X30617D1*
X21660Y15840D2*
D16*
X22184D1*
X22210Y24556D2*
D13*
Y24540D1*
X21390D1*
X41192Y36940D2*
D14*
Y35940D1*
Y34940D2*
Y33940D1*
X43886Y29101D2*
Y29761D1*
X44065Y29940D1*
X42378Y33377D2*
X41940Y33815D1*
Y33928D1*
X41952Y33940D1*
X27065Y7688D2*
X28065D1*
Y7690D1*
X27065Y7688D2*
X27300D1*
Y10254D1*
X27293Y10247D1*
X26526Y12433D2*
Y13884D1*
X26440Y13970D1*
Y14565D1*
X25940Y15065D1*
Y14994D1*
Y14246D2*
Y14110D1*
X26000D1*
X26320Y13790D1*
Y12920D1*
X26270Y12870D1*
Y12433D1*
X26930Y14246D2*
Y14315D1*
X26782D1*
Y12433D1*
X43630Y29101D2*
Y30130D1*
X43690Y30190D1*
X42440Y36440D2*
X41940Y36940D1*
X41952D1*
X27880Y14246D2*
Y14317D1*
X27723Y14160D1*
X27860D1*
X27230Y13530D1*
Y12940D1*
X27290Y12880D1*
Y12430D1*
X44943Y11279D2*
X45476D1*
X45503Y11252D1*
X27805Y10247D2*
D16*
Y9435D1*
X28863Y8377D1*
X29378D1*
D15*
X32752D1*
X33440Y9065D1*
Y11190D1*
X34570Y12320D1*
D14*
Y12338D1*
X36900Y12030D2*
D17*
X34878D1*
X34570Y12338D1*
X36900Y12030D2*
D14*
X36975D1*
X37815Y11190D1*
X38190D1*
X41190Y19910D2*
X40848D1*
X40503Y19565D1*
Y10502D1*
X41128Y9877D1*
X41878D1*
X42128Y9627D1*
Y8601D1*
X36900Y11030D2*
D17*
X34822D1*
X34570Y10778D1*
X26014Y12433D2*
D16*
Y13514D1*
X27805Y12433D2*
Y12985D1*
X28530Y13710D1*
D15*
Y14020D1*
X28950Y14440D1*
X34065D1*
X34815Y13690D1*
D14*
X34362D1*
X34570Y13898D1*
D17*
Y14030D1*
X36900D1*
X38190Y13940D2*
D14*
X36990D1*
X36900Y14030D1*
X26270Y10247D2*
Y9890D1*
X26320Y9840D1*
Y8600D1*
X25910Y8190D1*
X24190D1*
X23714Y7714D1*
X23970D1*
X23180D1*
X22330D1*
X42998Y7003D2*
Y6373D1*
X42815Y6190D1*
X42565D1*
X42315Y6440D1*
Y7503D1*
X41878Y7940D1*
Y8596D1*
X41873Y8601D1*
X43310Y7003D2*
Y6247D1*
X42940Y5877D1*
X42440D1*
X42128Y6190D1*
Y7315D1*
X41628Y7815D1*
Y8591D1*
X41617Y8601D1*
X38190Y13192D2*
Y11950D1*
X24810Y7714D2*
Y7750D1*
X25654D1*
X25690Y7714D1*
X26526Y10247D2*
Y8496D1*
X25782Y7752D1*
X24810D1*
X41190Y16660D2*
Y15660D1*
Y14660D2*
Y13660D1*
X43664Y8601D2*
Y9164D1*
X43878Y9377D1*
X42315Y13065D2*
Y13128D1*
X41783Y13660D1*
X41950D1*
X43408Y8601D2*
Y9533D1*
X43503Y9627D1*
X42399Y16211D2*
X41950Y16660D1*
X43920Y11279D2*
Y12023D1*
X43378Y12565D1*
Y14190D1*
X43628Y14440D1*
X44440D1*
X44940Y14940D1*
X44753Y12190D2*
X44440Y11877D1*
Y11287D1*
X44432Y11279D1*
X6440Y18279D2*
X6529D1*
X6503Y18252D1*
X5565D1*
Y18285D1*
X44940Y17940D2*
X44878D1*
X44378Y17440D1*
X43565D1*
X43003Y16877D1*
Y12565D1*
X42378Y11940D1*
Y11285D1*
X42384Y11279D1*
X9753Y19317D2*
X9819D1*
X10566Y20064D1*
X10860Y25287D2*
Y25252D1*
X10440D1*
X9950Y24762D1*
Y21368D1*
X10753Y20565D1*
Y19877D1*
X10566Y20064D1*
X9753Y17566D2*
X9818D1*
X10566Y18314D1*
X11065Y18813D1*
Y20502D1*
X10110Y21457D1*
Y24547D1*
X10565Y25002D1*
X10830D1*
X10860Y24972D1*
X9753Y15816D2*
X9818D1*
X10566Y16564D1*
X10860Y24657D2*
X10595D1*
X10280Y24342D1*
Y21537D1*
X11253Y20565D1*
Y17251D1*
X10566Y16564D1*
X9753Y13878D2*
X9818D1*
X10566Y14627D1*
X10860Y24343D2*
X10593D1*
X10440Y24190D1*
Y21628D1*
X11440Y20628D1*
Y15501D1*
X10566Y14627D1*
X32315Y6253D2*
X33874D1*
Y6252D1*
X21267Y6990D2*
Y6988D1*
X22378Y5877D1*
X31940D1*
X32315Y6253D1*
X8510Y39620D2*
X9316D1*
X15874Y33374D2*
Y32162D1*
X15712Y32000D1*
X13655Y27768D2*
X13628D1*
Y28190D1*
X14128Y28690D1*
Y31003D1*
X15125Y32000D1*
X15712D1*
X8628Y18127D2*
X8815D1*
X9128Y18441D1*
Y19441D1*
X9753Y20065D1*
X8628Y17127D2*
X8753D1*
Y17440D1*
X9440Y18127D1*
X9567D1*
X9753Y18314D1*
Y16564D2*
X9376D1*
X8940Y16127D1*
X8628D1*
X9753Y14627D2*
X9129D1*
X8628Y15127D1*
X13315Y10565D2*
X12877D1*
X12315Y11127D1*
Y15190D1*
X12003Y15502D1*
Y20815D1*
X12065Y20877D1*
Y21248D1*
X12080Y21232D1*
X11765D2*
Y20927D1*
X11815Y20878D1*
Y15440D1*
X12128Y15127D1*
Y10751D1*
X12825Y10053D1*
X13315D1*
X10860Y22138D2*
X10877D1*
Y21441D1*
X11628Y20690D1*
Y15377D1*
X11940Y15065D1*
Y8815D1*
X12749Y8006D1*
X13315D1*
X45190Y35440D2*
X45065D1*
X44565Y34940D1*
X43878D1*
X43378Y34440D1*
Y33127D1*
X44128Y32377D1*
Y31793D1*
X44142Y31779D1*
X45003Y32627D2*
X44940D1*
X44690Y32377D1*
Y31815D1*
X44654Y31779D1*
X42607D2*
Y32482D1*
X43003Y32877D1*
Y37128D1*
X43815Y37940D1*
X44690D1*
X45190Y38440D1*
X42503Y34440D2*
X42003Y34940D1*
X41940D1*
Y35940D1*
X45190Y34440D2*
X44190D1*
X44398Y31779D2*
Y32669D1*
X44440Y32627D1*
X43119Y29101D2*
Y28494D1*
X42878Y28252D1*
Y27545D1*
X42835Y27503D1*
X45190Y39440D2*
X44190D1*
X41190D2*
Y38420D1*
X41200Y38410D1*
Y38055D1*
X41503Y37752D1*
X42378D1*
X44003Y39377D1*
X44127D1*
X44190Y39440D1*
X43119Y29101D2*
Y29949D1*
X43003Y30065D1*
X42431Y14190D2*
X42408D1*
X41938Y14660D1*
X43940Y13940D2*
X44940D1*
X41938Y15660D2*
Y14660D1*
X44176Y11279D2*
Y12190D1*
X41190Y18910D2*
Y17910D1*
Y17690D1*
X41628Y17252D1*
X42252D1*
X43940Y18940D1*
X44940D1*
X42685Y7003D2*
Y7622D1*
X42878Y7815D1*
Y8620D1*
X42896Y8601D1*
X42940D1*
Y9003D1*
X42753Y9190D1*
Y9502D1*
X44190Y40440D2*
X45190D1*
X41948Y40410D2*
Y39450D1*
X41938Y39440D1*
Y38420D1*
X41948Y38410D1*
Y40410D2*
Y40440D1*
X44190D1*
X45190D2*
X45628D1*
X46128Y39940D1*
Y33503D1*
X46065Y33440D1*
X45190D1*
X44190D2*
X45190D1*
X42607Y29101D2*
Y30232D1*
X42940Y30565D1*
X43375D1*
X43630D1*
Y31779D1*
X43375Y29101D2*
Y30565D1*
X44398Y29101D2*
Y30565D1*
X43630D1*
X44654Y29101D2*
Y30565D1*
X44398D1*
X43773Y27503D2*
Y28023D1*
X44440Y28690D1*
Y29060D1*
X44398Y29101D1*
X46128Y33503D2*
Y31315D1*
X45378Y30565D1*
X44398D1*
X41938Y19910D2*
Y18910D1*
Y17910D1*
Y19910D2*
X43970D1*
X43940Y19940D1*
X44940D1*
X45565D1*
X46003Y19502D1*
Y12940D1*
Y10690D1*
X45253Y9940D1*
X44432D1*
X44176D1*
X43408D1*
X43152D1*
X42628D1*
X42378Y9690D1*
Y8608D1*
X42384Y8601D1*
X43408Y11279D2*
Y9940D1*
X43152Y8601D2*
Y9940D1*
X44176Y8601D2*
Y9940D1*
X44432Y8601D2*
Y9940D1*
X43940Y12940D2*
X44940D1*
X46003D1*
X43623Y7003D2*
Y7560D1*
X43753Y7690D1*
X43878D1*
X44190Y8002D1*
Y8587D1*
X44176Y8601D1*
X27549Y38093D2*
X27540D1*
Y38910D1*
X11128Y28565D2*
Y28627D1*
X12190D1*
X12395Y28422D1*
Y27768D1*
X25758Y35907D2*
Y35070D1*
X25418Y34730D1*
X25315D1*
Y34690D1*
X12065Y28315D2*
Y27752D1*
X12080Y27768D1*
X11765D2*
Y28052D1*
X11628Y28190D1*
X10753D1*
X16190Y34440D2*
Y37877D1*
Y38940D2*
X17440Y40190D1*
X24940D1*
X25690Y39440D1*
Y38900D1*
X25810Y38780D1*
Y38510D1*
X25758Y38458D1*
Y38093D1*
X28317Y35907D2*
Y35375D1*
X28628Y35065D1*
Y34877D1*
X11378Y27752D2*
X11442D1*
X10860Y27171D1*
Y26862D1*
X28061Y35907D2*
Y35209D1*
X28190Y35080D1*
X10815Y27752D2*
X10802D1*
X10380Y27330D1*
Y26720D1*
X10553Y26547D1*
X10860D1*
X7628Y18127D2*
X7565D1*
X6940Y18752D1*
X6065D1*
X5565Y19253D1*
Y19310D1*
X10860Y26232D2*
X10357D1*
X9790Y25665D1*
Y21477D1*
X9003Y20690D1*
X5315D1*
X5065Y20440D1*
Y19565D1*
X5320Y19310D1*
X5565D1*
X13440Y23877D2*
Y23940D1*
X11503Y25877D1*
X10900D1*
X10860Y25917D1*
X13440Y23378D2*
X13128Y23690D1*
Y23940D1*
X11465Y25602D1*
X10860D1*
X13065Y15127D2*
X12878D1*
X12378Y15627D1*
Y20565D1*
X12690Y20878D1*
Y21212D1*
X12710Y21232D1*
X27549Y12433D2*
Y13429D1*
X14628Y21690D2*
Y21205D1*
X14600Y21232D1*
X25758Y10247D2*
Y9428D1*
X25110Y8780D1*
X14940Y22002D2*
Y21232D1*
X14915D1*
X25758Y12433D2*
Y13242D1*
X25378Y13622D1*
Y14440D1*
X24753Y15065D1*
X22628D1*
X15315Y22252D2*
Y22002D1*
X15230Y21917D1*
Y21232D1*
X28317Y10247D2*
Y9813D1*
X28750Y9380D1*
Y9020D1*
X15628Y22002D2*
Y21815D1*
X15565Y21752D1*
Y21252D1*
X15545Y21232D1*
X28061Y10247D2*
Y9649D1*
X28390Y9320D1*
X16440Y22065D2*
Y22127D1*
X15860Y21547D1*
Y21232D1*
X7628Y16127D2*
X6878Y16878D1*
X5065D1*
X4753Y16565D1*
Y16002D1*
X5035Y15720D1*
X5565D1*
X15440Y16627D2*
Y18600D1*
X16190Y19350D1*
Y21217D1*
X16175Y21232D1*
X16490D2*
Y19210D1*
X16876Y18824D1*
Y14254D1*
X17440Y13690D1*
X17690D1*
X17395Y22138D2*
Y21895D1*
X17129Y21629D1*
Y14376D1*
X17315Y14190D1*
X18190D1*
X18690Y13690D1*
X27549Y21143D2*
Y21929D1*
X27740Y22120D1*
Y22130D1*
X18315Y23565D2*
X18128D1*
X17690Y23127D1*
X17350D1*
X17395Y23083D1*
X25758Y18957D2*
Y18383D1*
X25253Y17877D1*
Y17752D1*
X16880Y23390D2*
X17403D1*
X17395Y23398D1*
X25758Y21143D2*
Y21488D1*
X25800Y21530D1*
Y21955D1*
X25315Y22440D1*
Y22995D1*
X24620Y23690D1*
X22690D1*
X18060Y23920D2*
X17930D1*
X17700Y23690D1*
X17418D1*
X17395Y23713D1*
X28317Y18957D2*
Y18625D1*
X28753Y18190D1*
Y17878D1*
X16910Y24020D2*
Y24010D1*
X17378D1*
X17395Y24028D1*
X28061Y18957D2*
Y18444D1*
X28342Y18162D1*
X17920Y24360D2*
X17378D1*
X17395Y24343D1*
X5565Y13935D2*
X5132D1*
X4815Y14252D1*
Y14877D1*
X5128Y15190D1*
X7628D1*
Y15127D1*
X17395Y24657D2*
Y24627D1*
X15440D1*
X15346Y24534D1*
X17395Y24972D2*
X15362D1*
X15003Y24613D1*
Y24315D1*
X17395Y25287D2*
Y25252D1*
X15302D1*
X14630Y24580D1*
Y24520D1*
X14590Y24480D1*
X27549Y29643D2*
X27540D1*
Y29530D1*
X27550Y29540D1*
Y30510D1*
X18000Y26600D2*
X17652Y26252D1*
X17395D1*
Y26232D1*
X25758Y27457D2*
Y26578D1*
X25500Y26320D1*
Y26250D1*
X16787Y26530D2*
X17378D1*
X17395Y26547D1*
X25758Y29643D2*
Y29945D1*
X25815Y30002D1*
Y30372D1*
X25330Y30857D1*
Y31482D1*
X24688Y32125D1*
X22626D1*
X17680Y28660D2*
X17690D1*
Y27157D1*
X17395Y26862D1*
X28317Y27457D2*
Y27113D1*
X28620Y26810D1*
Y26860D1*
X16880Y27710D2*
Y27890D1*
X16470D1*
Y27787D1*
X16490Y27768D1*
X28061Y27457D2*
Y26819D1*
X28350Y26530D1*
X16378Y26940D2*
Y27190D1*
X16190Y27377D1*
Y27768D1*
X16175D1*
X7628Y17127D2*
Y17065D1*
X5877D1*
X5565Y17377D1*
Y17525D1*
X5105D1*
X4753Y17877D1*
Y20440D1*
X5190Y20877D1*
X8878D1*
X9630Y21630D1*
Y25817D1*
X9940Y26127D1*
Y26565D1*
X15940Y27065D2*
X15878D1*
Y27750D1*
X15860Y27768D1*
X14915D2*
Y27425D1*
X14850Y27360D1*
Y27250D1*
X19060Y27350D2*
X19160Y27250D1*
Y17410D1*
X19003Y17252D1*
X18252D1*
X17690Y16690D1*
X14600Y27768D2*
X14580D1*
Y28315D1*
X19065D2*
X19360Y28020D1*
Y17172D1*
X18878Y16690D1*
X18690D1*
D50*
X11065Y29315D3*
X20315Y37065D3*
X15503Y35315D3*
X10190Y18815D3*
X6378Y9127D3*
X14003Y17002D3*
X10190Y18815D3*
X28480Y24580D3*
X32190Y24690D3*
X24960Y38090D3*
X25040Y29630D3*
X28753D3*
X25040D3*
X28815Y21127D3*
X25003D3*
X28878Y12433D3*
X24940D3*
X28815Y21127D3*
X28780Y38090D3*
X24960D3*
X12253Y23377D3*
X14753Y6065D3*
Y8565D3*
X8128Y21315D3*
X14753Y8565D3*
Y6065D3*
X26503Y33440D3*
D20*
X28690Y33190D3*
D50*
X31252D3*
X26440Y24940D3*
D20*
X29003Y24752D3*
D50*
X31503D3*
X26503Y7627D3*
D20*
X29065D3*
D50*
X26440Y16252D3*
D20*
X28690D3*
D50*
X31565D3*
X25775Y34665D3*
X26014Y39076D3*
X11503Y23690D3*
X11815Y24002D3*
X11878Y23127D3*
X25815Y17690D3*
X13815Y27190D3*
X14270Y27250D3*
X26014Y30794D3*
X45690Y31779D3*
X26014Y26246D3*
X13815Y11752D3*
X14253Y9550D3*
X26014Y8746D3*
X25940Y22315D3*
X15128Y9377D3*
X11260Y9970D3*
X15260Y8950D3*
X11253Y8940D3*
X13810Y25940D3*
X14340Y22010D3*
X16350Y22980D3*
X13626Y22010D3*
X28190Y38690D3*
X25510Y38670D3*
X28270Y30220D3*
X25540D3*
X28390Y21720D3*
X25502Y21815D3*
X28315Y13002D3*
X25460Y13020D3*
X16350Y25940D3*
X15180D3*
X10751Y7440D3*
X11253Y10940D3*
X14220Y12502D3*
X25510Y38670D3*
X28628Y7252D3*
X21508Y33065D3*
X17440D3*
X22378Y6377D3*
X25460Y13020D3*
X21660Y15840D3*
X21390Y24540D3*
X18565Y24435D3*
X44065Y29940D3*
X42378Y33377D3*
X43690Y30190D3*
X42440Y36440D3*
X45503Y11252D3*
X26014Y13514D3*
X43878Y9377D3*
X42315Y13065D3*
X43503Y9627D3*
X42399Y16211D3*
X44753Y12190D3*
X45003Y32627D3*
X42503Y34440D3*
X44440Y32627D3*
X43003Y30065D3*
X42431Y14190D3*
X44176Y12190D3*
X42753Y9502D3*
X27540Y38910D3*
X11128Y28565D3*
X25315Y34690D3*
X12065Y28315D3*
X10753Y28190D3*
X16190Y34440D3*
Y37877D3*
Y38940D3*
X28628Y34877D3*
X11378Y27752D3*
X28190Y35080D3*
X10815Y27752D3*
X13440Y23877D3*
Y23378D3*
X27549Y13429D3*
X14628Y21690D3*
X25110Y8780D3*
X14940Y22002D3*
X22628Y15065D3*
X15315Y22252D3*
X28750Y9020D3*
X15628Y22002D3*
X28390Y9320D3*
X16440Y22065D3*
X15440Y16627D3*
X27740Y22130D3*
X18315Y23565D3*
X25253Y17752D3*
X16880Y23390D3*
X22690Y23690D3*
X18060Y23920D3*
X28753Y17878D3*
X16910Y24020D3*
X28342Y18162D3*
X17920Y24360D3*
X15346Y24534D3*
X15003Y24315D3*
X14590Y24480D3*
X27550Y30510D3*
X18000Y26600D3*
X25500Y26250D3*
X16787Y26530D3*
X22626Y32125D3*
X17680Y28660D3*
X28620Y26860D3*
X16880Y27710D3*
X28350Y26530D3*
X16378Y26940D3*
X9940Y26565D3*
X15940Y27065D3*
X14850Y27250D3*
X19060Y27350D3*
X14580Y28315D3*
X19065D3*
D20*
X26815Y37000D3*
X27315D3*
D50*
X27815D3*
D20*
X26815Y28500D3*
X26315Y37000D3*
D50*
X25815D3*
D20*
X27315Y28500D3*
D50*
X26565Y37375D3*
X27065D3*
X27565D3*
X27815Y28500D3*
X26065Y37375D3*
D20*
X26315Y28500D3*
D50*
X25815D3*
X26065Y36625D3*
X26565D3*
X27065D3*
X27565D3*
X27065Y28875D3*
X27565D3*
X26565D3*
X26065D3*
X26565Y28125D3*
X27065D3*
X27565D3*
X26065D3*
D20*
X26815Y20000D3*
X27315D3*
D50*
X27815D3*
D20*
X26315D3*
D50*
X25815D3*
X27065Y20375D3*
X27565D3*
X26565D3*
X26065D3*
Y19625D3*
X26565D3*
X27065D3*
X27565D3*
D20*
X26815Y11375D3*
X27315D3*
D50*
X27815D3*
D20*
X26315D3*
D50*
X25815D3*
X26565Y11750D3*
X27065D3*
X27565D3*
X26065D3*
X26565Y11000D3*
X27065D3*
X27565D3*
X26065D3*
X20315Y37440D3*
Y37815D3*
Y38190D3*
Y38565D3*
Y36690D3*
Y36315D3*
Y35940D3*
X11840Y26566D2*
D23*
X12983D1*
X13897D2*
X14901D1*
X15561D2*
X16405D1*
X11840Y26318D2*
X13229D1*
X14115D2*
X14901D1*
X15561D2*
X16284D1*
X11840Y26069D2*
X13429D1*
X14194D2*
X14796D1*
X15561D2*
X15968D1*
X11932Y25820D2*
X13425D1*
X14197D2*
X14796D1*
X15565D2*
X15964D1*
X12178Y25572D2*
X13694D1*
X13927D2*
X15061D1*
X15301D2*
X16233D1*
X12428Y25323D2*
X15003D1*
X12678Y25074D2*
X14753D1*
X12924Y24825D2*
X14464D1*
X11840Y24577D2*
X12120D1*
X13174D2*
X14218D1*
X11994Y24328D2*
X12366D1*
X13424D2*
X14237D1*
X15666D2*
X16542D1*
X12190Y24079D2*
X12616D1*
X13764D2*
X14706D1*
X15299D2*
X16530D1*
X12154Y23831D2*
X12858D1*
X13822D2*
X16542D1*
X12572Y23582D2*
X12882D1*
X13760D2*
X16542D1*
X12635Y23333D2*
X13058D1*
X13822D2*
X16186D1*
X12486Y23085D2*
X13206D1*
X13674D2*
X15960D1*
X12115Y22836D2*
X15972D1*
X11840Y22587D2*
X15159D1*
X15471D2*
X16522D1*
X12018Y22339D2*
X13409D1*
X13842D2*
X14124D1*
X14557D2*
X14788D1*
X15779D2*
X16183D1*
X12591Y23255D2*
X12529Y23147D1*
X12434Y23067D1*
X12318Y23023D1*
X12220D1*
X12154Y22897D1*
X12059Y22817D1*
X11943Y22773D1*
X11815Y22774D1*
Y22514D1*
X12078Y22254D1*
X13337Y22255D1*
X13363Y22284D1*
X13466Y22354D1*
X13586Y22388D1*
X13710Y22381D1*
X13825Y22334D1*
X13919Y22252D1*
X13983Y22141D1*
X14002Y22184D1*
X14077Y22284D1*
X14179Y22354D1*
X14299Y22388D1*
X14424Y22381D1*
X14539Y22334D1*
X14633Y22252D1*
X14650Y22222D1*
X14753Y22310D1*
X14869Y22355D1*
X14974Y22358D1*
X15035Y22478D1*
X15128Y22560D1*
X15244Y22605D1*
X15368Y22609D1*
X15486Y22569D1*
X15584Y22492D1*
X15649Y22386D1*
X15655Y22360D1*
X15799Y22319D1*
X15896Y22242D1*
X15962Y22136D1*
X15977Y22064D1*
X16040Y22074D1*
X16082Y22116D1*
X16100Y22182D1*
X16160Y22291D1*
X16253Y22373D1*
X16369Y22418D1*
X16493Y22421D1*
X16563Y22398D1*
X16565Y22569D1*
X16446Y22612D1*
X16322Y22601D1*
X16201Y22630D1*
X16096Y22697D1*
X16018Y22794D1*
X15976Y22912D1*
X15974Y23036D1*
X16012Y23154D1*
X16087Y23254D1*
X16189Y23324D1*
X16309Y23358D1*
X16434Y23351D1*
X16531Y23311D1*
X16520Y23384D1*
X16540Y23507D1*
X16565Y23565D1*
Y23920D1*
X16550Y24014D1*
X16565Y24110D1*
Y24381D1*
X15673Y24382D1*
X15623Y24303D1*
X15528Y24223D1*
X15411Y24180D1*
X15338Y24179D1*
X15279Y24085D1*
X15184Y24004D1*
X15068Y23961D1*
X14943Y23960D1*
X14826Y24001D1*
X14730Y24080D1*
X14696Y24137D1*
X14655Y24126D1*
X14531Y24125D1*
X14413Y24166D1*
X14317Y24245D1*
X14254Y24352D1*
X14230Y24474D1*
X14250Y24597D1*
X14310Y24706D1*
X14403Y24788D1*
X14538Y24833D1*
X15129Y25426D1*
X15240Y25488D1*
X15302Y25497D1*
X16564D1*
X16565Y25616D1*
X16446Y25572D1*
X16322Y25561D1*
X16201Y25590D1*
X16096Y25657D1*
X16018Y25754D1*
X15976Y25872D1*
X15974Y25996D1*
X16012Y26114D1*
X16087Y26214D1*
X16189Y26284D1*
X16309Y26318D1*
X16434Y26311D1*
X16545Y26265D1*
X16515Y26295D1*
X16451Y26402D1*
X16428Y26524D1*
X16437Y26582D1*
X16318Y26585D1*
X16201Y26626D1*
X16105Y26705D1*
X16087Y26735D1*
X16005Y26711D1*
X15881Y26710D1*
X15763Y26751D1*
X15688Y26813D1*
X15538Y26815D1*
X15535Y26075D1*
X15560Y25940D1*
X15540Y25817D1*
X15481Y25708D1*
X15390Y25623D1*
X15276Y25572D1*
X15152Y25561D1*
X15031Y25590D1*
X14926Y25657D1*
X14848Y25754D1*
X14806Y25872D1*
X14804Y25996D1*
X14842Y26114D1*
X14926Y26221D1*
X14925Y26819D1*
X14190Y26815D1*
X13624D1*
X14026Y26411D1*
X14094Y26303D1*
X14115Y26195D1*
Y26168D1*
X14165Y26075D1*
X14190Y25940D1*
X14170Y25817D1*
X14111Y25708D1*
X14020Y25623D1*
X13906Y25572D1*
X13782Y25561D1*
X13661Y25590D1*
X13556Y25657D1*
X13478Y25754D1*
X13436Y25872D1*
X13434Y25996D1*
X13469Y26103D1*
X12757Y26816D1*
X11815Y26815D1*
Y25913D1*
X13493Y24234D1*
X13611Y24194D1*
X13709Y24117D1*
X13774Y24011D1*
X13800Y23877D1*
X13779Y23755D1*
X13717Y23647D1*
X13696Y23630D1*
X13774Y23511D1*
X13800Y23378D1*
X13779Y23255D1*
X13717Y23147D1*
X13622Y23067D1*
X13505Y23023D1*
X13381Y23022D1*
X13263Y23064D1*
X13167Y23143D1*
X13104Y23249D1*
X13083Y23391D1*
X12954Y23517D1*
X12892Y23627D1*
X12883Y23690D1*
Y23842D1*
X12336Y24385D1*
X11814Y24908D1*
X11815Y24366D1*
X11868Y24359D1*
X11986Y24319D1*
X12084Y24242D1*
X12149Y24136D1*
X12175Y24002D1*
X12154Y23880D1*
X12092Y23772D1*
X12065Y23750D1*
X12182Y23730D1*
X12306Y23734D1*
X12424Y23694D1*
X12521Y23617D1*
X12587Y23511D1*
X12613Y23377D1*
X12591Y23255D1*
X17893Y39551D2*
D10*
X22764D1*
X31016D2*
X33630D1*
X17793Y39453D2*
X22764D1*
X31016D2*
X33630D1*
X17695Y39354D2*
X22764D1*
X31016D2*
X33630D1*
X17596Y39255D2*
X22764D1*
X31016D2*
X33630D1*
X17498Y39157D2*
X22764D1*
X31016D2*
X33630D1*
X17399Y39058D2*
X22764D1*
X31016D2*
X33630D1*
X17301Y38959D2*
X22764D1*
X31016D2*
X33630D1*
X17202Y38860D2*
X22764D1*
X31016D2*
X33630D1*
X17102Y38762D2*
X22764D1*
X31016D2*
X33630D1*
X17004Y38663D2*
X22764D1*
X31016D2*
X33630D1*
X17000Y38564D2*
X22764D1*
X31016D2*
X33630D1*
X17000Y38466D2*
X22764D1*
X31016D2*
X33630D1*
X17010Y38367D2*
X22764D1*
X31016D2*
X33630D1*
X17109Y38268D2*
X24223D1*
X29595D2*
X33630D1*
X17207Y38170D2*
X24321D1*
X29496D2*
X33630D1*
X17270Y38071D2*
X24420D1*
X29398D2*
X33630D1*
X17293Y37972D2*
X24518D1*
X29299D2*
X33630D1*
X17295Y37874D2*
X24607D1*
X29201D2*
X33630D1*
X17295Y37775D2*
X24696D1*
X29102D2*
X33630D1*
X17295Y37676D2*
X24867D1*
X28948D2*
X33630D1*
X17295Y37578D2*
X24931D1*
X28893D2*
X33630D1*
X17295Y37479D2*
X33630D1*
X17295Y37380D2*
X33630D1*
X17295Y37281D2*
X33630D1*
X17295Y37183D2*
X33630D1*
X17295Y37084D2*
X33630D1*
X17295Y36985D2*
X33630D1*
X17295Y36887D2*
X33630D1*
X17295Y36788D2*
X33630D1*
X17295Y36689D2*
X33630D1*
X17295Y36591D2*
X33630D1*
X17295Y36492D2*
X33630D1*
X17295Y36393D2*
X24931D1*
X28893D2*
X33630D1*
X17295Y36295D2*
X24864D1*
X28952D2*
X33630D1*
X17295Y36196D2*
X24745D1*
X29073D2*
X33630D1*
X17295Y36097D2*
X24645D1*
X29173D2*
X33628D1*
X17295Y35999D2*
X24546D1*
X29957D2*
X30934D1*
X32162D2*
X33529D1*
X17295Y35900D2*
X21659D1*
X22887D2*
X23864D1*
X29957D2*
X30934D1*
X32162D2*
X33431D1*
X17295Y35801D2*
X21659D1*
X22887D2*
X23864D1*
X29957D2*
X30934D1*
X32162D2*
X33332D1*
X17295Y35702D2*
X21659D1*
X22887D2*
X23864D1*
X29957D2*
X30934D1*
X32162D2*
X33234D1*
X17295Y35604D2*
X21659D1*
X22887D2*
X23864D1*
X29957D2*
X30934D1*
X32162D2*
X33134D1*
X17295Y35505D2*
X21659D1*
X22887D2*
X23864D1*
X29957D2*
X30934D1*
X32162D2*
X33053D1*
X17295Y35406D2*
X21659D1*
X22887D2*
X23864D1*
X29957D2*
X30934D1*
X32162D2*
X33006D1*
X17295Y35308D2*
X21659D1*
X22887D2*
X23864D1*
X29957D2*
X30934D1*
X32162D2*
X32987D1*
X17295Y35209D2*
X21659D1*
X22887D2*
X23864D1*
X29957D2*
X30934D1*
X32162D2*
X32985D1*
X17295Y35110D2*
X21659D1*
X22887D2*
X23864D1*
X29957D2*
X30934D1*
X32162D2*
X32985D1*
X17295Y35012D2*
X21659D1*
X22887D2*
X23864D1*
X29957D2*
X30934D1*
X32162D2*
X32985D1*
X17295Y34913D2*
X21659D1*
X22887D2*
X23864D1*
X29957D2*
X30934D1*
X32162D2*
X32985D1*
X17376Y34814D2*
X21659D1*
X22887D2*
X23864D1*
X29957D2*
X30934D1*
X32162D2*
X32985D1*
X17474Y34716D2*
X21659D1*
X22887D2*
X23864D1*
X29957D2*
X30934D1*
X32162D2*
X32985D1*
X17573Y34617D2*
X21659D1*
X22887D2*
X23864D1*
X29957D2*
X30934D1*
X32162D2*
X32978D1*
X17673Y34518D2*
X21659D1*
X22887D2*
X23864D1*
X29957D2*
X30934D1*
X32162D2*
X32879D1*
X17752Y34420D2*
X21659D1*
X22887D2*
X23864D1*
X17788Y34321D2*
X21659D1*
X17795Y34222D2*
X21654D1*
X17795Y34123D2*
X21654D1*
X17795Y34025D2*
X21654D1*
X17795Y33926D2*
X21654D1*
X17795Y33827D2*
X21654D1*
X17795Y33729D2*
X21654D1*
X17795Y33630D2*
X21654D1*
X17795Y33531D2*
X21654D1*
X17795Y33433D2*
X21381D1*
X17795Y33334D2*
X21364D1*
X17795Y33235D2*
X21248D1*
X17795Y33137D2*
X21203D1*
X17795Y33038D2*
X21193D1*
X17795Y32939D2*
X21218D1*
X17795Y32841D2*
X21285D1*
X17795Y32742D2*
X21381D1*
X17795Y32643D2*
X21381D1*
X17795Y32544D2*
X21381D1*
X17795Y32446D2*
X21381D1*
X17795Y32347D2*
X21381D1*
X17795Y32248D2*
X21381D1*
X17795Y32150D2*
X21381D1*
X17795Y32051D2*
X21381D1*
X17795Y31952D2*
X21381D1*
X17795Y31854D2*
X21381D1*
X17795Y31755D2*
X21381D1*
X17795Y31656D2*
X21381D1*
X17795Y31558D2*
X21381D1*
X24192Y38309D2*
X23876Y38310D1*
X23844Y38309D1*
X22774D1*
Y39650D1*
X17982D1*
X16989Y38658D1*
X16990Y38377D1*
X17184Y38184D1*
X17217Y38146D1*
X17244Y38104D1*
X17264Y38059D1*
X17278Y38010D1*
X17283Y37974D1*
X17285Y37740D1*
Y34895D1*
X17684Y34496D1*
X17717Y34459D1*
X17744Y34417D1*
X17764Y34371D1*
X17778Y34323D1*
X17783Y34286D1*
X17785Y34053D1*
Y31501D1*
X18190Y31500D1*
X21390D1*
Y32779D1*
X21345Y32802D1*
X21305Y32832D1*
X21271Y32868D1*
X21243Y32909D1*
X21221Y32954D1*
X21208Y33002D1*
X21203Y33052D1*
X21205Y33102D1*
X21216Y33150D1*
X21235Y33197D1*
X21261Y33239D1*
X21293Y33277D1*
X21332Y33309D1*
X21391Y33341D1*
X21390Y33450D1*
X21414Y33492D1*
X21440Y33500D1*
X21665Y33502D1*
Y34314D1*
X21669D1*
X21668Y34410D1*
Y35930D1*
X22877D1*
Y34324D1*
X23420D1*
Y34332D1*
X23874D1*
X23873Y34670D1*
Y35930D1*
X24487D1*
X24783Y36225D1*
X24820Y36258D1*
X24861Y36287D1*
X24941Y36326D1*
X24940Y36485D1*
X25560Y36483D1*
X25540Y36485D1*
X25848Y36482D1*
X26068Y36481D1*
X26110Y36482D1*
X26580Y36481D1*
X26602Y36482D1*
X27603Y36481D1*
X27645Y36482D1*
X28115Y36481D1*
X28157Y36482D1*
X28627Y36481D1*
X28663Y36482D1*
X28883D1*
Y36322D1*
X28917Y36308D1*
X28961Y36283D1*
X29001Y36254D1*
X29108Y36151D1*
X29244Y36016D1*
X29947Y36015D1*
Y34510D1*
X30945D1*
X30943Y34545D1*
Y36015D1*
X32152D1*
Y34510D1*
X32882D1*
X32995Y34624D1*
Y35270D1*
X32998Y35320D1*
X33006Y35369D1*
X33020Y35417D1*
X33039Y35463D1*
X33063Y35507D1*
X33092Y35548D1*
X33161Y35620D1*
X33640Y36100D1*
Y39642D1*
X33590Y39650D1*
X31007D1*
X31006Y39511D1*
Y38309D1*
X29624D1*
X29268Y37951D1*
X29057Y37745D1*
X29017Y37716D1*
X28973Y37691D1*
X28927Y37672D1*
X28883Y37660D1*
Y37518D1*
X28263Y37519D1*
X28267Y37518D1*
X27601D1*
X27550Y37515D1*
X26980Y37517D1*
X26877Y37518D1*
X26216Y37519D1*
X26174Y37518D1*
X25704Y37519D1*
X25668Y37518D1*
X25560D1*
Y37515D1*
X24940D1*
X24939Y37657D1*
X24891Y37671D1*
X24845Y37690D1*
X24790Y37722D1*
X24714Y37768D1*
X24677Y37801D1*
X24643Y37838D1*
X24606Y37894D1*
X24192Y38309D1*
X23339Y39090D2*
D16*
Y38309D1*
X22774Y39090D2*
X23339D1*
X30441D2*
Y38309D1*
Y39090D2*
X31006D1*
X22273Y35930D2*
Y35050D1*
X21669D2*
X22877D1*
X31547Y36015D2*
Y35135D1*
X30943D2*
X32151D1*
X26782Y36482D2*
Y35907D1*
X28317Y38093D2*
Y37518D1*
X17806Y31261D2*
X22753D1*
X17806Y31143D2*
X22753D1*
X17806Y31024D2*
X22753D1*
X31029D2*
X33369D1*
X17806Y30905D2*
X22753D1*
X31029D2*
X33369D1*
X17806Y30787D2*
X22753D1*
X31029D2*
X33369D1*
X17806Y30668D2*
X22753D1*
X31029D2*
X33369D1*
X17845Y30549D2*
X22753D1*
X31029D2*
X33369D1*
X17964Y30430D2*
X22753D1*
X31029D2*
X33369D1*
X18082Y30312D2*
X22753D1*
X31029D2*
X33369D1*
X18202Y30193D2*
X22753D1*
X31029D2*
X33369D1*
X18320Y30074D2*
X22753D1*
X31029D2*
X33369D1*
X18438Y29956D2*
X22753D1*
X31029D2*
X33369D1*
X18556Y29837D2*
X22753D1*
X31029D2*
X33369D1*
X18676Y29718D2*
X24296D1*
X29499D2*
X33369D1*
X18794Y29600D2*
X24416D1*
X29380D2*
X33369D1*
X18890Y29481D2*
X24534D1*
X29260D2*
X33369D1*
X18929Y29362D2*
X24652D1*
X29142D2*
X33369D1*
X18931Y29244D2*
X24787D1*
X29007D2*
X33369D1*
X18931Y29125D2*
X24918D1*
X28904D2*
X33369D1*
X18931Y29006D2*
X33369D1*
X18931Y28888D2*
X33369D1*
X18931Y28769D2*
X33369D1*
X19321Y28650D2*
X33285D1*
X19432Y28531D2*
X33166D1*
X19480Y28413D2*
X33056D1*
X19522Y28294D2*
X32996D1*
X19608Y28175D2*
X32973D1*
X19632Y28057D2*
X32973D1*
X19632Y27938D2*
X24918D1*
X28904D2*
X32973D1*
X19632Y27819D2*
X24727D1*
X29015D2*
X32973D1*
X19632Y27701D2*
X24607D1*
X29148D2*
X32973D1*
X19632Y27582D2*
X24489D1*
X29266D2*
X32973D1*
X19632Y27463D2*
X24371D1*
X30024D2*
X30976D1*
X32229D2*
X32973D1*
X19632Y27345D2*
X21781D1*
X23034D2*
X23986D1*
X30024D2*
X30976D1*
X32229D2*
X32973D1*
X19632Y27226D2*
X21781D1*
X23034D2*
X23986D1*
X30024D2*
X30976D1*
X32229D2*
X32973D1*
X19632Y27107D2*
X21781D1*
X23034D2*
X23986D1*
X30024D2*
X30976D1*
X32229D2*
X32973D1*
X19632Y26989D2*
X21781D1*
X23034D2*
X23986D1*
X30024D2*
X30976D1*
X32229D2*
X32973D1*
X19632Y26870D2*
X21781D1*
X23034D2*
X23986D1*
X30024D2*
X30976D1*
X32229D2*
X32973D1*
X19632Y26751D2*
X21781D1*
X23034D2*
X23986D1*
X30024D2*
X30976D1*
X32229D2*
X32973D1*
X19632Y26632D2*
X21781D1*
X23034D2*
X23986D1*
X30027D2*
X30976D1*
X32229D2*
X32973D1*
X19632Y26514D2*
X21781D1*
X23034D2*
X23986D1*
X30024D2*
X30976D1*
X32229D2*
X32859D1*
X19632Y26395D2*
X21781D1*
X23034D2*
X23986D1*
X30024D2*
X30976D1*
X32229D2*
X32739D1*
X19632Y26276D2*
X21781D1*
X23034D2*
X23986D1*
X30024D2*
X30976D1*
X32229D2*
X32621D1*
X19632Y26158D2*
X21781D1*
X23034D2*
X23986D1*
X30024D2*
X30976D1*
X32229D2*
X32503D1*
X19632Y26039D2*
X21781D1*
X23034D2*
X23986D1*
X30024D2*
X30976D1*
X32229D2*
X32385D1*
X24227Y29799D2*
X23866Y29800D1*
X23842Y29799D1*
X22764D1*
Y31380D1*
X17793D1*
X17795Y31025D1*
Y30588D1*
X18816Y29566D1*
X18855Y29520D1*
X18885Y29469D1*
X18906Y29413D1*
X18918Y29350D1*
X18920Y29015D1*
Y28702D1*
X18970Y28719D1*
X19029Y28728D1*
X19089Y28729D1*
X19149Y28721D1*
X19206Y28705D1*
X19261Y28681D1*
X19312Y28649D1*
X19357Y28610D1*
X19397Y28564D1*
X19429Y28514D1*
X19454Y28459D1*
X19471Y28402D1*
X19480Y28324D1*
X19532Y28272D1*
X19570Y28226D1*
X19598Y28173D1*
X19615Y28115D1*
X19620Y28060D1*
Y25999D1*
X21794Y26000D1*
X21793Y26224D1*
Y27440D1*
X23022D1*
Y26000D1*
X23999D1*
X23998Y26440D1*
Y27440D1*
X24360D1*
X24743Y27824D1*
X24788Y27864D1*
X24838Y27897D1*
X24892Y27923D1*
X24929Y27936D1*
X24930Y28045D1*
X25570Y28043D1*
X25540Y28045D1*
X25978Y28042D1*
X26078Y28041D1*
X26130Y28042D1*
X26590Y28041D1*
X26630Y28042D1*
X27613Y28041D1*
X27665Y28042D1*
X28125Y28041D1*
X28177Y28042D1*
X28637Y28041D1*
X28613Y28042D1*
X28893D1*
Y27872D1*
X28935Y27857D1*
X28988Y27829D1*
X29037Y27795D1*
X29159Y27677D1*
X29357Y27479D1*
X30012Y27480D1*
X30015Y26630D1*
X30012Y26520D1*
Y26019D1*
X30987Y26020D1*
X30988Y26144D1*
Y27480D1*
X32217D1*
Y26020D1*
X32378D1*
X32984Y26628D1*
X32985Y28150D1*
X32989Y28210D1*
X33001Y28269D1*
X33020Y28325D1*
X33047Y28379D1*
X33080Y28429D1*
X33161Y28514D1*
X33379Y28733D1*
X33380Y31094D1*
X31016Y31095D1*
Y29799D1*
X29567D1*
X29077Y29308D1*
X29032Y29269D1*
X28982Y29236D1*
X28894Y29198D1*
X28893Y29058D1*
X28253Y29059D1*
X28229Y29058D1*
X27610D1*
X27550Y29055D1*
X26829Y29058D1*
X26206Y29059D1*
X26154Y29058D1*
X25694Y29059D1*
X25718Y29058D1*
X25570Y29055D1*
X24930D1*
Y29188D1*
X24857Y29213D1*
X24804Y29241D1*
X24755Y29275D1*
X24633Y29393D1*
X24229Y29797D1*
X23339Y30590D2*
Y29799D1*
X22764Y30590D2*
X23339D1*
X30441D2*
Y29799D1*
Y30590D2*
X31016D1*
X22408Y27440D2*
Y26550D1*
X21794D2*
X23022D1*
X31602Y27480D2*
Y26590D1*
X30988D2*
X32216D1*
X26782Y28042D2*
Y27457D1*
X28317Y29643D2*
Y29058D1*
X20512Y22761D2*
X22752D1*
X20512Y22643D2*
X22752D1*
X31028D2*
X33368D1*
X20512Y22524D2*
X22752D1*
X31028D2*
X33368D1*
X20512Y22405D2*
X22752D1*
X31028D2*
X33368D1*
X20512Y22287D2*
X22752D1*
X31028D2*
X33368D1*
X20512Y22168D2*
X22752D1*
X31028D2*
X33368D1*
X20512Y22049D2*
X22752D1*
X31028D2*
X33368D1*
X20512Y21930D2*
X22752D1*
X31028D2*
X33368D1*
X20512Y21812D2*
X22752D1*
X31028D2*
X33368D1*
X20512Y21693D2*
X22752D1*
X31028D2*
X33368D1*
X20512Y21574D2*
X22752D1*
X31028D2*
X33368D1*
X20512Y21456D2*
X22752D1*
X31028D2*
X33368D1*
X20512Y21337D2*
X22752D1*
X31028D2*
X33368D1*
X20512Y21218D2*
X24320D1*
X29562D2*
X33368D1*
X20512Y21100D2*
X24438D1*
X29442D2*
X33368D1*
X20512Y20981D2*
X24556D1*
X29324D2*
X33368D1*
X20512Y20862D2*
X24672D1*
X29205D2*
X33368D1*
X20512Y20744D2*
X24816D1*
X29070D2*
X33368D1*
X20512Y20625D2*
X24918D1*
X28905D2*
X33368D1*
X20512Y20506D2*
X33368D1*
X20512Y20388D2*
X33368D1*
X20512Y20269D2*
X33368D1*
X20512Y20150D2*
X33368D1*
X20512Y20031D2*
X33368D1*
X20512Y19913D2*
X33368D1*
X20512Y19794D2*
X33368D1*
X20512Y19675D2*
X33368D1*
X20512Y19557D2*
X33368D1*
X20512Y19438D2*
X24918D1*
X28905D2*
X33368D1*
X20512Y19319D2*
X24732D1*
X29022D2*
X33368D1*
X20512Y19201D2*
X24608D1*
X29147D2*
X33295D1*
X20512Y19082D2*
X24488D1*
X29265D2*
X33177D1*
X20512Y18963D2*
X24370D1*
X30004D2*
X30957D1*
X32209D2*
X33065D1*
X20512Y18845D2*
X21601D1*
X22853D2*
X23806D1*
X30004D2*
X30957D1*
X32209D2*
X33001D1*
X20512Y18726D2*
X21601D1*
X22853D2*
X23806D1*
X30004D2*
X30957D1*
X32209D2*
X32975D1*
X20512Y18607D2*
X21601D1*
X22853D2*
X23806D1*
X30004D2*
X30957D1*
X32209D2*
X32973D1*
X20512Y18489D2*
X21601D1*
X22853D2*
X23806D1*
X30004D2*
X30957D1*
X32209D2*
X32973D1*
X20512Y18370D2*
X21601D1*
X22853D2*
X23806D1*
X30004D2*
X30957D1*
X32209D2*
X32973D1*
X20512Y18251D2*
X21601D1*
X22853D2*
X23806D1*
X30004D2*
X30957D1*
X32209D2*
X32973D1*
X20512Y18132D2*
X21601D1*
X22853D2*
X23806D1*
X30004D2*
X30957D1*
X32209D2*
X32973D1*
X20512Y18014D2*
X21601D1*
X22853D2*
X23806D1*
X30004D2*
X30957D1*
X32209D2*
X32973D1*
X20512Y17895D2*
X21601D1*
X22853D2*
X23806D1*
X30004D2*
X30957D1*
X32209D2*
X32973D1*
X20512Y17776D2*
X21601D1*
X22853D2*
X23806D1*
X30004D2*
X30957D1*
X32209D2*
X32973D1*
X20512Y17658D2*
X21601D1*
X22853D2*
X23806D1*
X30004D2*
X30957D1*
X32209D2*
X32941D1*
X20512Y17539D2*
X21601D1*
X22853D2*
X23806D1*
X30004D2*
X30957D1*
X32209D2*
X32821D1*
X24249Y21299D2*
X23866Y21300D1*
X23842Y21299D1*
X22764D1*
Y22880D1*
X20500D1*
Y17500D1*
X21613D1*
Y18920D1*
X22842D1*
Y17500D1*
X23818D1*
Y18920D1*
X24337D1*
X24701Y19282D1*
X24746Y19321D1*
X24796Y19354D1*
X24850Y19381D1*
X24930Y19405D1*
Y19545D1*
X25570Y19543D1*
X25540Y19545D1*
X25978Y19542D1*
X26078Y19541D1*
X26130Y19542D1*
X26590Y19541D1*
X26630Y19542D1*
X27613Y19541D1*
X27665Y19542D1*
X28125Y19541D1*
X28177Y19542D1*
X28637Y19541D1*
X28613Y19542D1*
X28893D1*
Y19383D1*
X28971Y19347D1*
X29020Y19312D1*
X29142Y19194D1*
X29366Y18970D1*
X29992D1*
Y17521D1*
X30968Y17520D1*
Y18970D1*
X32197D1*
Y17520D1*
X32813D1*
X32984Y17690D1*
X32985Y18690D1*
X32989Y18750D1*
X33001Y18809D1*
X33020Y18865D1*
X33047Y18919D1*
X33080Y18969D1*
X33161Y19054D1*
X33379Y19273D1*
X33380Y22647D1*
X33183Y22645D1*
X31017D1*
X31016Y22077D1*
Y21299D1*
X29631D1*
X29137Y20806D1*
X29092Y20766D1*
X29042Y20733D1*
X28988Y20707D1*
X28931Y20688D1*
X28892Y20680D1*
X28893Y20558D1*
X28253Y20559D1*
X28229Y20558D1*
X27610D1*
X27550Y20555D1*
X26829Y20558D1*
X26206Y20559D1*
X26154Y20558D1*
X25694Y20559D1*
X25718Y20558D1*
X25570Y20555D1*
X24930D1*
Y20703D1*
X24870Y20723D1*
X24817Y20751D1*
X24722Y20822D1*
X24673Y20876D1*
X24249Y21300D1*
X23339Y22090D2*
Y21299D1*
X22764Y22090D2*
X23339D1*
X30441D2*
Y21299D1*
Y22090D2*
X31016D1*
X22228Y18920D2*
Y18030D1*
X21614D2*
X22842D1*
X31582Y18970D2*
Y18080D1*
X30968D2*
X32196D1*
X26782Y19542D2*
Y18957D1*
X28317Y21143D2*
Y20558D1*
X19512Y14011D2*
X22751D1*
X19512Y13893D2*
X22751D1*
X31027D2*
X33619D1*
X19512Y13774D2*
X22751D1*
X31027D2*
X33619D1*
X19512Y13655D2*
X22751D1*
X31027D2*
X33619D1*
X19512Y13537D2*
X22751D1*
X31027D2*
X33619D1*
X19512Y13418D2*
X22751D1*
X31027D2*
X33619D1*
X19512Y13299D2*
X22751D1*
X31027D2*
X33619D1*
X19512Y13180D2*
X22751D1*
X31027D2*
X33619D1*
X19512Y13062D2*
X22751D1*
X31027D2*
X33619D1*
X19512Y12943D2*
X22751D1*
X31027D2*
X33619D1*
X19512Y12824D2*
X22751D1*
X31027D2*
X33619D1*
X19512Y12706D2*
X22751D1*
X31027D2*
X33619D1*
X19512Y12587D2*
X24201D1*
X29687D2*
X33619D1*
X19512Y12468D2*
X24319D1*
X29569D2*
X33619D1*
X19512Y12350D2*
X24437D1*
X29450D2*
X33619D1*
X19512Y12231D2*
X24557D1*
X29330D2*
X33619D1*
X19512Y12112D2*
X24664D1*
X29212D2*
X33619D1*
X19512Y11994D2*
X24872D1*
X29010D2*
X33589D1*
X19512Y11875D2*
X24919D1*
X28905D2*
X33469D1*
X19512Y11756D2*
X33351D1*
X19512Y11638D2*
X33233D1*
X19512Y11519D2*
X33113D1*
X19512Y11400D2*
X33025D1*
X19512Y11281D2*
X32983D1*
X19512Y11163D2*
X32974D1*
X19512Y11044D2*
X32974D1*
X19512Y10925D2*
X32974D1*
X19512Y10807D2*
X24919D1*
X28905D2*
X32974D1*
X19512Y10688D2*
X24919D1*
X28905D2*
X32974D1*
X19512Y10569D2*
X24726D1*
X29090D2*
X32974D1*
X19512Y10451D2*
X24608D1*
X29210D2*
X32974D1*
X19512Y10332D2*
X24490D1*
X29329D2*
X32974D1*
X19512Y10213D2*
X21493D1*
X22747D2*
X23693D1*
X30056D2*
X31003D1*
X32257D2*
X32974D1*
X19512Y10095D2*
X21493D1*
X22747D2*
X23693D1*
X30056D2*
X31003D1*
X32257D2*
X32974D1*
X19512Y9976D2*
X21493D1*
X22747D2*
X23693D1*
X30056D2*
X31003D1*
X32257D2*
X32974D1*
X19512Y9857D2*
X21493D1*
X22747D2*
X23693D1*
X30056D2*
X31003D1*
X32257D2*
X32974D1*
X19512Y9739D2*
X21493D1*
X22747D2*
X23693D1*
X30056D2*
X31003D1*
X32257D2*
X32974D1*
X19512Y9620D2*
X21493D1*
X22747D2*
X23693D1*
X30056D2*
X31003D1*
X32257D2*
X32974D1*
X19512Y9501D2*
X21493D1*
X22747D2*
X23693D1*
X30056D2*
X31003D1*
X32257D2*
X32974D1*
X19512Y9382D2*
X21493D1*
X22747D2*
X23693D1*
X30056D2*
X31003D1*
X32257D2*
X32974D1*
X19512Y9264D2*
X21493D1*
X22747D2*
X23693D1*
X30056D2*
X31003D1*
X32257D2*
X32974D1*
X19512Y9145D2*
X21493D1*
X22747D2*
X23693D1*
X30056D2*
X31003D1*
X32257D2*
X32865D1*
X19512Y9026D2*
X21493D1*
X22747D2*
X23693D1*
X30056D2*
X31003D1*
X32257D2*
X32747D1*
X19512Y8908D2*
X21493D1*
X22747D2*
X23693D1*
X30056D2*
X31003D1*
X32257D2*
X32627D1*
X19512Y8789D2*
X21493D1*
X22747D2*
X23693D1*
X19512Y8670D2*
X21493D1*
X22747D2*
X23693D1*
X19512Y8552D2*
X21493D1*
X22747D2*
X23693D1*
X24201Y12599D2*
X23866Y12600D1*
X23842Y12599D1*
X22764D1*
Y14130D1*
X19500D1*
Y8500D1*
X21504D1*
X21505Y10310D1*
X22735D1*
Y8500D1*
X23706D1*
X23705Y10310D1*
X24479D1*
X24741Y10572D1*
X24786Y10611D1*
X24836Y10644D1*
X24890Y10671D1*
X24930Y10685D1*
Y10835D1*
X25570Y10833D1*
X25820Y10835D1*
X25858Y10832D1*
X26078Y10831D1*
X26130Y10832D1*
X26590Y10831D1*
X26630Y10832D1*
X27613Y10831D1*
X27665Y10832D1*
X28125Y10831D1*
X28177Y10832D1*
X28637Y10831D1*
X28613Y10832D1*
X28893D1*
Y10681D1*
X28940Y10664D1*
X28993Y10637D1*
X29042Y10602D1*
X29164Y10484D1*
X29319Y10329D1*
X30045Y10330D1*
Y8832D1*
X31014Y8833D1*
X31015Y10330D1*
X32245D1*
Y8833D1*
X32563D1*
X32986Y9255D1*
X32985Y10025D1*
Y11190D1*
X32989Y11250D1*
X33001Y11309D1*
X33020Y11365D1*
X33047Y11419D1*
X33080Y11469D1*
X33161Y11554D1*
X33631Y12025D1*
X33630Y12400D1*
Y13984D1*
X31014Y13985D1*
X31016Y13917D1*
Y12599D1*
X29687D1*
X29199Y12111D1*
X29154Y12071D1*
X29104Y12038D1*
X29050Y12012D1*
X28994Y11993D1*
X28935Y11981D1*
X28892Y11979D1*
X28893Y11848D1*
X28253Y11849D1*
X28229Y11848D1*
X27610D1*
X27550Y11845D1*
X26829Y11848D1*
X26206Y11849D1*
X26154Y11848D1*
X25694Y11849D1*
X25642Y11848D1*
X25570Y11845D1*
X24930D1*
Y11982D1*
X24830Y12013D1*
X24777Y12041D1*
X24706Y12090D1*
X24659Y12127D1*
X24618Y12170D1*
X24594Y12206D1*
X24202Y12597D1*
X23339Y13390D2*
Y12599D1*
X22764Y13390D2*
X23339D1*
X30441D2*
Y12599D1*
Y13390D2*
X31016D1*
X22120Y10310D2*
Y9350D1*
X21505D2*
X22735D1*
X31630Y10330D2*
Y9370D1*
X31015D2*
X32245D1*
X26782Y10832D2*
Y10247D1*
X28317Y12433D2*
Y11848D1*
X12029Y33879D2*
D23*
X12584D1*
X16482D2*
X16729D1*
X12029Y33630D2*
X12584D1*
X16482D2*
X16729D1*
X12029Y33381D2*
X12565D1*
X16482D2*
X16729D1*
X12029Y33133D2*
X12315D1*
X16482D2*
X16729D1*
X16482Y32884D2*
X16729D1*
X12900Y32635D2*
X15486D1*
X16263D2*
X16729D1*
X14033Y32387D2*
X14912D1*
X16513D2*
X16729D1*
X14033Y32138D2*
X14721D1*
X16513D2*
X16729D1*
X14033Y31889D2*
X14475D1*
X16513D2*
X16729D1*
X14033Y31641D2*
X14223D1*
X16513D2*
X16729D1*
X16478Y31392D2*
X16725D1*
X16478Y31143D2*
X16725D1*
X12029Y30895D2*
X12256D1*
X14560D2*
X14779D1*
X16478D2*
X16725D1*
X12029Y30646D2*
X12451D1*
X14517D2*
X14779D1*
X16478D2*
X16725D1*
X12029Y30397D2*
X12451D1*
X14517D2*
X14779D1*
X16478D2*
X16725D1*
X12029Y30149D2*
X13486D1*
X14517D2*
X16725D1*
X12029Y29900D2*
X13486D1*
X14517D2*
X16725D1*
X12733Y33995D2*
X13770Y33991D1*
X13856Y33995D1*
X14518D1*
Y32754D1*
X12993D1*
X12842Y32604D1*
X14007Y32602D1*
Y31481D1*
X14027Y31480D1*
Y31421D1*
X14867Y32258D1*
X14881Y32270D1*
X14937Y32395D1*
Y32605D1*
X15511D1*
X15507Y32754D1*
X14545D1*
Y33995D1*
X16455D1*
Y32754D1*
X16239Y32749D1*
Y32605D1*
X16487D1*
Y31395D1*
X16451D1*
X16454Y30627D1*
Y30292D1*
X14804D1*
Y31163D1*
X14491Y30849D1*
X14493Y29749D1*
X16751Y29750D1*
X16753Y34127D1*
X12002D1*
Y29750D1*
X13512Y29752D1*
Y30272D1*
X12477Y30270D1*
X12471Y30705D1*
X12192Y30984D1*
X12120Y31086D1*
X12086Y31221D1*
X12085Y32727D1*
X12106Y32850D1*
X12177Y32970D1*
X12609Y33403D1*
X12608Y33995D1*
X12733D1*
X13937Y33994D2*
D24*
Y32755D1*
X15126Y33994D2*
Y32755D1*
D25*
X13753Y35377D3*
Y36480D3*
X13851Y39511D3*
Y40613D3*
D26*
X15438Y36998D3*
Y36250D3*
D27*
X14626Y20062D3*
X13877D3*
D26*
X15441Y39626D3*
Y40374D3*
X18239Y22934D3*
Y22186D3*
D27*
X15138Y28625D3*
X15886D3*
X13189Y33374D3*
X13937D3*
X15874D3*
X15126D3*
X16941Y7627D3*
X17689D3*
X15566Y11751D3*
X16314D3*
X10002Y11939D3*
X10750D3*
D26*
X16000Y17446D3*
Y18194D3*
D28*
X24441Y39090D3*
X23339D3*
X29339D3*
X30441D3*
D26*
X27693Y40066D3*
Y40814D3*
X26747Y40066D3*
Y40814D3*
X25875D3*
Y40066D3*
X23965Y33078D3*
Y33827D3*
X25692Y33078D3*
Y33827D3*
X27778Y33078D3*
Y33827D3*
D28*
X24441Y30590D3*
X23339D3*
X29339D3*
X30441D3*
D26*
X27880Y31373D3*
Y32122D3*
X26935Y31373D3*
Y32122D3*
X25937D3*
Y31373D3*
X23970Y24556D3*
Y25304D3*
X25690Y24556D3*
Y25304D3*
X27900Y24556D3*
Y25304D3*
D28*
X24441Y22090D3*
X23339D3*
X29339D3*
X30441D3*
D26*
X27880Y22911D3*
Y23659D3*
X26930Y22911D3*
Y23659D3*
X25940D3*
Y22911D3*
X23970Y15866D3*
Y16614D3*
X25690Y15866D3*
Y16614D3*
X27010Y15866D3*
Y16614D3*
D28*
X24441Y13390D3*
X23339D3*
X29339D3*
X30441D3*
D26*
X27880Y14246D3*
Y14994D3*
X26930Y14246D3*
Y14994D3*
X25940D3*
Y14246D3*
X23970Y6966D3*
Y7714D3*
X25690Y6966D3*
Y7714D3*
X27065Y6940D3*
Y7688D3*
D29*
X7750Y29063D3*
X8510D3*
X7750Y39620D3*
X8510D3*
X9993Y8877D3*
X10753D3*
X9993Y9940D3*
X10753D3*
D30*
X5565Y19310D3*
Y20070D3*
Y17525D3*
Y18285D3*
Y15720D3*
Y16480D3*
Y13935D3*
Y14695D3*
X38190Y35305D3*
Y36065D3*
Y28065D3*
Y28825D3*
Y18315D3*
Y19075D3*
Y11190D3*
Y11950D3*
D31*
X9898Y37221D3*
D22*
Y35221D3*
Y33221D3*
Y31221D3*
D32*
X4815Y26502D3*
D33*
X5815Y25502D3*
Y24502D3*
Y26502D3*
X4815Y25502D3*
Y24502D3*
D32*
X8190Y26502D3*
D33*
X9190D3*
X8190Y25502D3*
X9190D3*
X8190Y24502D3*
X9190D3*
X8190Y23502D3*
X9190D3*
X8190Y22502D3*
X9190D3*
D34*
X7065Y10065D3*
Y9752D3*
Y9440D3*
Y9127D3*
Y8815D3*
D35*
X6908Y7668D3*
X5215D3*
X6908Y11212D3*
X5215D3*
D32*
X32315Y5253D3*
D33*
Y6253D3*
Y7253D3*
D32*
X33874Y5252D3*
D33*
Y6252D3*
Y7252D3*
D32*
X17690Y20690D3*
D33*
X18690Y19690D3*
Y18690D3*
Y20690D3*
X17690Y19690D3*
Y18690D3*
D32*
Y17690D3*
D33*
X18690Y16690D3*
Y15690D3*
Y17690D3*
X17690Y16690D3*
Y15690D3*
D32*
Y14690D3*
D33*
X18690Y13690D3*
Y12690D3*
Y14690D3*
X17690Y13690D3*
Y12690D3*
D32*
Y11690D3*
D33*
X18690Y10690D3*
Y9690D3*
Y11690D3*
X17690Y10690D3*
Y9690D3*
D32*
Y8690D3*
D33*
X18690D3*
D32*
X7628Y20127D3*
D33*
X8628D3*
X7628Y19127D3*
X8628D3*
X7628Y18127D3*
X8628D3*
X7628Y17127D3*
X8628D3*
X7628Y16127D3*
X8628D3*
X7628Y15127D3*
X8628D3*
X7628Y14127D3*
X8628D3*
X7628Y13127D3*
X8628D3*
D36*
X34568Y33248D3*
D37*
Y34838D3*
Y36398D3*
Y37958D3*
D32*
X36900Y33090D3*
D33*
Y34090D3*
Y35090D3*
Y36090D3*
Y37090D3*
Y38090D3*
D36*
X34565Y26125D3*
D37*
Y27715D3*
Y29275D3*
Y30835D3*
D32*
X36900Y25965D3*
D33*
Y26965D3*
Y27965D3*
Y28965D3*
Y29965D3*
Y30965D3*
D36*
X34570Y16383D3*
D37*
Y17973D3*
Y19533D3*
Y21093D3*
D32*
X36900Y16225D3*
D33*
Y17225D3*
Y18225D3*
Y19225D3*
Y20225D3*
Y21225D3*
D36*
X34570Y9188D3*
D37*
Y10778D3*
Y12338D3*
Y13898D3*
D32*
X36900Y9030D3*
D33*
Y10030D3*
Y11030D3*
Y12030D3*
Y13030D3*
Y14030D3*
D32*
X38238Y23685D3*
D33*
X37238D3*
X36238D3*
X37238Y22685D3*
D27*
X9315Y29062D3*
X10063D3*
X9316Y39620D3*
X10064D3*
X5877Y22502D3*
X5129D3*
D26*
X13065Y18190D3*
Y17442D3*
X14003D3*
Y18190D3*
D27*
X10751Y7940D3*
X10003D3*
X10751Y10940D3*
X10003D3*
D26*
X21267Y7738D3*
Y6990D3*
D18*
X16253Y6065D3*
D38*
X20253D3*
D18*
X16253Y5065D3*
D38*
X20253D3*
D18*
X26815Y5253D3*
D38*
X30815D3*
D26*
X9753Y20065D3*
Y19317D3*
X10566Y20064D3*
Y19316D3*
X9753Y18314D3*
Y17566D3*
X10566Y18314D3*
Y17566D3*
X9753Y16564D3*
Y15816D3*
X10566Y16564D3*
Y15816D3*
X9753Y14627D3*
Y13878D3*
X10566Y14627D3*
Y13878D3*
X6440Y20064D3*
Y19316D3*
Y18279D3*
Y17531D3*
Y16474D3*
Y15726D3*
Y14689D3*
Y13941D3*
D39*
X22275Y35050D3*
X24475D3*
X31545Y35135D3*
X29345D3*
D26*
X22210Y33808D3*
Y33060D3*
X23070Y33818D3*
Y33070D3*
X24808Y33827D3*
Y33078D3*
X27015Y33827D3*
Y33078D3*
X29582Y33257D3*
Y32509D3*
X30432Y33266D3*
Y32517D3*
D39*
X22410Y26550D3*
X24610D3*
X31600Y26590D3*
X29400D3*
D26*
X22210Y25304D3*
Y24556D3*
X23070Y25304D3*
Y24556D3*
X24810Y25304D3*
Y24556D3*
X27010Y25304D3*
Y24556D3*
X29743Y24784D3*
Y24036D3*
X30580Y24784D3*
Y24036D3*
D39*
X22230Y18030D3*
X24430D3*
X31580Y18080D3*
X29380D3*
D26*
X22210Y16614D3*
Y15866D3*
X23070Y16614D3*
Y15866D3*
X24810Y16614D3*
Y15866D3*
X27900Y16614D3*
Y15866D3*
X29767Y16194D3*
Y15446D3*
X30617Y16194D3*
Y15446D3*
D39*
X22120Y9350D3*
X24320D3*
X31630Y9370D3*
X29430D3*
D26*
X22330Y7714D3*
Y6966D3*
X23180Y7714D3*
Y6966D3*
X24810Y7714D3*
Y6966D3*
X28065Y7690D3*
Y6942D3*
X29820Y7652D3*
Y6903D3*
X30710Y7652D3*
Y6903D3*
X38190Y37065D3*
Y37813D3*
Y30065D3*
Y30813D3*
Y20317D3*
Y21065D3*
Y13192D3*
Y13940D3*
D40*
X10860Y26862D3*
Y26547D3*
Y26232D3*
Y25917D3*
Y25602D3*
Y25287D3*
Y24972D3*
Y24657D3*
Y24343D3*
Y24028D3*
Y23713D3*
Y23398D3*
Y23083D3*
Y22768D3*
Y22453D3*
Y22138D3*
D41*
X11765Y21232D3*
X12080D3*
X12395D3*
X12710D3*
X13025D3*
X13340D3*
X13655D3*
X13970D3*
X14285D3*
X14600D3*
X14915D3*
X15230D3*
X15545D3*
X15860D3*
X16175D3*
X16490D3*
D40*
X17395Y22138D3*
Y22453D3*
Y22768D3*
Y23083D3*
Y23398D3*
Y23713D3*
Y24028D3*
Y24343D3*
Y24657D3*
Y24972D3*
Y25287D3*
Y25602D3*
Y25917D3*
Y26232D3*
Y26547D3*
Y26862D3*
D41*
X16490Y27768D3*
X16175D3*
X15860D3*
X15545D3*
X15230D3*
X14915D3*
X14600D3*
X14285D3*
X13970D3*
X13655D3*
X13340D3*
X13025D3*
X12710D3*
X12395D3*
X12080D3*
X11765D3*
D42*
X13684Y38410D3*
Y38032D3*
X14547Y38409D3*
X13684Y37647D3*
X14550Y37651D3*
D32*
X13065Y16127D3*
D33*
Y15127D3*
Y14127D3*
Y13127D3*
X16065D3*
Y14127D3*
Y15127D3*
Y16127D3*
D43*
X25250Y35910D3*
X25500D3*
X25758Y35907D3*
X26014D3*
X26270D3*
X26526D3*
X26782D3*
X27037D3*
X27293D3*
X27549D3*
X27805D3*
X28061D3*
X28317D3*
X28573D3*
Y38093D3*
X28317D3*
X28061D3*
X27805D3*
X27549D3*
X27290Y38090D3*
X27037Y38093D3*
X26782D3*
X26526D3*
X26270D3*
X26014D3*
X25758D3*
X25502D3*
X25250Y38090D3*
Y27460D3*
X25500D3*
X25758Y27457D3*
X26014D3*
X26270D3*
X26526D3*
X26782D3*
X27037D3*
X27293D3*
X27549D3*
X27805D3*
X28061D3*
X28317D3*
X28573D3*
Y29643D3*
X28317D3*
X28061D3*
X27805D3*
X27549D3*
X27290Y29640D3*
X27037Y29643D3*
X26782D3*
X26526D3*
X26270D3*
X26014D3*
X25758D3*
X25502D3*
X25250Y29640D3*
Y18960D3*
X25500D3*
X25758Y18957D3*
X26014D3*
X26270D3*
X26526D3*
X26782D3*
X27037D3*
X27293D3*
X27549D3*
X27805D3*
X28061D3*
X28317D3*
X28573D3*
Y21143D3*
X28317D3*
X28061D3*
X27805D3*
X27549D3*
X27290Y21140D3*
X27037Y21143D3*
X26782D3*
X26526D3*
X26270D3*
X26014D3*
X25758D3*
X25502D3*
X25250Y21140D3*
Y10250D3*
X25500D3*
X25758Y10247D3*
X26014D3*
X26270D3*
X26526D3*
X26782D3*
X27037D3*
X27293D3*
X27549D3*
X27805D3*
X28061D3*
X28317D3*
X28573D3*
Y12433D3*
X28317D3*
X28061D3*
X27805D3*
X27549D3*
X27290Y12430D3*
X27037Y12433D3*
X26782D3*
X26526D3*
X26270D3*
X26014D3*
X25758D3*
X25502D3*
X25250Y12430D3*
D44*
X13315Y10565D3*
Y10309D3*
Y10053D3*
Y9797D3*
Y9541D3*
Y9285D3*
Y9030D3*
Y8774D3*
Y8518D3*
Y8262D3*
Y8006D3*
Y7750D3*
Y7494D3*
Y7238D3*
X15992D3*
Y7494D3*
Y7750D3*
Y8006D3*
Y8262D3*
Y8518D3*
Y8774D3*
Y9030D3*
Y9285D3*
Y9541D3*
Y9797D3*
Y10053D3*
Y10309D3*
Y10565D3*
D45*
X13252Y30875D3*
X13232Y31997D3*
X15712Y32000D3*
D46*
X15629Y30897D3*
D27*
X41200Y40410D3*
X41948D3*
X41190Y39440D3*
X41938D3*
X41200Y38410D3*
X41948D3*
D29*
X41192Y36940D3*
X41952D3*
X41192Y33940D3*
X41952D3*
D47*
X42835Y27503D3*
X43148D3*
X43460D3*
X43773D3*
X44085D3*
D48*
X45232Y27346D3*
Y25653D3*
X41688Y27346D3*
Y25653D3*
D32*
X44190Y40440D3*
D33*
X45190D3*
X44190Y39440D3*
X45190D3*
X44190Y38440D3*
X45190D3*
X44190Y37440D3*
X45190D3*
X44190Y36440D3*
X45190D3*
X44190Y35440D3*
X45190D3*
X44190Y34440D3*
X45190D3*
X44190Y33440D3*
X45190D3*
D27*
X41190Y19910D3*
X41938D3*
X41190Y18910D3*
X41938D3*
X41940Y35940D3*
X41192D3*
X41940Y34940D3*
X41192D3*
D49*
X45166Y31779D3*
X44910D3*
X44654D3*
X44398D3*
X44142D3*
X43886D3*
X43630D3*
X43375D3*
X43119D3*
X42863D3*
X42607D3*
X42351D3*
X42095D3*
X41839D3*
Y29101D3*
X42095D3*
X42351D3*
X42607D3*
X42863D3*
X43119D3*
X43375D3*
X43630D3*
X43886D3*
X44142D3*
X44398D3*
X44654D3*
X44910D3*
X45166D3*
D27*
X41190Y17910D3*
X41938D3*
D29*
X41190Y16660D3*
X41950D3*
X41190Y13660D3*
X41950D3*
D47*
X42685Y7003D3*
X42998D3*
X43310D3*
X43623D3*
X43935D3*
D48*
X45082Y6846D3*
Y5153D3*
X41538Y6846D3*
Y5153D3*
D32*
X43940Y19940D3*
D33*
X44940D3*
X43940Y18940D3*
X44940D3*
X43940Y17940D3*
X44940D3*
X43940Y16940D3*
X44940D3*
X43940Y15940D3*
X44940D3*
X43940Y14940D3*
X44940D3*
X43940Y13940D3*
X44940D3*
X43940Y12940D3*
X44940D3*
D27*
X41938Y15660D3*
X41190D3*
X41938Y14660D3*
X41190D3*
D49*
X44943Y11279D3*
X44687D3*
X44432D3*
X44176D3*
X43920D3*
X43664D3*
X43408D3*
X43152D3*
X42896D3*
X42640D3*
X42384D3*
X42128D3*
X41873D3*
X41617D3*
Y8601D3*
X41873D3*
X42128D3*
X42384D3*
X42640D3*
X42896D3*
X43152D3*
X43408D3*
X43664D3*
X43920D3*
X44176D3*
X44432D3*
X44687D3*
X44943D3*
X38112Y33592D2*
D118*
X38189Y33631D1*
D2*
X38304Y33745D1*
D2*
Y32942D1*
X38088Y26491D2*
Y26529D1*
D2*
X38126Y26606D1*
D2*
X38165Y26644D1*
D2*
X38241Y26682D1*
D2*
X38394D1*
D2*
X38470Y26644D1*
D2*
X38509Y26606D1*
D2*
X38547Y26529D1*
D2*
Y26453D1*
D2*
X38509Y26377D1*
D2*
X38432Y26262D1*
D2*
X38050Y25880D1*
D2*
X38585D1*
X38001Y16767D2*
X38422D1*
D2*
X38192Y16462D1*
D2*
X38307D1*
D2*
X38384Y16423D1*
D2*
X38422Y16385D1*
D2*
X38460Y16270D1*
D2*
Y16194D1*
D2*
X38422Y16079D1*
D2*
X38345Y16003D1*
D2*
X38231Y15965D1*
D2*
X38116D1*
D2*
X38001Y16003D1*
D2*
X37963Y16041D1*
D2*
X37925Y16118D1*
X38260Y8855D2*
Y9657D1*
D2*
X37877Y9122D1*
D2*
X38451D1*
X6539Y37064D2*
D119*
X6587Y37088D1*
D2*
X6659Y37160D1*
D2*
Y36658D1*
X6838Y37040D2*
Y37064D1*
D2*
X6861Y37112D1*
D2*
X6885Y37136D1*
D2*
X6933Y37160D1*
D2*
X7029D1*
D2*
X7076Y37136D1*
D2*
X7100Y37112D1*
D2*
X7124Y37064D1*
D2*
Y37016D1*
D2*
X7100Y36968D1*
D2*
X7053Y36897D1*
D2*
X6813Y36658D1*
D2*
X7148D1*
X7303Y36993D2*
X7446Y36658D1*
D2*
X7589Y36993D1*
X6598Y34791D2*
X6574Y34838D1*
D2*
X6526Y34886D1*
D2*
X6478Y34910D1*
D2*
X6383D1*
D2*
X6335Y34886D1*
D2*
X6287Y34838D1*
D2*
X6263Y34791D1*
D2*
X6239Y34719D1*
D2*
Y34599D1*
D2*
X6263Y34528D1*
D2*
X6287Y34480D1*
D2*
X6335Y34432D1*
D2*
X6383Y34408D1*
D2*
X6478D1*
D2*
X6526Y34432D1*
D2*
X6574Y34480D1*
D2*
X6598Y34528D1*
D2*
Y34599D1*
D2*
X6478D1*
X7087Y34910D2*
Y34408D1*
D2*
X6752Y34910D1*
D2*
Y34408D1*
X7241Y34910D2*
Y34408D1*
D2*
X7409D1*
D2*
X7481Y34432D1*
D2*
X7529Y34480D1*
D2*
X7552Y34528D1*
D2*
X7576Y34599D1*
D2*
Y34719D1*
D2*
X7552Y34791D1*
D2*
X7529Y34838D1*
D2*
X7481Y34886D1*
D2*
X7409Y34910D1*
D2*
X7241D1*
X7126Y32660D2*
X6887D1*
D2*
X6863Y32445D1*
D2*
X6887Y32468D1*
D2*
X6959Y32493D1*
D2*
X7030D1*
D2*
X7102Y32468D1*
D2*
X7150Y32421D1*
D2*
X7174Y32349D1*
D2*
Y32301D1*
D2*
X7150Y32230D1*
D2*
X7102Y32181D1*
D2*
X7030Y32158D1*
D2*
X6959D1*
D2*
X6887Y32181D1*
D2*
X6863Y32206D1*
D2*
X6839Y32253D1*
X7328Y32493D2*
X7472Y32158D1*
D2*
X7615Y32493D1*
X8589Y40752D2*
X8637Y40776D1*
D2*
X8708Y40847D1*
D2*
Y40345D1*
X8887Y40728D2*
Y40752D1*
D2*
X8911Y40800D1*
D2*
X8935Y40824D1*
D2*
X8983Y40847D1*
D2*
X9078D1*
D2*
X9126Y40824D1*
D2*
X9150Y40800D1*
D2*
X9174Y40752D1*
D2*
Y40704D1*
D2*
X9150Y40656D1*
D2*
X9102Y40585D1*
D2*
X8863Y40345D1*
D2*
X9198D1*
X9352Y40680D2*
X9496Y40345D1*
D2*
X9639Y40680D1*
X5367Y29249D2*
Y28818D1*
X5152Y29033D2*
X5582D1*
X6024Y29284D2*
X5785D1*
D2*
X5761Y29069D1*
D2*
X5785Y29093D1*
D2*
X5857Y29117D1*
D2*
X5928D1*
D2*
X6000Y29093D1*
D2*
X6048Y29046D1*
D2*
X6072Y28974D1*
D2*
Y28926D1*
D2*
X6048Y28854D1*
D2*
X6000Y28806D1*
D2*
X5928Y28783D1*
D2*
X5857D1*
D2*
X5785Y28806D1*
D2*
X5761Y28831D1*
D2*
X5737Y28878D1*
X6226Y29117D2*
X6370Y28783D1*
D2*
X6513Y29117D1*
X7839Y27626D2*
X7887Y27651D1*
D2*
X7959Y27722D1*
D2*
Y27220D1*
X4901Y27626D2*
X4949Y27651D1*
D2*
X5021Y27722D1*
D2*
Y27220D1*
X17633Y4780D2*
Y5282D1*
D2*
X17394Y4948D1*
D2*
X17753D1*
X17931Y4828D2*
X17907Y4804D1*
D2*
X17931Y4780D1*
D2*
X17955Y4804D1*
D2*
X17931Y4828D1*
X18205Y4780D2*
X18444Y5282D1*
D2*
X18109D1*
X18599Y5283D2*
Y4780D1*
X18934Y5283D2*
X18599Y4948D1*
X18718Y5068D2*
X18934Y4780D1*
X14503Y39228D2*
D117*
Y38883D1*
X14331Y39055D2*
X14676D1*
X14503Y35040D2*
Y34696D1*
X14331Y34868D2*
X14676D1*
X33166Y33492D2*
D119*
X33214Y33516D1*
D2*
X33286Y33587D1*
D2*
Y33085D1*
X33389Y16164D2*
X33437Y16188D1*
D2*
X33509Y16260D1*
D2*
Y15758D1*
X31401Y7377D2*
X31449Y7401D1*
D2*
X31521Y7472D1*
D2*
Y6970D1*
X37537Y7214D2*
X38040D1*
D2*
Y7429D1*
D2*
X38016Y7501D1*
D2*
X37992Y7525D1*
D2*
X37944Y7549D1*
D2*
X37872D1*
D2*
X37824Y7525D1*
D2*
X37801Y7501D1*
D2*
X37777Y7429D1*
D2*
X37752Y7501D1*
D2*
X37729Y7525D1*
D2*
X37681Y7549D1*
D2*
X37633D1*
D2*
X37586Y7525D1*
D2*
X37561Y7501D1*
D2*
X37537Y7429D1*
D2*
Y7214D1*
X37777D2*
Y7429D1*
X37658Y5946D2*
X37610Y5923D1*
D2*
X37562Y5875D1*
D2*
X37539Y5827D1*
D2*
Y5731D1*
D2*
X37562Y5683D1*
D2*
X37610Y5636D1*
D2*
X37658Y5611D1*
D2*
X37730Y5588D1*
D2*
X37850D1*
D2*
X37921Y5611D1*
D2*
X37969Y5636D1*
D2*
X38017Y5683D1*
D2*
X38041Y5731D1*
D2*
Y5827D1*
D2*
X38017Y5875D1*
D2*
X37969Y5923D1*
D2*
X37921Y5946D1*
D2*
X37850D1*
D2*
Y5827D1*
X37539Y6436D2*
X38041D1*
D2*
X37539Y6101D1*
D2*
X38041D1*
X37539Y6590D2*
X38041D1*
D2*
Y6758D1*
D2*
X38017Y6829D1*
D2*
X37969Y6878D1*
D2*
X37921Y6901D1*
D2*
X37850Y6925D1*
D2*
X37730D1*
D2*
X37658Y6901D1*
D2*
X37610Y6878D1*
D2*
X37562Y6829D1*
D2*
X37539Y6758D1*
D2*
Y6590D1*
X38064Y5323D2*
X37561Y5131D1*
D2*
X38064Y4940D1*
X37896Y5012D2*
Y5251D1*
X28269Y5374D2*
X28317Y5398D1*
D2*
X28389Y5470D1*
D2*
Y4968D1*
X28568Y5350D2*
Y5374D1*
D2*
X28591Y5422D1*
D2*
X28615Y5446D1*
D2*
X28663Y5470D1*
D2*
X28759D1*
D2*
X28806Y5446D1*
D2*
X28830Y5422D1*
D2*
X28854Y5374D1*
D2*
Y5327D1*
D2*
X28830Y5278D1*
D2*
X28783Y5207D1*
D2*
X28543Y4968D1*
D2*
X28878D1*
X29176Y5470D2*
X29104Y5446D1*
D2*
X29056Y5374D1*
D2*
X29033Y5255D1*
D2*
Y5183D1*
D2*
X29056Y5063D1*
D2*
X29104Y4992D1*
D2*
X29176Y4968D1*
D2*
X29224D1*
D2*
X29296Y4992D1*
D2*
X29343Y5063D1*
D2*
X29368Y5183D1*
D2*
Y5255D1*
D2*
X29343Y5374D1*
D2*
X29296Y5446D1*
D2*
X29224Y5470D1*
D2*
X29176D1*
X29343Y5374D2*
X29056Y5063D1*
X13151Y11376D2*
X13199Y11401D1*
D2*
X13271Y11472D1*
D2*
Y10970D1*
X8128Y40728D2*
D117*
Y40383D1*
X7956Y40555D2*
X8301D1*
X8825Y10103D2*
X8519Y9930D1*
D2*
X8825Y9758D1*
X8948Y9930D2*
X9170D1*
X9293D2*
X9514D1*
X38173Y34540D2*
Y34196D1*
X38001Y34368D2*
X38346D1*
X11447Y9430D2*
X11668D1*
X38253Y27478D2*
Y27133D1*
X38081Y27305D2*
X38426D1*
X38128Y17728D2*
Y17383D1*
X37956Y17555D2*
X38301D1*
X38208Y10443D2*
Y10098D1*
X38036Y10270D2*
X38381D1*
X5066Y13727D2*
Y13383D1*
X4894Y13555D2*
X5238D1*
X13964Y16251D2*
D119*
X14012Y16276D1*
D2*
X14084Y16347D1*
D2*
Y15845D1*
X8581Y8868D2*
D117*
X8803D1*
X8926D2*
X9147D1*
X9271Y9040D2*
X9577Y8868D1*
D2*
X9271Y8696D1*
X17696Y5780D2*
D119*
Y6282D1*
D2*
X17456Y5948D1*
D2*
X17815D1*
X17993Y5828D2*
X17969Y5804D1*
D2*
X17993Y5780D1*
D2*
X18018Y5804D1*
D2*
X17993Y5828D1*
X18268Y5780D2*
X18507Y6282D1*
D2*
X18172D1*
X18661Y6283D2*
Y5780D1*
X18996Y6283D2*
X18661Y5948D1*
X18781Y6068D2*
X18996Y5780D1*
X45646Y12064D2*
X45671Y12016D1*
D2*
X45742Y11944D1*
D2*
X45240D1*
X45896Y32689D2*
X45921Y32641D1*
D2*
X45992Y32569D1*
D2*
X45490D1*
M02*
